<?xml version="1.0" encoding="UTF-8" standalone="no"?>
<!-- Generator: Adobe Illustrator 14.0.0, SVG Export Plug-In . SVG Version: 6.00 Build 43363)  -->

<svg
   xmlns:dc="http://purl.org/dc/elements/1.1/"
   xmlns:cc="http://creativecommons.org/ns#"
   xmlns:rdf="http://www.w3.org/1999/02/22-rdf-syntax-ns#"
   xmlns:svg="http://www.w3.org/2000/svg"
   xmlns="http://www.w3.org/2000/svg"
   xmlns:sodipodi="http://sodipodi.sourceforge.net/DTD/sodipodi-0.dtd"
   xmlns:inkscape="http://www.inkscape.org/namespaces/inkscape"
   version="1.1"
   id="Layer_1"
   x="0px"
   y="0px"
   width="283.46px"
   height="141.73px"
   viewBox="0 0 283.46 141.73"
   enable-background="new 0 0 283.46 141.73"
   xml:space="preserve"
   inkscape:version="0.48.3.1 r9886"
   sodipodi:docname="logocomunity.svg"
   inkscape:export-filename="/home/thot/Trabajo/LogicalBricks/logocomunity.png"
   inkscape:export-xdpi="90.058479"
   inkscape:export-ydpi="90.058479"><metadata
   id="metadata65"><rdf:RDF><cc:Work
       rdf:about=""><dc:format>image/svg+xml</dc:format><dc:type
         rdf:resource="http://purl.org/dc/dcmitype/StillImage" /><dc:title></dc:title></cc:Work></rdf:RDF></metadata><defs
   id="defs63">
	
	
	
	
	
	

		
		
		
		
		
		
		
		
		
	</defs><sodipodi:namedview
   pagecolor="#ffffff"
   bordercolor="#666666"
   borderopacity="1"
   objecttolerance="10"
   gridtolerance="10"
   guidetolerance="10"
   inkscape:pageopacity="0"
   inkscape:pageshadow="2"
   inkscape:window-width="1920"
   inkscape:window-height="1058"
   id="namedview61"
   showgrid="false"
   inkscape:zoom="5.8376706"
   inkscape:cx="131.06215"
   inkscape:cy="78.48489"
   inkscape:window-x="1362"
   inkscape:window-y="0"
   inkscape:window-maximized="1"
   inkscape:current-layer="Layer_1" />
<path
   style="fill:none;stroke:#b9cc29;stroke-width:5;stroke-miterlimit:10"
   inkscape:connector-curvature="0"
   id="path5"
   d="m 178.984,73.142 h 23.08 V 46.218 c 0,-4.135 -4.164,-7.486 -9.3,-7.486 h -36.173"
   stroke-miterlimit="10" /><path
   style="fill:none;stroke:#be1e2d;stroke-width:5;stroke-miterlimit:10"
   inkscape:connector-curvature="0"
   id="path7"
   d="M 107.45,30.512 H 92.505 c -5.65,0 -10.225,4.786 -10.225,10.687 v 31.943 h 25.17"
   stroke-miterlimit="10" /><path
   style="fill:none;stroke:#004e7f;stroke-width:5;stroke-miterlimit:10"
   inkscape:connector-curvature="0"
   id="path9"
   d="M 156.698,57.381 V 30.512 25.641 c 0,-5.41 -4.382,-9.795 -9.79,-9.795 h -29.662 c -5.408,0 -9.796,4.385 -9.796,9.795 v 4.871 42.631 h 24.624"
   stroke-miterlimit="10" /><path
   style="fill:none;stroke:#f7941e;stroke-width:5;stroke-miterlimit:10"
   inkscape:connector-curvature="0"
   id="path11"
   d="M 171.532,57.381 H 156.7 141.87 c -5.41,0 -9.795,4.385 -9.795,9.795 v 5.967 h 24.625 24.625 v -5.967 c 0,-5.41 -4.386,-9.795 -9.793,-9.795 z"
   stroke-miterlimit="10" /><g
   id="g13">
		<path
   style="fill:#231f20"
   inkscape:connector-curvature="0"
   id="path15"
   d="m 66.592,87.925 h 0.232 c 0.818,0.172 1.228,0.561 1.228,1.163 v 15.455 h 7.585 c 0.75,0 1.193,0.478 1.331,1.435 -0.25,0.826 -0.693,1.24 -1.331,1.24 h -8.941 c -0.716,0 -1.155,-0.443 -1.318,-1.331 V 89.359 c 0.102,-0.956 0.507,-1.434 1.214,-1.434 z" />
		<path
   style="fill:#231f20"
   inkscape:connector-curvature="0"
   id="path17"
   d="m 84.869,93.288 c 1.801,0 3.429,0.68 4.885,2.041 1.387,1.456 2.08,3.098 2.08,4.924 0,2.609 -1.231,4.66 -3.695,6.15 -1.077,0.543 -2.119,0.814 -3.127,0.814 h -0.388 c -1.878,0 -3.623,-0.879 -5.233,-2.637 -0.991,-1.395 -1.486,-2.838 -1.486,-4.328 0,-2.266 0.999,-4.161 2.998,-5.686 1.274,-0.852 2.597,-1.278 3.966,-1.278 z m -4.264,6.822 v 0.232 c 0,1.611 0.779,2.861 2.339,3.748 0.551,0.284 1.146,0.426 1.783,0.426 h 0.284 c 1.662,0 2.938,-0.865 3.825,-2.598 0.197,-0.533 0.297,-1.059 0.297,-1.576 v -0.232 c 0,-1.335 -0.616,-2.463 -1.848,-3.385 -0.716,-0.492 -1.538,-0.737 -2.469,-0.737 -1.817,0 -3.152,0.956 -4.006,2.868 -0.136,0.45 -0.205,0.867 -0.205,1.254 z" />
		<path
   style="fill:#231f20"
   inkscape:connector-curvature="0"
   id="path19"
   d="m 99.528,93.249 c 2.076,0 3.873,0.861 5.389,2.584 1.051,1.439 1.577,2.805 1.577,4.097 l -0.052,1.628 v 5.803 c 0,1.215 -0.888,2.502 -2.662,3.863 -1.353,0.887 -2.77,1.331 -4.252,1.331 -2.532,0 -4.626,-1.129 -6.28,-3.386 -0.327,-0.551 -0.49,-0.943 -0.49,-1.176 v -0.143 c 0,-0.629 0.404,-1.033 1.214,-1.215 h 0.182 c 0.611,0 1.09,0.466 1.435,1.396 1.051,1.318 2.364,1.977 3.94,1.977 1.887,0 3.3,-0.844 4.239,-2.533 l 0.077,-0.516 v -1.254 c -1.06,0.982 -2.451,1.473 -4.174,1.473 h -0.388 c -1.878,0 -3.623,-0.879 -5.233,-2.636 -0.991,-1.396 -1.486,-2.839 -1.486,-4.329 0,-2.266 0.999,-4.16 2.998,-5.686 1.275,-0.852 2.597,-1.278 3.966,-1.278 z m -4.315,6.822 v 0.232 c 0,1.793 0.943,3.128 2.83,4.006 0.49,0.147 0.938,0.221 1.344,0.221 h 0.284 c 1.749,0 3.071,-0.939 3.967,-2.817 0.138,-0.56 0.207,-0.995 0.207,-1.306 v -0.297 c 0,-1.783 -0.952,-3.118 -2.855,-4.006 -0.595,-0.138 -1.052,-0.207 -1.37,-0.207 h -0.181 c -1.749,0 -3.071,0.927 -3.968,2.779 -0.172,0.509 -0.258,0.973 -0.258,1.395 z" />
		<path
   style="fill:#231f20"
   inkscape:connector-curvature="0"
   id="path21"
   d="m 110.26,89.825 c 0.853,0.215 1.279,0.619 1.279,1.214 v 0.284 c 0,0.681 -0.461,1.086 -1.383,1.215 -0.663,0 -1.099,-0.452 -1.305,-1.357 0.181,-0.905 0.651,-1.356 1.409,-1.356 z m 0,3.308 c 0.853,0.216 1.279,0.62 1.279,1.214 v 11.604 c 0,0.698 -0.431,1.12 -1.292,1.267 h -0.078 c -0.706,0 -1.142,-0.439 -1.305,-1.318 V 94.605 c 0.104,-0.981 0.569,-1.472 1.396,-1.472 z" />
		<path
   style="fill:#231f20"
   inkscape:connector-curvature="0"
   id="path23"
   d="m 120.357,93.185 c 1.81,0 3.463,0.689 4.962,2.067 0.146,0.267 0.22,0.513 0.22,0.736 v 0.091 c -0.154,0.844 -0.59,1.266 -1.305,1.266 h -0.052 c -0.319,0 -0.904,-0.322 -1.758,-0.969 -0.638,-0.327 -1.279,-0.491 -1.925,-0.491 h -0.284 c -1.715,0 -3.016,0.905 -3.903,2.714 -0.206,0.611 -0.31,1.163 -0.31,1.654 0,1.748 0.908,3.08 2.727,3.992 0.534,0.207 1.111,0.311 1.731,0.311 1.017,0 2.05,-0.443 3.102,-1.331 l 0.529,-0.116 h 0.194 c 0.688,0 1.106,0.422 1.253,1.267 v 0.077 c 0,0.845 -1.128,1.697 -3.386,2.559 -0.74,0.139 -1.292,0.207 -1.653,0.207 h -0.388 c -1.896,0 -3.653,-0.887 -5.272,-2.662 -0.999,-1.404 -1.499,-2.855 -1.499,-4.354 0,-2.282 1.008,-4.195 3.023,-5.737 1.285,-0.856 2.616,-1.281 3.994,-1.281 z" />
		<path
   style="fill:#231f20"
   inkscape:connector-curvature="0"
   id="path25"
   d="m 137.872,105.745 c -1.051,0.981 -2.438,1.473 -4.161,1.473 h -0.375 c -2.377,0 -4.358,-1.189 -5.943,-3.566 -0.578,-1.154 -0.866,-2.313 -0.866,-3.477 0,-2.602 1.274,-4.664 3.825,-6.189 1.085,-0.508 2.145,-0.762 3.179,-0.762 2.645,0 4.738,1.291 6.28,3.876 0.474,1.06 0.711,2.149 0.711,3.27 v 5.595 c 0,0.689 -0.423,1.107 -1.267,1.254 h -0.091 c -0.586,0 -1.021,-0.345 -1.305,-1.033 v -0.143 l 0.013,-0.298 z m -8.684,-5.621 v 0.142 c 0,1.767 0.887,3.093 2.662,3.979 0.551,0.207 1.047,0.311 1.485,0.311 h 0.375 c 1.465,0 2.675,-0.736 3.631,-2.209 0.345,-0.689 0.518,-1.349 0.518,-1.978 v -0.194 c 0,-1.697 -0.84,-2.998 -2.521,-3.902 -0.577,-0.258 -1.18,-0.388 -1.809,-0.388 h -0.052 c -1.783,0 -3.127,0.931 -4.032,2.792 -0.171,0.568 -0.257,1.051 -0.257,1.447 z" />
		<path
   style="fill:#231f20"
   inkscape:connector-curvature="0"
   id="path27"
   d="m 144.379,88.003 h 0.232 c 0.818,0.172 1.228,0.56 1.228,1.162 v 15.378 h 0.634 c 0.628,0 1.033,0.427 1.214,1.279 v 0.103 c -0.146,0.862 -0.586,1.293 -1.317,1.293 h -1.887 c -0.716,0 -1.154,-0.439 -1.318,-1.318 V 89.424 c 0.103,-0.947 0.508,-1.421 1.214,-1.421 z" />
		<path
   style="fill:#231f20"
   inkscape:connector-curvature="0"
   id="path29"
   d="m 149.631,87.873 0.646,0.104 h 2.908 l 0.193,-0.038 c 1.637,0 3.02,0.754 4.148,2.261 0.577,0.845 0.865,1.762 0.865,2.753 v 0.142 c 0,1.206 -0.366,2.228 -1.099,3.063 1.965,1.077 2.946,2.8 2.946,5.169 0,2.378 -1.231,4.204 -3.695,5.479 -0.801,0.276 -1.517,0.414 -2.146,0.414 h -4.419 c -0.853,-0.155 -1.279,-0.594 -1.279,-1.318 V 89.269 c 0.129,-0.861 0.439,-1.292 0.931,-1.292 v -0.104 z m 1.744,2.778 v 4.691 h 1.408 c 1.422,0 2.326,-0.487 2.714,-1.461 0.112,-0.284 0.168,-0.564 0.168,-0.84 v -0.143 c 0,-1.067 -0.624,-1.8 -1.873,-2.196 l -0.97,-0.052 h -1.447 z m 0,7.366 v 6.526 h 2.146 c 1.714,0 2.855,-0.474 3.424,-1.421 0.379,-0.543 0.568,-1.143 0.568,-1.797 v -0.09 c 0,-1.56 -0.853,-2.602 -2.559,-3.128 l -1.305,-0.091 h -2.274 z" />
		<path
   style="fill:#231f20"
   inkscape:connector-curvature="0"
   id="path31"
   d="m 163.812,93.12 c 0.845,0.215 1.267,0.619 1.267,1.215 v 0.206 c 1.068,-0.947 2.46,-1.421 4.174,-1.421 0.922,0 1.921,0.232 2.998,0.697 0.37,0.379 0.556,0.745 0.556,1.099 v 0.091 c -0.146,0.844 -0.581,1.266 -1.305,1.266 h -0.117 c -0.887,-0.284 -1.533,-0.426 -1.938,-0.426 h -0.285 c -1.74,0 -3.015,0.904 -3.824,2.713 -0.173,0.475 -0.259,1.025 -0.259,1.654 v 5.737 c 0,0.698 -0.431,1.12 -1.292,1.267 h -0.078 c -0.706,0 -1.142,-0.439 -1.305,-1.318 V 94.605 c 0.103,-0.99 0.573,-1.485 1.408,-1.485 z" />
		<path
   style="fill:#231f20"
   inkscape:connector-curvature="0"
   id="path33"
   d="m 176.068,89.825 c 0.853,0.215 1.279,0.619 1.279,1.214 v 0.284 c 0,0.681 -0.461,1.086 -1.383,1.215 -0.663,0 -1.099,-0.452 -1.305,-1.357 0.182,-0.905 0.652,-1.356 1.409,-1.356 z m 0,3.308 c 0.853,0.216 1.279,0.62 1.279,1.214 v 11.604 c 0,0.698 -0.431,1.12 -1.292,1.267 h -0.078 c -0.706,0 -1.142,-0.439 -1.305,-1.318 V 94.605 c 0.104,-0.981 0.569,-1.472 1.396,-1.472 z" />
		<path
   style="fill:#231f20"
   inkscape:connector-curvature="0"
   id="path35"
   d="m 186.166,93.185 c 1.81,0 3.463,0.689 4.962,2.067 0.146,0.267 0.22,0.513 0.22,0.736 v 0.091 c -0.154,0.844 -0.59,1.266 -1.305,1.266 h -0.052 c -0.319,0 -0.904,-0.322 -1.758,-0.969 -0.638,-0.327 -1.279,-0.491 -1.925,-0.491 h -0.284 c -1.715,0 -3.016,0.905 -3.903,2.714 -0.206,0.611 -0.31,1.163 -0.31,1.654 0,1.748 0.908,3.08 2.727,3.992 0.534,0.207 1.111,0.311 1.731,0.311 1.017,0 2.05,-0.443 3.102,-1.331 l 0.529,-0.116 h 0.194 c 0.688,0 1.106,0.422 1.253,1.267 v 0.077 c 0,0.845 -1.128,1.697 -3.386,2.559 -0.74,0.139 -1.292,0.207 -1.653,0.207 h -0.388 c -1.896,0 -3.653,-0.887 -5.272,-2.662 -0.999,-1.404 -1.499,-2.855 -1.499,-4.354 0,-2.282 1.008,-4.195 3.023,-5.737 1.285,-0.856 2.616,-1.281 3.994,-1.281 z" />
		<path
   style="fill:#231f20"
   inkscape:connector-curvature="0"
   id="path37"
   d="m 197.634,100.136 -1.615,1.035 v 4.78 c 0,0.698 -0.431,1.12 -1.292,1.267 h -0.077 c -0.664,0 -1.104,-0.404 -1.318,-1.215 V 89.179 c 0.181,-0.854 0.586,-1.279 1.215,-1.279 h 0.232 c 0.827,0.181 1.24,0.572 1.24,1.176 v 8.916 c 4.213,-2.791 6.737,-4.424 7.572,-4.897 h 0.35 c 0.74,0 1.18,0.461 1.317,1.383 0,0.568 -0.586,1.163 -1.757,1.783 -1.922,1.301 -3.11,2.114 -3.566,2.442 l 5.246,6.643 0.077,0.426 v 0.116 c -0.154,0.853 -0.594,1.279 -1.317,1.279 h -0.091 c -0.517,0 -1.193,-0.603 -2.028,-1.81 l -4.188,-5.221 z" />
		<path
   style="fill:#231f20"
   inkscape:connector-curvature="0"
   id="path39"
   d="m 215.344,102.604 c -0.009,-0.172 -0.186,-0.275 -0.53,-0.311 -4.359,-0.973 -6.686,-1.594 -6.978,-1.86 -0.888,-0.672 -1.331,-1.503 -1.331,-2.494 0,-1.344 0.938,-2.618 2.816,-3.825 1.034,-0.543 2.055,-0.813 3.063,-0.813 2.36,0 4.226,1.09 5.596,3.269 l 0.052,0.479 v 0.078 c 0,0.732 -0.439,1.162 -1.318,1.292 -0.586,0 -1.129,-0.413 -1.628,-1.241 -0.784,-0.766 -1.685,-1.149 -2.701,-1.149 -1.326,0 -2.364,0.62 -3.114,1.86 l -0.025,0.129 c 0,0.173 0.37,0.289 1.111,0.35 3.704,0.896 5.75,1.417 6.138,1.563 1.06,0.698 1.59,1.581 1.59,2.649 v 0.039 c 0,1.473 -1.043,2.803 -3.127,3.992 -0.905,0.404 -1.857,0.607 -2.856,0.607 -2.067,0 -3.812,-0.965 -5.233,-2.895 -0.181,-0.258 -0.271,-0.508 -0.271,-0.75 v -0.283 c 0,-0.698 0.474,-1.1 1.422,-1.203 0.456,0 0.995,0.444 1.615,1.332 0.758,0.706 1.646,1.059 2.662,1.059 1.206,0 2.205,-0.563 2.998,-1.691 l 0.049,-0.183 z" />
	</g>
<text
   xml:space="preserve"
   style="font-size:16px;font-style:normal;font-variant:normal;font-weight:normal;font-stretch:normal;line-height:125%;letter-spacing:0px;word-spacing:0px;fill:#29282a;fill-opacity:1;stroke:none;font-family:Comfortaa;-inkscape-font-specification:Comfortaa"
   x="97.705849"
   y="125.27103"
   id="text3070"
   sodipodi:linespacing="125%"><tspan
     sodipodi:role="line"
     id="tspan3072"
     x="97.705849"
     y="125.27103"
     style="font-size:16px;font-style:normal;fill:#29282a;fill-opacity:1;-inkscape-font-specification:Comfortaa">COMMUNITY</tspan></text>


</svg>