<?xml version="1.0" encoding="UTF-8" standalone="no"?>
<!-- Created with Inkscape (http://www.inkscape.org/) -->

<svg
   xmlns:i="http://ns.adobe.com/AdobeIllustrator/10.0/"
   xmlns:osb="http://www.openswatchbook.org/uri/2009/osb"
   xmlns:dc="http://purl.org/dc/elements/1.1/"
   xmlns:cc="http://creativecommons.org/ns#"
   xmlns:rdf="http://www.w3.org/1999/02/22-rdf-syntax-ns#"
   xmlns:svg="http://www.w3.org/2000/svg"
   xmlns="http://www.w3.org/2000/svg"
   xmlns:xlink="http://www.w3.org/1999/xlink"
   xmlns:sodipodi="http://sodipodi.sourceforge.net/DTD/sodipodi-0.dtd"
   xmlns:inkscape="http://www.inkscape.org/namespaces/inkscape"
   width="1920"
   height="1080"
   id="svg2"
   version="1.1"
   inkscape:version="0.48.2 r9819"
   sodipodi:docname="fondo-1280-1024.svg"
   inkscape:export-filename="/home/thot/logicalbricks/cositas/wallpapers/sources/fondo-1360-768.png"
   inkscape:export-xdpi="90"
   inkscape:export-ydpi="90">
  <defs
     id="defs4">
    <linearGradient
       id="linearGradient6527">
      <stop
         style="stop-color:#000000;stop-opacity:0;"
         offset="0"
         id="stop6529" />
      <stop
         style="stop-color:#000000;stop-opacity:1;"
         offset="1"
         id="stop6531" />
    </linearGradient>
    <pattern
       inkscape:collect="always"
       xlink:href="#pattern6383"
       id="pattern6388"
       patternTransform="translate(900.05569,-261.78762)" />
    <linearGradient
       id="linearGradient5561"
       osb:paint="solid">
      <stop
         style="stop-color:#000000;stop-opacity:1;"
         offset="0"
         id="stop5563" />
    </linearGradient>
    <linearGradient
       id="linearGradient5561-4"
       osb:paint="solid">
      <stop
         style="stop-color:#000000;stop-opacity:1;"
         offset="0"
         id="stop5563-0" />
    </linearGradient>
    <radialGradient
       r="296.9122"
       fy="395.68341"
       fx="350.78741"
       cy="395.68341"
       cx="350.78741"
       gradientTransform="matrix(1,0,0,0.75201612,-53.875198,-74.27753)"
       gradientUnits="userSpaceOnUse"
       id="radialGradient5583"
       xlink:href="#linearGradient5561-4"
       inkscape:collect="always" />
    <pattern
       patternUnits="userSpaceOnUse"
       width="209.991"
       height="180.791"
       patternTransform="translate(494.59494,-277.76031)"
       id="pattern6383">
      <path
         i:knockout="Off"
         d="m 139.98,65.675 c -1.863,0 -3.375,1.513 -3.375,3.376 0,1.865 1.512,3.377 3.375,3.377 1.865,0 3.377,-1.512 3.377,-3.377 0,-1.863 -1.512,-3.376 -3.377,-3.376 z m 0,-8.6 c -1.863,0 -3.375,1.512 -3.375,3.376 0,1.865 1.512,3.377 3.375,3.377 1.865,0 3.377,-1.512 3.377,-3.377 0,-1.864 -1.512,-3.376 -3.377,-3.376 z m 0,-34.4 c -1.863,0 -3.375,1.512 -3.375,3.377 0,1.864 1.512,3.376 3.375,3.376 1.865,0 3.377,-1.512 3.377,-3.376 0,-1.865 -1.512,-3.377 -3.377,-3.377 z m 0,8.602 c -1.863,0 -3.375,1.509 -3.375,3.375 0,1.865 1.512,3.376 3.375,3.376 1.865,0 3.377,-1.511 3.377,-3.376 0,-1.867 -1.512,-3.375 -3.377,-3.375 z m 0,17.2 c -1.863,0 -3.375,1.511 -3.375,3.374 0,1.866 1.512,3.377 3.375,3.377 1.865,0 3.377,-1.511 3.377,-3.377 0,-1.864 -1.512,-3.374 -3.377,-3.374 z m 0,-8.601 c -1.863,0 -3.375,1.512 -3.375,3.375 0,1.865 1.512,3.376 3.375,3.376 1.865,0 3.377,-1.511 3.377,-3.376 0,-1.863 -1.512,-3.375 -3.377,-3.375 z m 0,34.4 c -1.863,0 -3.375,1.512 -3.375,3.375 0,1.866 1.512,3.376 3.375,3.376 1.865,0 3.377,-1.51 3.377,-3.376 0,-1.864 -1.512,-3.375 -3.377,-3.375 z m 19.965,-34.4 c -1.863,0 -3.373,1.512 -3.373,3.375 0,1.865 1.51,3.376 3.373,3.376 1.865,0 3.377,-1.511 3.377,-3.376 0,-1.863 -1.512,-3.375 -3.377,-3.375 z m -19.965,77.402 c -1.863,0 -3.375,1.511 -3.375,3.374 0,1.865 1.512,3.377 3.375,3.377 1.865,0 3.377,-1.512 3.377,-3.377 0,-1.864 -1.512,-3.374 -3.377,-3.374 z M 100.051,91.476 c -1.866,0 -3.376,1.511 -3.376,3.375 0,1.866 1.511,3.379 3.376,3.379 1.865,0 3.376,-1.513 3.376,-3.379 0,-1.865 -1.511,-3.375 -3.376,-3.375 z m 39.929,43.001 c -1.863,0 -3.375,1.512 -3.375,3.376 0,1.864 1.512,3.376 3.375,3.376 1.865,0 3.377,-1.512 3.377,-3.376 0,-1.864 -1.512,-3.376 -3.377,-3.376 z m 0,-43.001 c -1.863,0 -3.375,1.511 -3.375,3.375 0,1.866 1.512,3.379 3.375,3.379 1.865,0 3.377,-1.513 3.377,-3.379 0,-1.865 -1.512,-3.375 -3.377,-3.375 z m 0,17.201 c -1.863,0 -3.375,1.512 -3.375,3.376 0,1.864 1.512,3.376 3.375,3.376 1.865,0 3.377,-1.512 3.377,-3.376 0,-1.864 -1.512,-3.376 -3.377,-3.376 z m 0,-8.601 c -1.863,0 -3.375,1.512 -3.375,3.378 0,1.862 1.512,3.374 3.375,3.374 1.865,0 3.377,-1.512 3.377,-3.374 0,-1.866 -1.512,-3.378 -3.377,-3.378 z m -9.983,17.202 c -1.865,0 -3.375,1.511 -3.375,3.374 0,1.865 1.51,3.377 3.375,3.377 1.864,0 3.376,-1.512 3.376,-3.377 0,-1.864 -1.511,-3.374 -3.376,-3.374 z M 139.98,14.075 c -1.863,0 -3.375,1.513 -3.375,3.375 0,1.865 1.512,3.378 3.375,3.378 1.865,0 3.377,-1.513 3.377,-3.378 0,-1.862 -1.512,-3.375 -3.377,-3.375 z m -9.983,120.402 c -1.865,0 -3.375,1.512 -3.375,3.376 0,1.864 1.51,3.376 3.375,3.376 1.864,0 3.376,-1.512 3.376,-3.376 0,-1.864 -1.511,-3.376 -3.376,-3.376 z m 0,-8.602 c -1.865,0 -3.375,1.513 -3.375,3.377 0,1.865 1.51,3.377 3.375,3.377 1.864,0 3.376,-1.512 3.376,-3.377 0,-1.864 -1.511,-3.377 -3.376,-3.377 z m 9.983,17.202 c -1.863,0 -3.375,1.511 -3.375,3.375 0,1.865 1.512,3.376 3.375,3.376 1.865,0 3.377,-1.511 3.377,-3.376 0,-1.864 -1.512,-3.375 -3.377,-3.375 z m -9.983,-60.201 c -1.865,0 -3.375,1.512 -3.375,3.376 0,1.864 1.51,3.376 3.375,3.376 1.864,0 3.376,-1.512 3.376,-3.376 0,-1.864 -1.511,-3.376 -3.376,-3.376 z m 0,8.6 c -1.865,0 -3.375,1.511 -3.375,3.375 0,1.866 1.51,3.379 3.375,3.379 1.864,0 3.376,-1.513 3.376,-3.379 0,-1.865 -1.511,-3.375 -3.376,-3.375 z m 0,8.6 c -1.865,0 -3.375,1.512 -3.375,3.378 0,1.862 1.51,3.374 3.375,3.374 1.864,0 3.376,-1.512 3.376,-3.374 0,-1.866 -1.511,-3.378 -3.376,-3.378 z m 0,8.601 c -1.865,0 -3.375,1.512 -3.375,3.376 0,1.864 1.51,3.376 3.375,3.376 1.864,0 3.376,-1.512 3.376,-3.376 0,-1.864 -1.511,-3.376 -3.376,-3.376 z m 0,51.601 c -1.865,0 -3.375,1.512 -3.375,3.374 0,1.866 1.51,3.377 3.375,3.377 1.864,0 3.376,-1.511 3.376,-3.377 0,-1.863 -1.511,-3.374 -3.376,-3.374 z M 126.635,0 c -0.006,0.085 -0.012,0.166 -0.012,0.252 0,1.863 1.51,3.375 3.375,3.375 1.864,0 3.376,-1.512 3.376,-3.375 0,-0.086 -0.006,-0.167 -0.012,-0.252 h -6.727 z m 13.345,5.475 c -1.863,0 -3.375,1.512 -3.375,3.375 0,1.865 1.512,3.377 3.375,3.377 1.865,0 3.377,-1.512 3.377,-3.377 0,-1.864 -1.512,-3.375 -3.377,-3.375 z m -9.983,146.202 c -1.865,0 -3.375,1.512 -3.375,3.376 0,1.863 1.51,3.375 3.375,3.375 1.864,0 3.376,-1.512 3.376,-3.375 0,-1.864 -1.511,-3.376 -3.376,-3.376 z m 0,-8.6 c -1.865,0 -3.375,1.511 -3.375,3.375 0,1.865 1.51,3.376 3.375,3.376 1.864,0 3.376,-1.511 3.376,-3.376 0,-1.864 -1.511,-3.375 -3.376,-3.375 z m 0,25.799 c -1.865,0 -3.375,1.513 -3.375,3.376 0,1.866 1.51,3.377 3.375,3.377 1.864,0 3.376,-1.511 3.376,-3.377 0,-1.863 -1.511,-3.376 -3.376,-3.376 z m 19.966,0 c -1.865,0 -3.377,1.513 -3.377,3.376 0,1.866 1.512,3.377 3.377,3.377 1.866,0 3.376,-1.511 3.376,-3.377 0,-1.863 -1.51,-3.376 -3.376,-3.376 z m -19.966,-94.6 c -1.865,0 -3.375,1.512 -3.375,3.375 0,1.866 1.51,3.376 3.375,3.376 1.864,0 3.376,-1.51 3.376,-3.376 0,-1.864 -1.511,-3.375 -3.376,-3.375 z m 19.966,60.201 c -1.865,0 -3.377,1.512 -3.377,3.376 0,1.864 1.512,3.376 3.377,3.376 1.866,0 3.376,-1.512 3.376,-3.376 0,-1.864 -1.51,-3.376 -3.376,-3.376 z m 0,17.2 c -1.865,0 -3.377,1.512 -3.377,3.376 0,1.863 1.512,3.375 3.377,3.375 1.866,0 3.376,-1.512 3.376,-3.375 0,-1.864 -1.51,-3.376 -3.376,-3.376 z m 0,-8.6 c -1.865,0 -3.377,1.511 -3.377,3.375 0,1.865 1.512,3.376 3.377,3.376 1.866,0 3.376,-1.511 3.376,-3.376 0,-1.864 -1.51,-3.375 -3.376,-3.375 z m 0,-34.4 c -1.865,0 -3.377,1.512 -3.377,3.376 0,1.864 1.512,3.376 3.377,3.376 1.866,0 3.376,-1.512 3.376,-3.376 0,-1.864 -1.51,-3.376 -3.376,-3.376 z m 0,17.198 c -1.865,0 -3.377,1.513 -3.377,3.377 0,1.865 1.512,3.377 3.377,3.377 1.866,0 3.376,-1.512 3.376,-3.377 0,-1.864 -1.51,-3.377 -3.376,-3.377 z m 0,-25.799 c -1.865,0 -3.377,1.512 -3.377,3.378 0,1.862 1.512,3.374 3.377,3.374 1.866,0 3.376,-1.512 3.376,-3.374 0,-1.866 -1.51,-3.378 -3.376,-3.378 z m 0,17.202 c -1.865,0 -3.377,1.511 -3.377,3.374 0,1.865 1.512,3.377 3.377,3.377 1.866,0 3.376,-1.512 3.376,-3.377 0,-1.864 -1.51,-3.374 -3.376,-3.374 z m 9.982,-94.603 c -1.863,0 -3.373,1.512 -3.373,3.377 0,1.864 1.51,3.376 3.373,3.376 1.865,0 3.377,-1.512 3.377,-3.376 0,-1.865 -1.512,-3.377 -3.377,-3.377 z m -9.982,137.603 c -1.865,0 -3.377,1.512 -3.377,3.374 0,1.866 1.512,3.377 3.377,3.377 1.866,0 3.376,-1.511 3.376,-3.377 0,-1.863 -1.51,-3.374 -3.376,-3.374 z m 9.982,-129.001 c -1.863,0 -3.373,1.509 -3.373,3.375 0,1.865 1.51,3.376 3.373,3.376 1.865,0 3.377,-1.511 3.377,-3.376 0,-1.867 -1.512,-3.375 -3.377,-3.375 z m -19.965,120.4 c -1.863,0 -3.375,1.512 -3.375,3.376 0,1.863 1.512,3.375 3.375,3.375 1.865,0 3.377,-1.512 3.377,-3.375 0,-1.864 -1.512,-3.376 -3.377,-3.376 z M 159.945,5.475 c -1.863,0 -3.373,1.512 -3.373,3.375 0,1.865 1.51,3.377 3.373,3.377 1.865,0 3.377,-1.512 3.377,-3.377 0,-1.864 -1.512,-3.375 -3.377,-3.375 z M 146.6,0 c -0.006,0.085 -0.014,0.166 -0.014,0.252 0,1.863 1.512,3.375 3.377,3.375 1.866,0 3.376,-1.512 3.376,-3.375 0,-0.086 -0.007,-0.167 -0.013,-0.252 H 146.6 z m 13.345,14.075 c -1.863,0 -3.373,1.513 -3.373,3.375 0,1.865 1.51,3.378 3.373,3.378 1.865,0 3.377,-1.513 3.377,-3.378 0,-1.862 -1.512,-3.375 -3.377,-3.375 z m -9.982,0 c -1.865,0 -3.377,1.513 -3.377,3.375 0,1.865 1.512,3.378 3.377,3.378 1.866,0 3.376,-1.513 3.376,-3.378 0,-1.862 -1.51,-3.375 -3.376,-3.375 z m 0,8.6 c -1.865,0 -3.377,1.512 -3.377,3.377 0,1.864 1.512,3.376 3.377,3.376 1.866,0 3.376,-1.512 3.376,-3.376 0,-1.865 -1.51,-3.377 -3.376,-3.377 z m 0,8.602 c -1.865,0 -3.377,1.509 -3.377,3.375 0,1.865 1.512,3.376 3.377,3.376 1.866,0 3.376,-1.511 3.376,-3.376 0,-1.867 -1.51,-3.375 -3.376,-3.375 z m 0,-25.802 c -1.865,0 -3.377,1.512 -3.377,3.375 0,1.865 1.512,3.377 3.377,3.377 1.866,0 3.376,-1.512 3.376,-3.377 0,-1.864 -1.51,-3.375 -3.376,-3.375 z m -9.983,163.401 c -1.863,0 -3.375,1.513 -3.375,3.376 0,1.866 1.512,3.377 3.375,3.377 1.865,0 3.377,-1.511 3.377,-3.377 0,-1.863 -1.512,-3.376 -3.377,-3.376 z m 0,-8.598 c -1.863,0 -3.375,1.512 -3.375,3.374 0,1.866 1.512,3.377 3.375,3.377 1.865,0 3.377,-1.511 3.377,-3.377 0,-1.863 -1.512,-3.374 -3.377,-3.374 z M 136.617,0 c -0.006,0.085 -0.012,0.166 -0.012,0.252 0,1.863 1.512,3.375 3.375,3.375 1.865,0 3.377,-1.512 3.377,-3.375 0,-0.086 -0.006,-0.167 -0.012,-0.252 h -6.728 z m 13.346,39.876 c -1.865,0 -3.377,1.512 -3.377,3.375 0,1.865 1.512,3.376 3.377,3.376 1.866,0 3.376,-1.511 3.376,-3.376 0,-1.863 -1.51,-3.375 -3.376,-3.375 z m 0,25.799 c -1.865,0 -3.377,1.513 -3.377,3.376 0,1.865 1.512,3.377 3.377,3.377 1.866,0 3.376,-1.512 3.376,-3.377 0,-1.863 -1.51,-3.376 -3.376,-3.376 z m 0,25.801 c -1.865,0 -3.377,1.511 -3.377,3.375 0,1.866 1.512,3.379 3.377,3.379 1.866,0 3.376,-1.513 3.376,-3.379 0,-1.865 -1.51,-3.375 -3.376,-3.375 z m 0,-8.6 c -1.865,0 -3.377,1.512 -3.377,3.376 0,1.864 1.512,3.376 3.377,3.376 1.866,0 3.376,-1.512 3.376,-3.376 0,-1.864 -1.51,-3.376 -3.376,-3.376 z m 0,-8.6 c -1.865,0 -3.377,1.512 -3.377,3.375 0,1.866 1.512,3.376 3.377,3.376 1.866,0 3.376,-1.51 3.376,-3.376 0,-1.864 -1.51,-3.375 -3.376,-3.375 z m 0,-25.799 c -1.865,0 -3.377,1.511 -3.377,3.374 0,1.866 1.512,3.377 3.377,3.377 1.866,0 3.376,-1.511 3.376,-3.377 0,-1.864 -1.51,-3.374 -3.376,-3.374 z m 0,8.598 c -1.865,0 -3.377,1.512 -3.377,3.376 0,1.865 1.512,3.377 3.377,3.377 1.866,0 3.376,-1.512 3.376,-3.377 0,-1.864 -1.51,-3.376 -3.376,-3.376 z m -9.983,68.8 c -1.863,0 -3.375,1.513 -3.375,3.377 0,1.865 1.512,3.377 3.375,3.377 1.865,0 3.377,-1.512 3.377,-3.377 0,-1.864 -1.512,-3.377 -3.377,-3.377 z M 110.033,82.876 c -1.863,0 -3.375,1.512 -3.375,3.376 0,1.864 1.511,3.376 3.375,3.376 1.864,0 3.377,-1.512 3.377,-3.376 0,-1.864 -1.514,-3.376 -3.377,-3.376 z m 0,8.6 c -1.863,0 -3.375,1.511 -3.375,3.375 0,1.866 1.511,3.379 3.375,3.379 1.864,0 3.377,-1.513 3.377,-3.379 0,-1.865 -1.514,-3.375 -3.377,-3.375 z m 0,-17.2 c -1.863,0 -3.375,1.512 -3.375,3.375 0,1.866 1.511,3.376 3.375,3.376 1.864,0 3.377,-1.51 3.377,-3.376 0,-1.864 -1.514,-3.375 -3.377,-3.375 z m 0,25.8 c -1.863,0 -3.375,1.512 -3.375,3.378 0,1.862 1.511,3.374 3.375,3.374 1.864,0 3.377,-1.512 3.377,-3.374 0,-1.866 -1.514,-3.378 -3.377,-3.378 z m 0,-60.2 c -1.863,0 -3.375,1.512 -3.375,3.375 0,1.865 1.511,3.376 3.375,3.376 1.864,0 3.377,-1.511 3.377,-3.376 0,-1.863 -1.514,-3.375 -3.377,-3.375 z m 0,25.799 c -1.863,0 -3.375,1.513 -3.375,3.376 0,1.865 1.511,3.377 3.375,3.377 1.864,0 3.377,-1.512 3.377,-3.377 0,-1.863 -1.514,-3.376 -3.377,-3.376 z m 0,-8.6 c -1.863,0 -3.375,1.512 -3.375,3.376 0,1.865 1.511,3.377 3.375,3.377 1.864,0 3.377,-1.512 3.377,-3.377 0,-1.864 -1.514,-3.376 -3.377,-3.376 z m 0,-8.598 c -1.863,0 -3.375,1.511 -3.375,3.374 0,1.866 1.511,3.377 3.375,3.377 1.864,0 3.377,-1.511 3.377,-3.377 0,-1.864 -1.514,-3.374 -3.377,-3.374 z m 0,111.801 c -1.863,0 -3.375,1.512 -3.375,3.374 0,1.866 1.511,3.377 3.375,3.377 1.864,0 3.377,-1.511 3.377,-3.377 0,-1.863 -1.514,-3.374 -3.377,-3.374 z m 0,-51.601 c -1.863,0 -3.375,1.512 -3.375,3.376 0,1.864 1.511,3.376 3.375,3.376 1.864,0 3.377,-1.512 3.377,-3.376 0,-1.864 -1.514,-3.376 -3.377,-3.376 z m 0,60.199 c -1.863,0 -3.375,1.513 -3.375,3.376 0,1.866 1.511,3.377 3.375,3.377 1.864,0 3.377,-1.511 3.377,-3.377 0,-1.863 -1.514,-3.376 -3.377,-3.376 z m 0,-17.199 c -1.863,0 -3.375,1.512 -3.375,3.376 0,1.863 1.511,3.375 3.375,3.375 1.864,0 3.377,-1.512 3.377,-3.375 0,-1.864 -1.514,-3.376 -3.377,-3.376 z m 0,-17.2 c -1.863,0 -3.375,1.512 -3.375,3.376 0,1.864 1.511,3.376 3.375,3.376 1.864,0 3.377,-1.512 3.377,-3.376 0,-1.864 -1.514,-3.376 -3.377,-3.376 z m 0,-17.199 c -1.863,0 -3.375,1.511 -3.375,3.374 0,1.865 1.511,3.377 3.375,3.377 1.864,0 3.377,-1.512 3.377,-3.377 0,-1.864 -1.514,-3.374 -3.377,-3.374 z m 0,8.597 c -1.863,0 -3.375,1.513 -3.375,3.377 0,1.865 1.511,3.377 3.375,3.377 1.864,0 3.377,-1.512 3.377,-3.377 0,-1.864 -1.514,-3.377 -3.377,-3.377 z m 0,17.202 c -1.863,0 -3.375,1.511 -3.375,3.375 0,1.865 1.511,3.376 3.375,3.376 1.864,0 3.377,-1.511 3.377,-3.376 0,-1.864 -1.514,-3.375 -3.377,-3.375 z m -9.982,-8.6 c -1.866,0 -3.376,1.512 -3.376,3.376 0,1.864 1.511,3.376 3.376,3.376 1.865,0 3.376,-1.512 3.376,-3.376 0,-1.864 -1.511,-3.376 -3.376,-3.376 z m 29.946,-68.802 c -1.865,0 -3.375,1.513 -3.375,3.376 0,1.865 1.51,3.377 3.375,3.377 1.864,0 3.376,-1.512 3.376,-3.377 0,-1.863 -1.511,-3.376 -3.376,-3.376 z M 110.033,31.277 c -1.863,0 -3.375,1.509 -3.375,3.375 0,1.865 1.511,3.376 3.375,3.376 1.864,0 3.377,-1.511 3.377,-3.376 0,-1.867 -1.514,-3.375 -3.377,-3.375 z m -9.982,77.4 c -1.866,0 -3.376,1.512 -3.376,3.376 0,1.864 1.511,3.376 3.376,3.376 1.865,0 3.376,-1.512 3.376,-3.376 0,-1.864 -1.511,-3.376 -3.376,-3.376 z m 0,-8.601 c -1.866,0 -3.376,1.512 -3.376,3.378 0,1.862 1.511,3.374 3.376,3.374 1.865,0 3.376,-1.512 3.376,-3.374 0,-1.866 -1.511,-3.378 -3.376,-3.378 z m 0,51.601 c -1.866,0 -3.376,1.512 -3.376,3.376 0,1.863 1.511,3.375 3.376,3.375 1.865,0 3.376,-1.512 3.376,-3.375 0,-1.864 -1.511,-3.376 -3.376,-3.376 z m 0,-34.399 c -1.866,0 -3.376,1.511 -3.376,3.374 0,1.865 1.511,3.377 3.376,3.377 1.865,0 3.376,-1.512 3.376,-3.377 0,-1.864 -1.511,-3.374 -3.376,-3.374 z m 0,25.799 c -1.866,0 -3.376,1.511 -3.376,3.375 0,1.865 1.511,3.376 3.376,3.376 1.865,0 3.376,-1.511 3.376,-3.376 0,-1.864 -1.511,-3.375 -3.376,-3.375 z M 110.033,5.475 c -1.863,0 -3.375,1.512 -3.375,3.375 0,1.865 1.511,3.377 3.375,3.377 1.864,0 3.377,-1.512 3.377,-3.377 0,-1.864 -1.514,-3.375 -3.377,-3.375 z m 0,8.6 c -1.863,0 -3.375,1.513 -3.375,3.375 0,1.865 1.511,3.378 3.375,3.378 1.864,0 3.377,-1.513 3.377,-3.378 0,-1.862 -1.514,-3.375 -3.377,-3.375 z m 0,8.6 c -1.863,0 -3.375,1.512 -3.375,3.377 0,1.864 1.511,3.376 3.375,3.376 1.864,0 3.377,-1.512 3.377,-3.376 0,-1.865 -1.514,-3.377 -3.377,-3.377 z M 96.686,0 c -0.005,0.085 -0.011,0.166 -0.011,0.252 0,1.863 1.511,3.375 3.376,3.375 1.865,0 3.376,-1.512 3.376,-3.375 0,-0.086 -0.006,-0.167 -0.013,-0.252 h -6.728 z m 3.365,160.278 c -1.866,0 -3.376,1.512 -3.376,3.374 0,1.866 1.511,3.377 3.376,3.377 1.865,0 3.376,-1.511 3.376,-3.377 0,-1.863 -1.511,-3.374 -3.376,-3.374 z m 0,8.598 c -1.866,0 -3.376,1.513 -3.376,3.376 0,1.866 1.511,3.377 3.376,3.377 1.865,0 3.376,-1.511 3.376,-3.377 0,-1.863 -1.511,-3.376 -3.376,-3.376 z m 0,-43.001 c -1.866,0 -3.376,1.513 -3.376,3.377 0,1.865 1.511,3.377 3.376,3.377 1.865,0 3.376,-1.512 3.376,-3.377 0,-1.864 -1.511,-3.377 -3.376,-3.377 z m 19.965,34.403 c -1.865,0 -3.376,1.512 -3.376,3.374 0,1.866 1.512,3.377 3.376,3.377 1.865,0 3.376,-1.511 3.376,-3.377 0,-1.863 -1.511,-3.374 -3.376,-3.374 z m 0,8.598 c -1.865,0 -3.376,1.513 -3.376,3.376 0,1.866 1.512,3.377 3.376,3.377 1.865,0 3.376,-1.511 3.376,-3.377 0,-1.863 -1.511,-3.376 -3.376,-3.376 z M 116.652,0 c -0.005,0.085 -0.013,0.166 -0.013,0.252 0,1.863 1.512,3.375 3.376,3.375 1.865,0 3.376,-1.512 3.376,-3.375 0,-0.086 -0.008,-0.167 -0.014,-0.252 h -6.725 z m 13.345,5.475 c -1.865,0 -3.375,1.512 -3.375,3.375 0,1.865 1.51,3.377 3.375,3.377 1.864,0 3.376,-1.512 3.376,-3.377 0,-1.864 -1.511,-3.375 -3.376,-3.375 z m -9.981,146.202 c -1.865,0 -3.376,1.512 -3.376,3.376 0,1.863 1.512,3.375 3.376,3.375 1.865,0 3.376,-1.512 3.376,-3.375 0,-1.864 -1.511,-3.376 -3.376,-3.376 z m 0,-17.2 c -1.865,0 -3.376,1.512 -3.376,3.376 0,1.864 1.512,3.376 3.376,3.376 1.865,0 3.376,-1.512 3.376,-3.376 0,-1.864 -1.511,-3.376 -3.376,-3.376 z m 0,-8.602 c -1.865,0 -3.376,1.513 -3.376,3.377 0,1.865 1.512,3.377 3.376,3.377 1.865,0 3.376,-1.512 3.376,-3.377 0,-1.864 -1.511,-3.377 -3.376,-3.377 z m 0,17.202 c -1.865,0 -3.376,1.511 -3.376,3.375 0,1.865 1.512,3.376 3.376,3.376 1.865,0 3.376,-1.511 3.376,-3.376 0,-1.864 -1.511,-3.375 -3.376,-3.375 z m 9.981,-103.201 c -1.865,0 -3.375,1.512 -3.375,3.375 0,1.865 1.51,3.376 3.375,3.376 1.864,0 3.376,-1.511 3.376,-3.376 0,-1.863 -1.511,-3.375 -3.376,-3.375 z m 0,8.601 c -1.865,0 -3.375,1.511 -3.375,3.374 0,1.866 1.51,3.377 3.375,3.377 1.864,0 3.376,-1.511 3.376,-3.377 0,-1.864 -1.511,-3.374 -3.376,-3.374 z m 0,-34.402 c -1.865,0 -3.375,1.513 -3.375,3.375 0,1.865 1.51,3.378 3.375,3.378 1.864,0 3.376,-1.513 3.376,-3.378 0,-1.862 -1.511,-3.375 -3.376,-3.375 z m 0,43 c -1.865,0 -3.375,1.512 -3.375,3.376 0,1.865 1.51,3.377 3.375,3.377 1.864,0 3.376,-1.512 3.376,-3.377 0,-1.864 -1.511,-3.376 -3.376,-3.376 z m 0,-25.798 c -1.865,0 -3.375,1.509 -3.375,3.375 0,1.865 1.51,3.376 3.375,3.376 1.864,0 3.376,-1.511 3.376,-3.376 0,-1.867 -1.511,-3.375 -3.376,-3.375 z m 0,-8.602 c -1.865,0 -3.375,1.512 -3.375,3.377 0,1.864 1.51,3.376 3.375,3.376 1.864,0 3.376,-1.512 3.376,-3.376 0,-1.865 -1.511,-3.377 -3.376,-3.377 z m -9.981,-17.2 c -1.865,0 -3.376,1.512 -3.376,3.375 0,1.865 1.512,3.377 3.376,3.377 1.865,0 3.376,-1.512 3.376,-3.377 0,-1.864 -1.511,-3.375 -3.376,-3.375 z m 0,25.802 c -1.865,0 -3.376,1.509 -3.376,3.375 0,1.865 1.512,3.376 3.376,3.376 1.865,0 3.376,-1.511 3.376,-3.376 0,-1.867 -1.511,-3.375 -3.376,-3.375 z m 0,8.599 c -1.865,0 -3.376,1.512 -3.376,3.375 0,1.865 1.512,3.376 3.376,3.376 1.865,0 3.376,-1.511 3.376,-3.376 0,-1.863 -1.511,-3.375 -3.376,-3.375 z m 0,8.601 c -1.865,0 -3.376,1.511 -3.376,3.374 0,1.866 1.512,3.377 3.376,3.377 1.865,0 3.376,-1.511 3.376,-3.377 0,-1.864 -1.511,-3.374 -3.376,-3.374 z m 0,8.598 c -1.865,0 -3.376,1.512 -3.376,3.376 0,1.865 1.512,3.377 3.376,3.377 1.865,0 3.376,-1.512 3.376,-3.377 0,-1.864 -1.511,-3.376 -3.376,-3.376 z M 106.671,0 c -0.006,0.085 -0.013,0.166 -0.013,0.252 0,1.863 1.511,3.375 3.375,3.375 1.864,0 3.377,-1.512 3.377,-3.375 0,-0.086 -0.007,-0.167 -0.013,-0.252 h -6.726 z m 13.345,14.075 c -1.865,0 -3.376,1.513 -3.376,3.375 0,1.865 1.512,3.378 3.376,3.378 1.865,0 3.376,-1.513 3.376,-3.378 0,-1.862 -1.511,-3.375 -3.376,-3.375 z m 0,8.6 c -1.865,0 -3.376,1.512 -3.376,3.377 0,1.864 1.512,3.376 3.376,3.376 1.865,0 3.376,-1.512 3.376,-3.376 0,-1.865 -1.511,-3.377 -3.376,-3.377 z m 0,43 c -1.865,0 -3.376,1.513 -3.376,3.376 0,1.865 1.512,3.377 3.376,3.377 1.865,0 3.376,-1.512 3.376,-3.377 0,-1.863 -1.511,-3.376 -3.376,-3.376 z m 0,51.603 c -1.865,0 -3.376,1.511 -3.376,3.374 0,1.865 1.512,3.377 3.376,3.377 1.865,0 3.376,-1.512 3.376,-3.377 0,-1.864 -1.511,-3.374 -3.376,-3.374 z m 0,-8.601 c -1.865,0 -3.376,1.512 -3.376,3.376 0,1.864 1.512,3.376 3.376,3.376 1.865,0 3.376,-1.512 3.376,-3.376 0,-1.864 -1.511,-3.376 -3.376,-3.376 z m 0,-17.201 c -1.865,0 -3.376,1.511 -3.376,3.375 0,1.866 1.512,3.379 3.376,3.379 1.865,0 3.376,-1.513 3.376,-3.379 0,-1.865 -1.511,-3.375 -3.376,-3.375 z m 0,8.6 c -1.865,0 -3.376,1.512 -3.376,3.378 0,1.862 1.512,3.374 3.376,3.374 1.865,0 3.376,-1.512 3.376,-3.374 0,-1.866 -1.511,-3.378 -3.376,-3.378 z m 0,-25.8 c -1.865,0 -3.376,1.512 -3.376,3.375 0,1.866 1.512,3.376 3.376,3.376 1.865,0 3.376,-1.51 3.376,-3.376 0,-1.864 -1.511,-3.375 -3.376,-3.375 z m 0,8.6 c -1.865,0 -3.376,1.512 -3.376,3.376 0,1.864 1.512,3.376 3.376,3.376 1.865,0 3.376,-1.512 3.376,-3.376 0,-1.864 -1.511,-3.376 -3.376,-3.376 z m 19.964,0 c -1.863,0 -3.375,1.512 -3.375,3.376 0,1.864 1.512,3.376 3.375,3.376 1.865,0 3.377,-1.512 3.377,-3.376 0,-1.864 -1.512,-3.376 -3.377,-3.376 z m 49.913,86 c -1.866,0 -3.375,1.513 -3.375,3.376 0,1.866 1.509,3.377 3.375,3.377 1.866,0 3.377,-1.511 3.377,-3.377 0,-1.863 -1.511,-3.376 -3.377,-3.376 z m 9.982,-154.801 c -1.864,0 -3.376,1.513 -3.376,3.375 0,1.865 1.512,3.378 3.376,3.378 1.864,0 3.376,-1.513 3.376,-3.378 0,-1.862 -1.511,-3.375 -3.376,-3.375 z m 0,25.801 c -1.864,0 -3.376,1.512 -3.376,3.375 0,1.865 1.512,3.376 3.376,3.376 1.864,0 3.376,-1.511 3.376,-3.376 0,-1.863 -1.511,-3.375 -3.376,-3.375 z m 0,-8.599 c -1.864,0 -3.376,1.509 -3.376,3.375 0,1.865 1.512,3.376 3.376,3.376 1.864,0 3.376,-1.511 3.376,-3.376 0,-1.867 -1.511,-3.375 -3.376,-3.375 z m -9.982,129.001 c -1.866,0 -3.375,1.512 -3.375,3.374 0,1.866 1.509,3.377 3.375,3.377 1.866,0 3.377,-1.511 3.377,-3.377 0,-1.863 -1.511,-3.374 -3.377,-3.374 z M 186.53,0 c -0.006,0.085 -0.012,0.166 -0.012,0.252 0,1.863 1.509,3.375 3.375,3.375 1.866,0 3.377,-1.512 3.377,-3.375 0,-0.086 -0.006,-0.167 -0.012,-0.252 h -6.728 z m 13.345,5.475 c -1.864,0 -3.376,1.512 -3.376,3.375 0,1.865 1.512,3.377 3.376,3.377 1.864,0 3.376,-1.512 3.376,-3.377 0,-1.864 -1.511,-3.375 -3.376,-3.375 z m 0,17.2 c -1.864,0 -3.376,1.512 -3.376,3.377 0,1.864 1.512,3.376 3.376,3.376 1.864,0 3.376,-1.512 3.376,-3.376 0,-1.865 -1.511,-3.377 -3.376,-3.377 z m 0,68.801 c -1.864,0 -3.376,1.511 -3.376,3.375 0,1.866 1.512,3.379 3.376,3.379 1.864,0 3.376,-1.513 3.376,-3.379 0,-1.865 -1.511,-3.375 -3.376,-3.375 z m 0,-8.6 c -1.864,0 -3.376,1.512 -3.376,3.376 0,1.864 1.512,3.376 3.376,3.376 1.864,0 3.376,-1.512 3.376,-3.376 0,-1.864 -1.511,-3.376 -3.376,-3.376 z m 0,17.2 c -1.864,0 -3.376,1.512 -3.376,3.378 0,1.862 1.512,3.374 3.376,3.374 1.864,0 3.376,-1.512 3.376,-3.374 0,-1.866 -1.511,-3.378 -3.376,-3.378 z m 0,-34.401 c -1.864,0 -3.376,1.513 -3.376,3.376 0,1.865 1.512,3.377 3.376,3.377 1.864,0 3.376,-1.512 3.376,-3.377 0,-1.863 -1.511,-3.376 -3.376,-3.376 z m 0,8.601 c -1.864,0 -3.376,1.512 -3.376,3.375 0,1.866 1.512,3.376 3.376,3.376 1.864,0 3.376,-1.51 3.376,-3.376 0,-1.864 -1.511,-3.375 -3.376,-3.375 z m 0,-17.201 c -1.864,0 -3.376,1.512 -3.376,3.376 0,1.865 1.512,3.377 3.376,3.377 1.864,0 3.376,-1.512 3.376,-3.377 0,-1.864 -1.511,-3.376 -3.376,-3.376 z m 0,-8.598 c -1.864,0 -3.376,1.511 -3.376,3.374 0,1.866 1.512,3.377 3.376,3.377 1.864,0 3.376,-1.511 3.376,-3.377 0,-1.864 -1.511,-3.374 -3.376,-3.374 z m -9.982,60.2 c -1.866,0 -3.375,1.512 -3.375,3.376 0,1.864 1.509,3.376 3.375,3.376 1.866,0 3.377,-1.512 3.377,-3.376 0,-1.864 -1.511,-3.376 -3.377,-3.376 z m 0,-43.002 c -1.866,0 -3.375,1.513 -3.375,3.376 0,1.865 1.509,3.377 3.375,3.377 1.866,0 3.377,-1.512 3.377,-3.377 0,-1.863 -1.511,-3.376 -3.377,-3.376 z m 0,8.601 c -1.866,0 -3.375,1.512 -3.375,3.375 0,1.866 1.509,3.376 3.375,3.376 1.866,0 3.377,-1.51 3.377,-3.376 0,-1.864 -1.511,-3.375 -3.377,-3.375 z m 0,8.6 c -1.866,0 -3.375,1.512 -3.375,3.376 0,1.864 1.509,3.376 3.375,3.376 1.866,0 3.377,-1.512 3.377,-3.376 0,-1.864 -1.511,-3.376 -3.377,-3.376 z m 0,-34.399 c -1.866,0 -3.375,1.511 -3.375,3.374 0,1.866 1.509,3.377 3.375,3.377 1.866,0 3.377,-1.511 3.377,-3.377 0,-1.864 -1.511,-3.374 -3.377,-3.374 z m 0,-8.601 c -1.866,0 -3.375,1.512 -3.375,3.375 0,1.865 1.509,3.376 3.375,3.376 1.866,0 3.377,-1.511 3.377,-3.376 0,-1.863 -1.511,-3.375 -3.377,-3.375 z m 0,17.199 c -1.866,0 -3.375,1.512 -3.375,3.376 0,1.865 1.509,3.377 3.375,3.377 1.866,0 3.377,-1.512 3.377,-3.377 0,-1.864 -1.511,-3.376 -3.377,-3.376 z m 0,34.401 c -1.866,0 -3.375,1.511 -3.375,3.375 0,1.866 1.509,3.379 3.375,3.379 1.866,0 3.377,-1.513 3.377,-3.379 0,-1.865 -1.511,-3.375 -3.377,-3.375 z m 0,8.6 c -1.866,0 -3.375,1.512 -3.375,3.378 0,1.862 1.509,3.374 3.375,3.374 1.866,0 3.377,-1.512 3.377,-3.374 0,-1.866 -1.511,-3.378 -3.377,-3.378 z m 0,34.401 c -1.866,0 -3.375,1.512 -3.375,3.376 0,1.864 1.509,3.376 3.375,3.376 1.866,0 3.377,-1.512 3.377,-3.376 0,-1.864 -1.511,-3.376 -3.377,-3.376 z m 0,17.2 c -1.866,0 -3.375,1.512 -3.375,3.376 0,1.863 1.509,3.375 3.375,3.375 1.866,0 3.377,-1.512 3.377,-3.375 0,-1.864 -1.511,-3.376 -3.377,-3.376 z m 0,-8.6 c -1.866,0 -3.375,1.511 -3.375,3.375 0,1.865 1.509,3.376 3.375,3.376 1.866,0 3.377,-1.511 3.377,-3.376 0,-1.864 -1.511,-3.375 -3.377,-3.375 z m 0,-17.202 c -1.866,0 -3.375,1.513 -3.375,3.377 0,1.865 1.509,3.377 3.375,3.377 1.866,0 3.377,-1.512 3.377,-3.377 0,-1.864 -1.511,-3.377 -3.377,-3.377 z m 0,-8.597 c -1.866,0 -3.375,1.511 -3.375,3.374 0,1.865 1.509,3.377 3.375,3.377 1.866,0 3.377,-1.512 3.377,-3.377 0,-1.864 -1.511,-3.374 -3.377,-3.374 z m 9.982,-8.601 c -1.864,0 -3.376,1.512 -3.376,3.376 0,1.864 1.512,3.376 3.376,3.376 1.864,0 3.376,-1.512 3.376,-3.376 0,-1.864 -1.511,-3.376 -3.376,-3.376 z m 6.608,-48.226 c 0,1.865 1.512,3.377 3.374,3.377 0.046,0 0.09,-0.006 0.134,-0.008 v -6.737 c -0.044,-0.002 -0.088,-0.008 -0.134,-0.008 -1.862,0 -3.374,1.512 -3.374,3.376 z m 0,43.003 c 0,1.862 1.512,3.374 3.374,3.374 0.046,0 0.09,-0.007 0.134,-0.008 v -6.737 c -0.044,-0.003 -0.088,-0.007 -0.134,-0.007 -1.862,0 -3.374,1.512 -3.374,3.378 z m 0,25.798 c 0,1.865 1.512,3.377 3.374,3.377 0.046,0 0.09,-0.006 0.134,-0.009 v -6.737 c -0.044,-0.002 -0.088,-0.008 -0.134,-0.008 -1.862,0 -3.374,1.513 -3.374,3.377 z m 0,-8.6 c 0,1.865 1.512,3.377 3.374,3.377 0.046,0 0.09,-0.007 0.134,-0.009 v -6.737 c -0.044,-0.001 -0.088,-0.005 -0.134,-0.005 -1.862,0 -3.374,1.51 -3.374,3.374 z m 0,-8.599 c 0,1.864 1.512,3.376 3.374,3.376 0.046,0 0.09,-0.007 0.134,-0.007 v -6.74 c -0.044,-0.001 -0.088,-0.005 -0.134,-0.005 -1.862,0 -3.374,1.512 -3.374,3.376 z m 0,-34.402 c 0,1.866 1.512,3.376 3.374,3.376 0.046,0 0.09,-0.004 0.134,-0.004 v -6.74 c -0.044,-0.002 -0.088,-0.007 -0.134,-0.007 -1.862,0 -3.374,1.511 -3.374,3.375 z m 0,8.601 c 0,1.864 1.512,3.376 3.374,3.376 0.046,0 0.09,-0.006 0.134,-0.008 v -6.737 c -0.044,-10e-4 -0.088,-0.007 -0.134,-0.007 -1.862,0 -3.374,1.512 -3.374,3.376 z m 0,8.599 c 0,1.866 1.512,3.379 3.374,3.379 0.046,0 0.09,-0.008 0.134,-0.009 v -6.738 c -0.044,-0.001 -0.088,-0.007 -0.134,-0.007 -1.862,0 -3.374,1.51 -3.374,3.375 z M 206.495,0 c -0.007,0.085 -0.012,0.166 -0.012,0.252 0,1.863 1.512,3.375 3.374,3.375 0.046,0 0.09,-0.005 0.134,-0.006 V 0 h -3.496 z m -0.012,172.252 c 0,1.866 1.512,3.377 3.374,3.377 0.046,0 0.09,-0.006 0.134,-0.009 v -6.736 c -0.044,-0.002 -0.088,-0.008 -0.134,-0.008 -1.862,0 -3.374,1.513 -3.374,3.376 z m 0,-34.399 c 0,1.864 1.512,3.376 3.374,3.376 0.046,0 0.09,-0.007 0.134,-0.007 v -6.738 c -0.044,-0.001 -0.088,-0.007 -0.134,-0.007 -1.862,0 -3.374,1.511 -3.374,3.376 z m 0,-68.802 c 0,1.865 1.512,3.377 3.374,3.377 0.046,0 0.09,-0.006 0.134,-0.007 v -6.738 c -0.044,-0.002 -0.088,-0.008 -0.134,-0.008 -1.862,0 -3.374,1.513 -3.374,3.376 z m 0,94.601 c 0,1.866 1.512,3.377 3.374,3.377 0.046,0 0.09,-0.004 0.134,-0.007 v -6.738 c -0.044,-0.001 -0.088,-0.006 -0.134,-0.006 -1.862,0 -3.374,1.511 -3.374,3.374 z m 0,-8.599 c 0,1.863 1.512,3.375 3.374,3.375 0.046,0 0.09,-0.004 0.134,-0.007 v -6.737 c -0.044,-0.002 -0.088,-0.007 -0.134,-0.007 -1.862,0 -3.374,1.512 -3.374,3.376 z m 0,-8.601 c 0,1.865 1.512,3.376 3.374,3.376 0.046,0 0.09,-0.004 0.134,-0.005 v -6.74 c -0.044,-0.002 -0.088,-0.006 -0.134,-0.006 -1.862,0 -3.374,1.511 -3.374,3.375 z m 0,-137.602 c 0,1.865 1.512,3.377 3.374,3.377 0.046,0 0.09,-0.004 0.134,-0.008 V 5.482 c -0.044,-0.002 -0.088,-0.007 -0.134,-0.007 -1.862,0 -3.374,1.511 -3.374,3.375 z m -16.59,22.427 c -1.866,0 -3.375,1.509 -3.375,3.375 0,1.865 1.509,3.376 3.375,3.376 1.866,0 3.377,-1.511 3.377,-3.376 0,-1.867 -1.511,-3.375 -3.377,-3.375 z m 9.982,129.001 c -1.864,0 -3.376,1.512 -3.376,3.374 0,1.866 1.512,3.377 3.376,3.377 1.864,0 3.376,-1.511 3.376,-3.377 0,-1.863 -1.511,-3.374 -3.376,-3.374 z m 0,-8.601 c -1.864,0 -3.376,1.512 -3.376,3.376 0,1.863 1.512,3.375 3.376,3.375 1.864,0 3.376,-1.512 3.376,-3.375 0,-1.864 -1.511,-3.376 -3.376,-3.376 z m 0,17.199 c -1.864,0 -3.376,1.513 -3.376,3.376 0,1.866 1.512,3.377 3.376,3.377 1.864,0 3.376,-1.511 3.376,-3.377 0,-1.863 -1.511,-3.376 -3.376,-3.376 z m 0,-43.001 c -1.864,0 -3.376,1.513 -3.376,3.377 0,1.865 1.512,3.377 3.376,3.377 1.864,0 3.376,-1.512 3.376,-3.377 0,-1.864 -1.511,-3.377 -3.376,-3.377 z m 0,17.202 c -1.864,0 -3.376,1.511 -3.376,3.375 0,1.865 1.512,3.376 3.376,3.376 1.864,0 3.376,-1.511 3.376,-3.376 0,-1.864 -1.511,-3.375 -3.376,-3.375 z m 0,-8.6 c -1.864,0 -3.376,1.512 -3.376,3.376 0,1.864 1.512,3.376 3.376,3.376 1.864,0 3.376,-1.512 3.376,-3.376 0,-1.864 -1.511,-3.376 -3.376,-3.376 z M 196.512,0 c -0.004,0.085 -0.012,0.166 -0.012,0.252 0,1.863 1.512,3.375 3.376,3.375 1.864,0 3.376,-1.512 3.376,-3.375 0,-0.086 -0.005,-0.167 -0.012,-0.252 h -6.728 z m 9.971,43.251 c 0,1.865 1.512,3.376 3.374,3.376 0.046,0 0.09,-0.004 0.134,-0.007 v -6.739 c -0.044,-10e-4 -0.088,-0.005 -0.134,-0.005 -1.862,0 -3.374,1.512 -3.374,3.375 z m 0,8.6 c 0,1.866 1.512,3.377 3.374,3.377 0.046,0 0.09,-0.007 0.134,-0.007 v -6.74 c -0.044,0 -0.088,-0.004 -0.134,-0.004 -1.862,0 -3.374,1.51 -3.374,3.374 z m -6.608,65.427 c -1.864,0 -3.376,1.511 -3.376,3.374 0,1.865 1.512,3.377 3.376,3.377 1.864,0 3.376,-1.512 3.376,-3.377 0,-1.864 -1.511,-3.374 -3.376,-3.374 z m 6.608,-82.626 c 0,1.865 1.512,3.376 3.374,3.376 0.046,0 0.09,-0.006 0.134,-0.006 v -6.74 c -0.044,-0.002 -0.088,-0.005 -0.134,-0.005 -1.862,0 -3.374,1.508 -3.374,3.375 z m 0,-8.6 c 0,1.864 1.512,3.376 3.374,3.376 0.046,0 0.09,-0.005 0.134,-0.008 v -6.738 c -0.044,-10e-4 -0.088,-0.007 -0.134,-0.007 -1.862,0 -3.374,1.512 -3.374,3.377 z m 0,-8.602 c 0,1.865 1.512,3.378 3.374,3.378 0.046,0 0.09,-0.008 0.134,-0.008 v -6.739 c -0.044,-10e-4 -0.088,-0.006 -0.134,-0.006 -1.862,0 -3.374,1.513 -3.374,3.375 z m -36.554,-3.375 c -1.865,0 -3.377,1.513 -3.377,3.375 0,1.865 1.512,3.378 3.377,3.378 1.863,0 3.375,-1.513 3.375,-3.378 0,-1.862 -1.512,-3.375 -3.375,-3.375 z m 0,17.202 c -1.865,0 -3.377,1.509 -3.377,3.375 0,1.865 1.512,3.376 3.377,3.376 1.863,0 3.375,-1.511 3.375,-3.376 0,-1.867 -1.512,-3.375 -3.375,-3.375 z M 156.583,0 c -0.005,0.085 -0.011,0.166 -0.011,0.252 0,1.863 1.51,3.375 3.373,3.375 1.865,0 3.377,-1.512 3.377,-3.375 0,-0.086 -0.006,-0.167 -0.013,-0.252 h -6.726 z m 13.346,48.477 c -1.865,0 -3.377,1.511 -3.377,3.374 0,1.866 1.512,3.377 3.377,3.377 1.863,0 3.375,-1.511 3.375,-3.377 0,-1.864 -1.512,-3.374 -3.375,-3.374 z m 0,-25.802 c -1.865,0 -3.377,1.512 -3.377,3.377 0,1.864 1.512,3.376 3.377,3.376 1.863,0 3.375,-1.512 3.375,-3.376 0,-1.865 -1.512,-3.377 -3.375,-3.377 z m 0,34.4 c -1.865,0 -3.377,1.512 -3.377,3.376 0,1.865 1.512,3.377 3.377,3.377 1.863,0 3.375,-1.512 3.375,-3.377 0,-1.864 -1.512,-3.376 -3.375,-3.376 z m 0,-51.6 c -1.865,0 -3.377,1.512 -3.377,3.375 0,1.865 1.512,3.377 3.377,3.377 1.863,0 3.375,-1.512 3.375,-3.377 0,-1.864 -1.512,-3.375 -3.375,-3.375 z m -9.984,43.002 c -1.863,0 -3.373,1.511 -3.373,3.374 0,1.866 1.51,3.377 3.373,3.377 1.865,0 3.377,-1.511 3.377,-3.377 0,-1.864 -1.512,-3.374 -3.377,-3.374 z m 9.984,-8.601 c -1.865,0 -3.377,1.512 -3.377,3.375 0,1.865 1.512,3.376 3.377,3.376 1.863,0 3.375,-1.511 3.375,-3.376 0,-1.863 -1.512,-3.375 -3.375,-3.375 z m 0,68.801 c -1.865,0 -3.377,1.512 -3.377,3.376 0,1.864 1.512,3.376 3.377,3.376 1.863,0 3.375,-1.512 3.375,-3.376 0,-1.864 -1.512,-3.376 -3.375,-3.376 z m 0,-43.002 c -1.865,0 -3.377,1.513 -3.377,3.376 0,1.865 1.512,3.377 3.377,3.377 1.863,0 3.375,-1.512 3.375,-3.377 0,-1.863 -1.512,-3.376 -3.375,-3.376 z m 0,51.603 c -1.865,0 -3.377,1.511 -3.377,3.374 0,1.865 1.512,3.377 3.377,3.377 1.863,0 3.375,-1.512 3.375,-3.377 0,-1.864 -1.512,-3.374 -3.375,-3.374 z m 0,-17.202 c -1.865,0 -3.377,1.512 -3.377,3.378 0,1.862 1.512,3.374 3.377,3.374 1.863,0 3.375,-1.512 3.375,-3.374 0,-1.866 -1.512,-3.378 -3.375,-3.378 z m 0,-25.8 c -1.865,0 -3.377,1.512 -3.377,3.375 0,1.866 1.512,3.376 3.377,3.376 1.863,0 3.375,-1.51 3.375,-3.376 0,-1.864 -1.512,-3.375 -3.375,-3.375 z m 0,17.2 c -1.865,0 -3.377,1.511 -3.377,3.375 0,1.866 1.512,3.379 3.377,3.379 1.863,0 3.375,-1.513 3.375,-3.379 0,-1.865 -1.512,-3.375 -3.375,-3.375 z m 0,34.399 c -1.865,0 -3.377,1.513 -3.377,3.377 0,1.865 1.512,3.377 3.377,3.377 1.863,0 3.375,-1.512 3.375,-3.377 0,-1.864 -1.512,-3.377 -3.375,-3.377 z m 0,-42.999 c -1.865,0 -3.377,1.512 -3.377,3.376 0,1.864 1.512,3.376 3.377,3.376 1.863,0 3.375,-1.512 3.375,-3.376 0,-1.864 -1.512,-3.376 -3.375,-3.376 z m -9.984,8.6 c -1.863,0 -3.373,1.511 -3.373,3.375 0,1.866 1.51,3.379 3.373,3.379 1.865,0 3.377,-1.513 3.377,-3.379 0,-1.865 -1.512,-3.375 -3.377,-3.375 z m 0,8.6 c -1.863,0 -3.373,1.512 -3.373,3.378 0,1.862 1.51,3.374 3.373,3.374 1.865,0 3.377,-1.512 3.377,-3.374 0,-1.866 -1.512,-3.378 -3.377,-3.378 z m 0,-17.2 c -1.863,0 -3.373,1.512 -3.373,3.376 0,1.864 1.51,3.376 3.373,3.376 1.865,0 3.377,-1.512 3.377,-3.376 0,-1.864 -1.512,-3.376 -3.377,-3.376 z m 0,77.402 c -1.863,0 -3.373,1.512 -3.373,3.374 0,1.866 1.51,3.377 3.373,3.377 1.865,0 3.377,-1.511 3.377,-3.377 0,-1.863 -1.512,-3.374 -3.377,-3.374 z m 0,-51.601 c -1.863,0 -3.373,1.512 -3.373,3.376 0,1.864 1.51,3.376 3.373,3.376 1.865,0 3.377,-1.512 3.377,-3.376 0,-1.864 -1.512,-3.376 -3.377,-3.376 z m 0,-51.602 c -1.863,0 -3.373,1.512 -3.373,3.376 0,1.865 1.51,3.377 3.373,3.377 1.865,0 3.377,-1.512 3.377,-3.377 0,-1.864 -1.512,-3.376 -3.377,-3.376 z m 0,8.6 c -1.863,0 -3.373,1.513 -3.373,3.376 0,1.865 1.51,3.377 3.373,3.377 1.865,0 3.377,-1.512 3.377,-3.377 0,-1.863 -1.512,-3.376 -3.377,-3.376 z m 0,8.601 c -1.863,0 -3.373,1.512 -3.373,3.375 0,1.866 1.51,3.376 3.373,3.376 1.865,0 3.377,-1.51 3.377,-3.376 0,-1.864 -1.512,-3.375 -3.377,-3.375 z m 29.948,-51.601 c -1.866,0 -3.375,1.512 -3.375,3.377 0,1.864 1.509,3.376 3.375,3.376 1.866,0 3.377,-1.512 3.377,-3.376 0,-1.865 -1.511,-3.377 -3.377,-3.377 z m -29.948,120.402 c -1.863,0 -3.373,1.511 -3.373,3.375 0,1.865 1.51,3.376 3.373,3.376 1.865,0 3.377,-1.511 3.377,-3.376 0,-1.864 -1.512,-3.375 -3.377,-3.375 z m 0,-25.799 c -1.863,0 -3.373,1.511 -3.373,3.374 0,1.865 1.51,3.377 3.373,3.377 1.865,0 3.377,-1.512 3.377,-3.377 0,-1.864 -1.512,-3.374 -3.377,-3.374 z m 0,51.598 c -1.863,0 -3.373,1.513 -3.373,3.376 0,1.866 1.51,3.377 3.373,3.377 1.865,0 3.377,-1.511 3.377,-3.377 0,-1.863 -1.512,-3.376 -3.377,-3.376 z m 0,-43.001 c -1.863,0 -3.373,1.513 -3.373,3.377 0,1.865 1.51,3.377 3.373,3.377 1.865,0 3.377,-1.512 3.377,-3.377 0,-1.864 -1.512,-3.377 -3.377,-3.377 z m 0,8.602 c -1.863,0 -3.373,1.512 -3.373,3.376 0,1.864 1.51,3.376 3.373,3.376 1.865,0 3.377,-1.512 3.377,-3.376 0,-1.864 -1.512,-3.376 -3.377,-3.376 z m 0,17.2 c -1.863,0 -3.373,1.512 -3.373,3.376 0,1.863 1.51,3.375 3.373,3.375 1.865,0 3.377,-1.512 3.377,-3.375 0,-1.864 -1.512,-3.376 -3.377,-3.376 z m 9.984,-17.2 c -1.865,0 -3.377,1.512 -3.377,3.376 0,1.864 1.512,3.376 3.377,3.376 1.863,0 3.375,-1.512 3.375,-3.376 0,-1.864 -1.512,-3.376 -3.375,-3.376 z m 9.981,-8.602 c -1.864,0 -3.375,1.513 -3.375,3.377 0,1.865 1.511,3.377 3.375,3.377 1.864,0 3.376,-1.512 3.376,-3.377 0.001,-1.864 -1.511,-3.377 -3.376,-3.377 z m 0,8.602 c -1.864,0 -3.375,1.512 -3.375,3.376 0,1.864 1.511,3.376 3.375,3.376 1.864,0 3.376,-1.512 3.376,-3.376 0,-1.864 -1.511,-3.376 -3.376,-3.376 z m 0,8.6 c -1.864,0 -3.375,1.511 -3.375,3.375 0,1.865 1.511,3.376 3.375,3.376 1.864,0 3.376,-1.511 3.376,-3.376 0.001,-1.864 -1.511,-3.375 -3.376,-3.375 z m 0,-34.4 c -1.864,0 -3.375,1.512 -3.375,3.376 0,1.864 1.511,3.376 3.375,3.376 1.864,0 3.376,-1.512 3.376,-3.376 0,-1.864 -1.511,-3.376 -3.376,-3.376 z m 0,-17.201 c -1.864,0 -3.375,1.511 -3.375,3.375 0,1.866 1.511,3.379 3.375,3.379 1.864,0 3.376,-1.513 3.376,-3.379 0.001,-1.865 -1.511,-3.375 -3.376,-3.375 z m 0,8.6 c -1.864,0 -3.375,1.512 -3.375,3.378 0,1.862 1.511,3.374 3.375,3.374 1.864,0 3.376,-1.512 3.376,-3.374 0.001,-1.866 -1.511,-3.378 -3.376,-3.378 z m 0,60.202 c -1.864,0 -3.375,1.512 -3.375,3.374 0,1.866 1.511,3.377 3.375,3.377 1.864,0 3.376,-1.511 3.376,-3.377 0.001,-1.863 -1.511,-3.374 -3.376,-3.374 z M 189.893,5.475 c -1.866,0 -3.375,1.512 -3.375,3.375 0,1.865 1.509,3.377 3.375,3.377 1.866,0 3.377,-1.512 3.377,-3.377 0,-1.864 -1.511,-3.375 -3.377,-3.375 z M 176.548,0 c -0.007,0.085 -0.013,0.166 -0.013,0.252 0,1.863 1.511,3.375 3.375,3.375 1.864,0 3.376,-1.512 3.376,-3.375 0,-0.086 -0.006,-0.167 -0.015,-0.252 h -6.723 z m 13.345,14.075 c -1.866,0 -3.375,1.513 -3.375,3.375 0,1.865 1.509,3.378 3.375,3.378 1.866,0 3.377,-1.513 3.377,-3.378 0,-1.862 -1.511,-3.375 -3.377,-3.375 z m -9.983,137.602 c -1.864,0 -3.375,1.512 -3.375,3.376 0,1.863 1.511,3.375 3.375,3.375 1.864,0 3.376,-1.512 3.376,-3.375 0.001,-1.864 -1.511,-3.376 -3.376,-3.376 z m 0,17.199 c -1.864,0 -3.375,1.513 -3.375,3.376 0,1.866 1.511,3.377 3.375,3.377 1.864,0 3.376,-1.511 3.376,-3.377 0.001,-1.863 -1.511,-3.376 -3.376,-3.376 z m 0,-86 c -1.864,0 -3.375,1.512 -3.375,3.376 0,1.864 1.511,3.376 3.375,3.376 1.864,0 3.376,-1.512 3.376,-3.376 0,-1.864 -1.511,-3.376 -3.376,-3.376 z m 0,34.402 c -1.864,0 -3.375,1.511 -3.375,3.374 0,1.865 1.511,3.377 3.375,3.377 1.864,0 3.376,-1.512 3.376,-3.377 0.001,-1.864 -1.511,-3.374 -3.376,-3.374 z m -9.981,43 c -1.865,0 -3.377,1.512 -3.377,3.374 0,1.866 1.512,3.377 3.377,3.377 1.863,0 3.375,-1.511 3.375,-3.377 0,-1.863 -1.512,-3.374 -3.375,-3.374 z M 166.564,0 c -0.005,0.085 -0.013,0.166 -0.013,0.252 0,1.863 1.512,3.375 3.377,3.375 1.863,0 3.375,-1.512 3.375,-3.375 0,-0.086 -0.006,-0.167 -0.012,-0.252 h -6.727 z m 13.346,5.475 c -1.864,0 -3.375,1.512 -3.375,3.375 0,1.865 1.511,3.377 3.375,3.377 1.864,0 3.376,-1.512 3.376,-3.377 0.001,-1.864 -1.511,-3.375 -3.376,-3.375 z m 0,8.6 c -1.864,0 -3.375,1.513 -3.375,3.375 0,1.865 1.511,3.378 3.375,3.378 1.864,0 3.376,-1.513 3.376,-3.378 0.001,-1.862 -1.511,-3.375 -3.376,-3.375 z m 0,60.201 c -1.864,0 -3.375,1.512 -3.375,3.375 0,1.866 1.511,3.376 3.375,3.376 1.864,0 3.376,-1.51 3.376,-3.376 0.001,-1.864 -1.511,-3.375 -3.376,-3.375 z m -9.981,68.801 c -1.865,0 -3.377,1.511 -3.377,3.375 0,1.865 1.512,3.376 3.377,3.376 1.863,0 3.375,-1.511 3.375,-3.376 0,-1.864 -1.512,-3.375 -3.375,-3.375 z m 0,8.6 c -1.865,0 -3.377,1.512 -3.377,3.376 0,1.863 1.512,3.375 3.377,3.375 1.863,0 3.375,-1.512 3.375,-3.375 0,-1.864 -1.512,-3.376 -3.375,-3.376 z m 0,17.199 c -1.865,0 -3.377,1.513 -3.377,3.376 0,1.866 1.512,3.377 3.377,3.377 1.863,0 3.375,-1.511 3.375,-3.377 0,-1.863 -1.512,-3.376 -3.375,-3.376 z M 179.91,48.477 c -1.864,0 -3.375,1.511 -3.375,3.374 0,1.866 1.511,3.377 3.375,3.377 1.864,0 3.376,-1.511 3.376,-3.377 0.001,-1.864 -1.511,-3.374 -3.376,-3.374 z m 0,8.598 c -1.864,0 -3.375,1.512 -3.375,3.376 0,1.865 1.511,3.377 3.375,3.377 1.864,0 3.376,-1.512 3.376,-3.377 0.001,-1.864 -1.511,-3.376 -3.376,-3.376 z m 0,8.6 c -1.864,0 -3.375,1.513 -3.375,3.376 0,1.865 1.511,3.377 3.375,3.377 1.864,0 3.376,-1.512 3.376,-3.377 0.001,-1.863 -1.511,-3.376 -3.376,-3.376 z m 0,-34.398 c -1.864,0 -3.375,1.509 -3.375,3.375 0,1.865 1.511,3.376 3.375,3.376 1.864,0 3.376,-1.511 3.376,-3.376 0.001,-1.867 -1.511,-3.375 -3.376,-3.375 z m 0,-8.602 c -1.864,0 -3.375,1.512 -3.375,3.377 0,1.864 1.511,3.376 3.375,3.376 1.864,0 3.376,-1.512 3.376,-3.376 0.001,-1.865 -1.511,-3.377 -3.376,-3.377 z m 0,17.201 c -1.864,0 -3.375,1.512 -3.375,3.375 0,1.865 1.511,3.376 3.375,3.376 1.864,0 3.376,-1.511 3.376,-3.376 0.001,-1.863 -1.511,-3.375 -3.376,-3.375 z M 50.138,134.477 c -1.865,0 -3.377,1.512 -3.377,3.376 0,1.864 1.512,3.376 3.377,3.376 1.865,0 3.376,-1.512 3.376,-3.376 0,-1.864 -1.511,-3.376 -3.376,-3.376 z m -29.947,17.2 c -1.865,0 -3.376,1.512 -3.376,3.376 0,1.863 1.511,3.375 3.376,3.375 1.865,0 3.375,-1.512 3.375,-3.375 0,-1.864 -1.51,-3.376 -3.375,-3.376 z m 0,-8.6 c -1.865,0 -3.376,1.511 -3.376,3.375 0,1.865 1.511,3.376 3.376,3.376 1.865,0 3.375,-1.511 3.375,-3.376 0,-1.864 -1.51,-3.375 -3.375,-3.375 z m 0,-17.202 c -1.865,0 -3.376,1.513 -3.376,3.377 0,1.865 1.511,3.377 3.376,3.377 1.865,0 3.375,-1.512 3.375,-3.377 0,-1.864 -1.51,-3.377 -3.375,-3.377 z m 0,8.602 c -1.865,0 -3.376,1.512 -3.376,3.376 0,1.864 1.511,3.376 3.376,3.376 1.865,0 3.375,-1.512 3.375,-3.376 0,-1.864 -1.51,-3.376 -3.375,-3.376 z m 0,-17.199 c -1.865,0 -3.376,1.511 -3.376,3.374 0,1.865 1.511,3.377 3.376,3.377 1.865,0 3.375,-1.512 3.375,-3.377 0,-1.864 -1.51,-3.374 -3.375,-3.374 z m 0,-17.202 c -1.865,0 -3.376,1.512 -3.376,3.378 0,1.862 1.511,3.374 3.376,3.374 1.865,0 3.375,-1.512 3.375,-3.374 0,-1.866 -1.51,-3.378 -3.375,-3.378 z m 0,8.601 c -1.865,0 -3.376,1.512 -3.376,3.376 0,1.864 1.511,3.376 3.376,3.376 1.865,0 3.375,-1.512 3.375,-3.376 0,-1.864 -1.51,-3.376 -3.375,-3.376 z m 0,-17.201 c -1.865,0 -3.376,1.511 -3.376,3.375 0,1.866 1.511,3.379 3.376,3.379 1.865,0 3.375,-1.513 3.375,-3.379 0,-1.865 -1.51,-3.375 -3.375,-3.375 z m 9.982,-68.801 c -1.864,0 -3.376,1.512 -3.376,3.377 0,1.864 1.512,3.376 3.376,3.376 1.865,0 3.376,-1.512 3.376,-3.376 0,-1.865 -1.512,-3.377 -3.376,-3.377 z m 0,8.602 c -1.864,0 -3.376,1.509 -3.376,3.375 0,1.865 1.512,3.376 3.376,3.376 1.865,0 3.376,-1.511 3.376,-3.376 0,-1.867 -1.512,-3.375 -3.376,-3.375 z m 0,-17.202 c -1.864,0 -3.376,1.513 -3.376,3.375 0,1.865 1.512,3.378 3.376,3.378 1.865,0 3.376,-1.513 3.376,-3.378 0,-1.862 -1.512,-3.375 -3.376,-3.375 z m 0,-8.6 c -1.864,0 -3.376,1.512 -3.376,3.375 0,1.865 1.512,3.377 3.376,3.377 1.865,0 3.376,-1.512 3.376,-3.377 0,-1.864 -1.512,-3.375 -3.376,-3.375 z m -9.982,154.803 c -1.865,0 -3.376,1.512 -3.376,3.374 0,1.866 1.511,3.377 3.376,3.377 1.865,0 3.375,-1.511 3.375,-3.377 0,-1.863 -1.51,-3.374 -3.375,-3.374 z m 0,8.598 c -1.865,0 -3.376,1.513 -3.376,3.376 0,1.866 1.511,3.377 3.376,3.377 1.865,0 3.375,-1.511 3.375,-3.377 0,-1.863 -1.51,-3.376 -3.375,-3.376 z M 16.827,0 c -0.006,0.085 -0.012,0.166 -0.012,0.252 0,1.863 1.511,3.375 3.376,3.375 1.865,0 3.375,-1.512 3.375,-3.375 C 23.566,0.166 23.559,0.085 23.553,0 H 16.827 z M 6.845,0 C 6.84,0.085 6.833,0.166 6.833,0.252 c 0,1.863 1.51,3.375 3.375,3.375 1.864,0 3.376,-1.512 3.376,-3.375 C 13.584,0.166 13.578,0.085 13.57,0 H 6.845 z m 23.328,39.876 c -1.864,0 -3.376,1.512 -3.376,3.375 0,1.865 1.512,3.376 3.376,3.376 1.865,0 3.376,-1.511 3.376,-3.376 0,-1.863 -1.512,-3.375 -3.376,-3.375 z M 20.191,5.475 c -1.865,0 -3.376,1.512 -3.376,3.375 0,1.865 1.511,3.377 3.376,3.377 1.865,0 3.375,-1.512 3.375,-3.377 0,-1.864 -1.51,-3.375 -3.375,-3.375 z m 0,8.6 c -1.865,0 -3.376,1.513 -3.376,3.375 0,1.865 1.511,3.378 3.376,3.378 1.865,0 3.375,-1.513 3.375,-3.378 0,-1.862 -1.51,-3.375 -3.375,-3.375 z m 0,8.6 c -1.865,0 -3.376,1.512 -3.376,3.377 0,1.864 1.511,3.376 3.376,3.376 1.865,0 3.375,-1.512 3.375,-3.376 0,-1.865 -1.51,-3.377 -3.375,-3.377 z m -9.983,129.002 c -1.865,0 -3.375,1.512 -3.375,3.376 0,1.863 1.51,3.375 3.375,3.375 1.864,0 3.376,-1.512 3.376,-3.375 0,-1.864 -1.512,-3.376 -3.376,-3.376 z m 0,17.199 c -1.865,0 -3.375,1.513 -3.375,3.376 0,1.866 1.51,3.377 3.375,3.377 1.864,0 3.376,-1.511 3.376,-3.377 0,-1.863 -1.512,-3.376 -3.376,-3.376 z m 9.983,-86 c -1.865,0 -3.376,1.512 -3.376,3.376 0,1.864 1.511,3.376 3.376,3.376 1.865,0 3.375,-1.512 3.375,-3.376 0,-1.864 -1.51,-3.376 -3.375,-3.376 z m -9.983,77.402 c -1.865,0 -3.375,1.512 -3.375,3.374 0,1.866 1.51,3.377 3.375,3.377 1.864,0 3.376,-1.511 3.376,-3.377 0,-1.863 -1.512,-3.374 -3.376,-3.374 z M 20.191,57.075 c -1.865,0 -3.376,1.512 -3.376,3.376 0,1.865 1.511,3.377 3.376,3.377 1.865,0 3.375,-1.512 3.375,-3.377 0,-1.864 -1.51,-3.376 -3.375,-3.376 z m 0,8.6 c -1.865,0 -3.376,1.513 -3.376,3.376 0,1.865 1.511,3.377 3.376,3.377 1.865,0 3.375,-1.512 3.375,-3.377 0,-1.863 -1.51,-3.376 -3.375,-3.376 z m 0,8.601 c -1.865,0 -3.376,1.512 -3.376,3.375 0,1.866 1.511,3.376 3.376,3.376 1.865,0 3.375,-1.51 3.375,-3.376 0,-1.864 -1.51,-3.375 -3.375,-3.375 z m 0,-42.999 c -1.865,0 -3.376,1.509 -3.376,3.375 0,1.865 1.511,3.376 3.376,3.376 1.865,0 3.375,-1.511 3.375,-3.376 0,-1.867 -1.51,-3.375 -3.375,-3.375 z m 0,17.2 c -1.865,0 -3.376,1.511 -3.376,3.374 0,1.866 1.511,3.377 3.376,3.377 1.865,0 3.375,-1.511 3.375,-3.377 0,-1.864 -1.51,-3.374 -3.375,-3.374 z m -9.983,94.6 c -1.865,0 -3.375,1.511 -3.375,3.375 0,1.865 1.51,3.376 3.375,3.376 1.864,0 3.376,-1.511 3.376,-3.376 0,-1.864 -1.512,-3.375 -3.376,-3.375 z M 20.191,39.876 c -1.865,0 -3.376,1.512 -3.376,3.375 0,1.865 1.511,3.376 3.376,3.376 1.865,0 3.375,-1.511 3.375,-3.376 0,-1.863 -1.51,-3.375 -3.375,-3.375 z m 19.966,0 c -1.866,0 -3.377,1.512 -3.377,3.375 0,1.865 1.511,3.376 3.377,3.376 1.864,0 3.375,-1.511 3.375,-3.376 0,-1.863 -1.512,-3.375 -3.375,-3.375 z m 0,8.601 c -1.866,0 -3.377,1.511 -3.377,3.374 0,1.866 1.511,3.377 3.377,3.377 1.864,0 3.375,-1.511 3.375,-3.377 0,-1.864 -1.512,-3.374 -3.375,-3.374 z m 0,-17.2 c -1.866,0 -3.377,1.509 -3.377,3.375 0,1.865 1.511,3.376 3.377,3.376 1.864,0 3.375,-1.511 3.375,-3.376 0,-1.867 -1.512,-3.375 -3.375,-3.375 z m 0,-8.602 c -1.866,0 -3.377,1.512 -3.377,3.377 0,1.864 1.511,3.376 3.377,3.376 1.864,0 3.375,-1.512 3.375,-3.376 0,-1.865 -1.512,-3.377 -3.375,-3.377 z m -9.984,25.802 c -1.864,0 -3.376,1.511 -3.376,3.374 0,1.866 1.512,3.377 3.376,3.377 1.865,0 3.376,-1.511 3.376,-3.377 0,-1.864 -1.512,-3.374 -3.376,-3.374 z m 9.984,-34.402 c -1.866,0 -3.377,1.513 -3.377,3.375 0,1.865 1.511,3.378 3.377,3.378 1.864,0 3.375,-1.513 3.375,-3.378 0,-1.862 -1.512,-3.375 -3.375,-3.375 z m 0,43 c -1.866,0 -3.377,1.512 -3.377,3.376 0,1.865 1.511,3.377 3.377,3.377 1.864,0 3.375,-1.512 3.375,-3.377 0,-1.864 -1.512,-3.376 -3.375,-3.376 z m 0,-44.848 c 1.864,0 3.375,-1.512 3.375,-3.377 0,-1.863 -1.511,-3.375 -3.375,-3.375 -1.866,0 -3.377,1.512 -3.377,3.375 0,1.865 1.511,3.377 3.377,3.377 z m 0,79.249 c -1.866,0 -3.377,1.511 -3.377,3.375 0,1.866 1.511,3.379 3.377,3.379 1.864,0 3.375,-1.513 3.375,-3.379 0,-1.865 -1.512,-3.375 -3.375,-3.375 z m 0,8.6 c -1.866,0 -3.377,1.512 -3.377,3.378 0,1.862 1.511,3.374 3.377,3.374 1.864,0 3.375,-1.512 3.375,-3.374 0,-1.866 -1.512,-3.378 -3.375,-3.378 z m 0,-34.401 c -1.866,0 -3.377,1.513 -3.377,3.376 0,1.865 1.511,3.377 3.377,3.377 1.864,0 3.375,-1.512 3.375,-3.377 0,-1.863 -1.512,-3.376 -3.375,-3.376 z m 0,43.002 c -1.866,0 -3.377,1.512 -3.377,3.376 0,1.864 1.511,3.376 3.377,3.376 1.864,0 3.375,-1.512 3.375,-3.376 0,-1.864 -1.512,-3.376 -3.375,-3.376 z m 0,-34.401 c -1.866,0 -3.377,1.512 -3.377,3.375 0,1.866 1.511,3.376 3.377,3.376 1.864,0 3.375,-1.51 3.375,-3.376 0,-1.864 -1.512,-3.375 -3.375,-3.375 z m 0,8.6 c -1.866,0 -3.377,1.512 -3.377,3.376 0,1.864 1.511,3.376 3.377,3.376 1.864,0 3.375,-1.512 3.375,-3.376 0,-1.864 -1.512,-3.376 -3.375,-3.376 z M 26.81,0 c -0.006,0.085 -0.013,0.166 -0.013,0.252 0,1.863 1.512,3.375 3.376,3.375 1.865,0 3.376,-1.512 3.376,-3.375 C 33.549,0.166 33.543,0.085 33.537,0 H 26.81 z m 3.363,91.476 c -1.864,0 -3.376,1.511 -3.376,3.375 0,1.866 1.512,3.379 3.376,3.379 1.865,0 3.376,-1.513 3.376,-3.379 0,-1.865 -1.512,-3.375 -3.376,-3.375 z m 0,-8.6 c -1.864,0 -3.376,1.512 -3.376,3.376 0,1.864 1.512,3.376 3.376,3.376 1.865,0 3.376,-1.512 3.376,-3.376 0,-1.864 -1.512,-3.376 -3.376,-3.376 z m 0,17.2 c -1.864,0 -3.376,1.512 -3.376,3.378 0,1.862 1.512,3.374 3.376,3.374 1.865,0 3.376,-1.512 3.376,-3.374 0,-1.866 -1.512,-3.378 -3.376,-3.378 z m 0,-25.8 c -1.864,0 -3.376,1.512 -3.376,3.375 0,1.866 1.512,3.376 3.376,3.376 1.865,0 3.376,-1.51 3.376,-3.376 0,-1.864 -1.512,-3.375 -3.376,-3.375 z m 0,-17.201 c -1.864,0 -3.376,1.512 -3.376,3.376 0,1.865 1.512,3.377 3.376,3.377 1.865,0 3.376,-1.512 3.376,-3.377 0,-1.864 -1.512,-3.376 -3.376,-3.376 z m 0,103.203 c -1.864,0 -3.376,1.512 -3.376,3.374 0,1.866 1.512,3.377 3.376,3.377 1.865,0 3.376,-1.511 3.376,-3.377 0,-1.863 -1.512,-3.374 -3.376,-3.374 z m 0,-94.603 c -1.864,0 -3.376,1.513 -3.376,3.376 0,1.865 1.512,3.377 3.376,3.377 1.865,0 3.376,-1.512 3.376,-3.377 0,-1.863 -1.512,-3.376 -3.376,-3.376 z m 0,43.002 c -1.864,0 -3.376,1.512 -3.376,3.376 0,1.864 1.512,3.376 3.376,3.376 1.865,0 3.376,-1.512 3.376,-3.376 0,-1.864 -1.512,-3.376 -3.376,-3.376 z m 0,43 c -1.864,0 -3.376,1.512 -3.376,3.376 0,1.863 1.512,3.375 3.376,3.375 1.865,0 3.376,-1.512 3.376,-3.375 0,-1.864 -1.512,-3.376 -3.376,-3.376 z m 0,-8.6 c -1.864,0 -3.376,1.511 -3.376,3.375 0,1.865 1.512,3.376 3.376,3.376 1.865,0 3.376,-1.511 3.376,-3.376 0,-1.864 -1.512,-3.375 -3.376,-3.375 z m 0,25.799 c -1.864,0 -3.376,1.513 -3.376,3.376 0,1.866 1.512,3.377 3.376,3.377 1.865,0 3.376,-1.511 3.376,-3.377 0,-1.863 -1.512,-3.376 -3.376,-3.376 z m 0,-34.399 c -1.864,0 -3.376,1.512 -3.376,3.376 0,1.864 1.512,3.376 3.376,3.376 1.865,0 3.376,-1.512 3.376,-3.376 0,-1.864 -1.512,-3.376 -3.376,-3.376 z m 0,-17.199 c -1.864,0 -3.376,1.511 -3.376,3.374 0,1.865 1.512,3.377 3.376,3.377 1.865,0 3.376,-1.512 3.376,-3.377 0,-1.864 -1.512,-3.374 -3.376,-3.374 z m 0,8.597 c -1.864,0 -3.376,1.513 -3.376,3.377 0,1.865 1.512,3.377 3.376,3.377 1.865,0 3.376,-1.512 3.376,-3.377 0,-1.864 -1.512,-3.377 -3.376,-3.377 z M 0.225,160.278 c -0.075,0 -0.15,0.006 -0.225,0.011 v 6.73 c 0.075,0.003 0.149,0.01 0.225,0.01 1.864,0 3.378,-1.511 3.378,-3.377 0,-1.863 -1.514,-3.374 -3.378,-3.374 z m 19.966,17.2 c -1.844,0 -3.339,1.478 -3.375,3.312 h 6.747 c -0.034,-1.835 -1.528,-3.312 -3.372,-3.312 z m -9.983,0 c -1.844,0 -3.338,1.478 -3.373,3.312 h 6.745 c -0.034,-1.835 -1.529,-3.312 -3.372,-3.312 z m 19.965,0 c -1.844,0 -3.337,1.478 -3.372,3.312 h 6.745 c -0.034,-1.835 -1.53,-3.312 -3.373,-3.312 z m 9.984,0 c -1.844,0 -3.339,1.478 -3.375,3.312 h 6.746 c -0.034,-1.835 -1.529,-3.312 -3.371,-3.312 z m -39.932,0 c -0.075,0 -0.15,0.006 -0.225,0.012 v 3.301 h 3.597 c -0.034,-1.836 -1.529,-3.313 -3.372,-3.313 z m 59.896,0 c -1.844,0 -3.34,1.478 -3.373,3.312 h 6.745 c -0.034,-1.835 -1.529,-3.312 -3.372,-3.312 z m -9.983,0 c -1.843,0 -3.339,1.478 -3.373,3.312 h 6.745 c -0.034,-1.835 -1.529,-3.312 -3.372,-3.312 z M 0.225,5.475 C 0.15,5.475 0.075,5.482 0,5.487 v 6.729 c 0.075,0.004 0.149,0.012 0.225,0.012 1.864,0 3.378,-1.512 3.378,-3.377 0,-1.865 -1.514,-3.376 -3.378,-3.376 z m 69.877,172.003 c -1.842,0 -3.337,1.478 -3.372,3.312 h 6.745 c -0.033,-1.835 -1.529,-3.312 -3.373,-3.312 z M 0.225,39.876 c -0.075,0 -0.15,0.005 -0.225,0.01 v 6.729 c 0.075,0.005 0.149,0.012 0.225,0.012 1.864,0 3.378,-1.511 3.378,-3.376 0,-1.863 -1.514,-3.375 -3.378,-3.375 z m 0,8.601 c -0.075,0 -0.15,0.004 -0.225,0.01 v 6.73 c 0.075,0.004 0.149,0.011 0.225,0.011 1.864,0 3.378,-1.511 3.378,-3.377 0,-1.864 -1.514,-3.374 -3.378,-3.374 z m 0,-17.2 c -0.075,0 -0.15,0.005 -0.225,0.011 v 6.729 c 0.075,0.005 0.149,0.011 0.225,0.011 1.864,0 3.378,-1.511 3.378,-3.376 0,-1.867 -1.514,-3.375 -3.378,-3.375 z m 0,-8.602 c -0.075,0 -0.15,0.007 -0.225,0.011 v 6.729 c 0.075,0.006 0.149,0.013 0.225,0.013 1.864,0 3.378,-1.512 3.378,-3.376 0,-1.865 -1.514,-3.377 -3.378,-3.377 z m 0,34.4 c -0.075,0 -0.15,0.008 -0.225,0.012 v 6.729 c 0.075,0.006 0.149,0.013 0.225,0.013 1.864,0 3.378,-1.512 3.378,-3.377 0,-1.865 -1.514,-3.377 -3.378,-3.377 z m 0,-43 c -0.075,0 -0.15,0.006 -0.225,0.011 v 6.729 c 0.075,0.006 0.149,0.014 0.225,0.014 1.864,0 3.378,-1.513 3.378,-3.378 0,-1.863 -1.514,-3.376 -3.378,-3.376 z m 169.704,163.403 c -1.844,0 -3.341,1.478 -3.374,3.312 h 6.746 c -0.034,-1.835 -1.53,-3.312 -3.372,-3.312 z m -89.843,0 c -1.844,0 -3.339,1.478 -3.374,3.312 h 6.746 c -0.033,-1.835 -1.529,-3.312 -3.372,-3.312 z m 99.824,0 c -1.843,0 -3.339,1.478 -3.372,3.312 h 6.745 c -0.035,-1.835 -1.529,-3.312 -3.373,-3.312 z m -29.947,0 c -1.842,0 -3.338,1.478 -3.373,3.312 h 6.746 c -0.035,-1.835 -1.529,-3.312 -3.373,-3.312 z m 56.522,3.312 h 3.506 v -3.307 c -0.044,-0.002 -0.088,-0.006 -0.134,-0.006 -1.842,0.001 -3.338,1.478 -3.372,3.313 z m -6.61,-3.312 c -1.843,0 -3.338,1.478 -3.373,3.312 h 6.748 c -0.036,-1.835 -1.531,-3.312 -3.375,-3.312 z m -9.982,0 c -1.842,0 -3.337,1.478 -3.372,3.312 h 6.746 c -0.034,-1.835 -1.531,-3.312 -3.374,-3.312 z m -29.948,0 c -1.842,0 -3.337,1.478 -3.373,3.312 h 6.746 c -0.034,-1.835 -1.529,-3.312 -3.373,-3.312 z m -59.894,0 c -1.844,0 -3.339,1.478 -3.375,3.312 h 6.746 c -0.032,-1.835 -1.528,-3.312 -3.371,-3.312 z m -9.982,0 c -1.844,0 -3.339,1.478 -3.374,3.312 h 6.746 c -0.035,-1.835 -1.53,-3.312 -3.372,-3.312 z m 19.964,0 c -1.842,0 -3.338,1.478 -3.371,3.312 h 6.745 c -0.036,-1.835 -1.531,-3.312 -3.374,-3.312 z m 29.947,0 c -1.843,0 -3.337,1.478 -3.371,3.312 h 6.744 c -0.033,-1.835 -1.528,-3.312 -3.373,-3.312 z m -19.964,0 c -1.843,0 -3.339,1.478 -3.374,3.312 h 6.746 c -0.033,-1.835 -1.529,-3.312 -3.372,-3.312 z m 9.981,0 c -1.842,0 -3.339,1.478 -3.372,3.312 h 6.746 c -0.035,-1.835 -1.53,-3.312 -3.374,-3.312 z M 10.208,74.276 c -1.865,0 -3.375,1.512 -3.375,3.375 0,1.866 1.51,3.376 3.375,3.376 1.864,0 3.376,-1.51 3.376,-3.376 0,-1.864 -1.512,-3.375 -3.376,-3.375 z m 0,-60.201 c -1.865,0 -3.375,1.513 -3.375,3.375 0,1.865 1.51,3.378 3.375,3.378 1.864,0 3.376,-1.513 3.376,-3.378 0,-1.862 -1.512,-3.375 -3.376,-3.375 z m 0,43 c -1.865,0 -3.375,1.512 -3.375,3.376 0,1.865 1.51,3.377 3.375,3.377 1.864,0 3.376,-1.512 3.376,-3.377 0,-1.864 -1.512,-3.376 -3.376,-3.376 z m 0,8.6 c -1.865,0 -3.375,1.513 -3.375,3.376 0,1.865 1.51,3.377 3.375,3.377 1.864,0 3.376,-1.512 3.376,-3.377 0,-1.863 -1.512,-3.376 -3.376,-3.376 z m 0,-43 c -1.865,0 -3.375,1.512 -3.375,3.377 0,1.864 1.51,3.376 3.375,3.376 1.864,0 3.376,-1.512 3.376,-3.376 0,-1.865 -1.512,-3.377 -3.376,-3.377 z m 0,17.201 c -1.865,0 -3.375,1.512 -3.375,3.375 0,1.865 1.51,3.376 3.375,3.376 1.864,0 3.376,-1.511 3.376,-3.376 0,-1.863 -1.512,-3.375 -3.376,-3.375 z m 0,94.601 c -1.865,0 -3.375,1.512 -3.375,3.376 0,1.864 1.51,3.376 3.375,3.376 1.864,0 3.376,-1.512 3.376,-3.376 0,-1.864 -1.512,-3.376 -3.376,-3.376 z m 0,-103.2 c -1.865,0 -3.375,1.509 -3.375,3.375 0,1.865 1.51,3.376 3.375,3.376 1.864,0 3.376,-1.511 3.376,-3.376 0,-1.867 -1.512,-3.375 -3.376,-3.375 z m 0,17.2 c -1.865,0 -3.375,1.511 -3.375,3.374 0,1.866 1.51,3.377 3.375,3.377 1.864,0 3.376,-1.511 3.376,-3.377 0,-1.864 -1.512,-3.374 -3.376,-3.374 z m 0,60.2 c -1.865,0 -3.375,1.512 -3.375,3.376 0,1.864 1.51,3.376 3.375,3.376 1.864,0 3.376,-1.512 3.376,-3.376 0,-1.864 -1.512,-3.376 -3.376,-3.376 z m 0,8.601 c -1.865,0 -3.375,1.511 -3.375,3.374 0,1.865 1.51,3.377 3.375,3.377 1.864,0 3.376,-1.512 3.376,-3.377 0,-1.864 -1.512,-3.374 -3.376,-3.374 z m 0,-34.402 c -1.865,0 -3.375,1.512 -3.375,3.376 0,1.864 1.51,3.376 3.375,3.376 1.864,0 3.376,-1.512 3.376,-3.376 0,-1.864 -1.512,-3.376 -3.376,-3.376 z m 0,42.999 c -1.865,0 -3.375,1.513 -3.375,3.377 0,1.865 1.51,3.377 3.375,3.377 1.864,0 3.376,-1.512 3.376,-3.377 0,-1.864 -1.512,-3.377 -3.376,-3.377 z m 0,-25.799 c -1.865,0 -3.375,1.512 -3.375,3.378 0,1.862 1.51,3.374 3.375,3.374 1.864,0 3.376,-1.512 3.376,-3.374 0,-1.866 -1.512,-3.378 -3.376,-3.378 z m 0,-8.6 c -1.865,0 -3.375,1.511 -3.375,3.375 0,1.866 1.51,3.379 3.375,3.379 1.864,0 3.376,-1.513 3.376,-3.379 0,-1.865 -1.512,-3.375 -3.376,-3.375 z m 29.949,25.802 c -1.866,0 -3.377,1.511 -3.377,3.374 0,1.865 1.511,3.377 3.377,3.377 1.864,0 3.375,-1.512 3.375,-3.377 0,-1.864 -1.512,-3.374 -3.375,-3.374 z M 0.225,108.677 c -0.075,0 -0.15,0.005 -0.225,0.013 v 6.727 c 0.075,0.006 0.149,0.013 0.225,0.013 1.864,0 3.378,-1.512 3.378,-3.376 0,-1.864 -1.514,-3.377 -3.378,-3.377 z m 0,-8.601 c -0.075,0 -0.15,0.007 -0.225,0.011 v 6.729 c 0.075,0.006 0.149,0.013 0.225,0.013 1.864,0 3.378,-1.512 3.378,-3.374 0,-1.867 -1.514,-3.379 -3.378,-3.379 z M 10.208,5.475 c -1.865,0 -3.375,1.512 -3.375,3.375 0,1.865 1.51,3.377 3.375,3.377 1.864,0 3.376,-1.512 3.376,-3.377 0,-1.864 -1.512,-3.375 -3.376,-3.375 z m -9.983,120.4 c -0.075,0 -0.15,0.008 -0.225,0.013 v 6.729 c 0.075,0.004 0.149,0.013 0.225,0.013 1.864,0 3.378,-1.512 3.378,-3.377 0,-1.865 -1.514,-3.378 -3.378,-3.378 z m 0,-51.599 c -0.075,0 -0.15,0.007 -0.225,0.012 v 6.728 c 0.075,0.008 0.149,0.012 0.225,0.012 1.864,0 3.378,-1.51 3.378,-3.376 0,-1.865 -1.514,-3.376 -3.378,-3.376 z m 0,17.2 c -0.075,0 -0.15,0.007 -0.225,0.012 v 6.729 c 0.075,0.005 0.149,0.013 0.225,0.013 1.864,0 3.378,-1.513 3.378,-3.379 0,-1.865 -1.514,-3.375 -3.378,-3.375 z m 0,-8.6 c -0.075,0 -0.15,0.007 -0.225,0.013 v 6.728 c 0.075,0.006 0.149,0.012 0.225,0.012 1.864,0 3.378,-1.512 3.378,-3.376 0,-1.864 -1.514,-3.377 -3.378,-3.377 z m 0,34.402 c -0.075,0 -0.15,0.005 -0.225,0.01 v 6.729 c 0.075,0.005 0.149,0.012 0.225,0.012 1.864,0 3.378,-1.512 3.378,-3.377 0,-1.864 -1.514,-3.374 -3.378,-3.374 z m 0,17.199 c -0.075,0 -0.15,0.007 -0.225,0.01 v 6.73 c 0.075,0.005 0.149,0.012 0.225,0.012 1.864,0 3.378,-1.512 3.378,-3.376 0,-1.864 -1.514,-3.376 -3.378,-3.376 z M 0,0 V 3.614 C 0.075,3.621 0.149,3.627 0.225,3.627 2.089,3.627 3.603,2.115 3.603,0.252 3.603,0.166 3.594,0.085 3.588,0 H 0 z m 0.225,168.876 c -0.075,0 -0.15,0.008 -0.225,0.012 v 6.729 c 0.075,0.007 0.149,0.013 0.225,0.013 1.864,0 3.378,-1.511 3.378,-3.377 0,-1.864 -1.514,-3.377 -3.378,-3.377 z m 0,-103.201 c -0.075,0 -0.15,0.008 -0.225,0.012 v 6.729 c 0.075,0.006 0.149,0.012 0.225,0.012 1.864,0 3.378,-1.512 3.378,-3.377 0,-1.863 -1.514,-3.376 -3.378,-3.376 z m 0,77.402 c -0.075,0 -0.15,0.006 -0.225,0.012 v 6.729 c 0.075,0.005 0.149,0.01 0.225,0.01 1.864,0 3.378,-1.511 3.378,-3.376 0,-1.864 -1.514,-3.375 -3.378,-3.375 z m 0,8.6 c -0.075,0 -0.15,0.007 -0.225,0.011 v 6.729 c 0.075,0.008 0.149,0.012 0.225,0.012 1.864,0 3.378,-1.512 3.378,-3.375 0,-1.865 -1.514,-3.377 -3.378,-3.377 z M 70.102,39.876 c -1.864,0 -3.375,1.512 -3.375,3.375 0,1.865 1.511,3.376 3.375,3.376 1.865,0 3.376,-1.511 3.376,-3.376 0.001,-1.863 -1.511,-3.375 -3.376,-3.375 z m 9.984,60.2 c -1.866,0 -3.376,1.512 -3.376,3.378 0,1.862 1.511,3.374 3.376,3.374 1.864,0 3.375,-1.512 3.375,-3.374 0,-1.866 -1.511,-3.378 -3.375,-3.378 z m 0,8.601 c -1.866,0 -3.376,1.512 -3.376,3.376 0,1.864 1.511,3.376 3.376,3.376 1.864,0 3.375,-1.512 3.375,-3.376 0,-1.864 -1.511,-3.376 -3.375,-3.376 z m 0,-17.201 c -1.866,0 -3.376,1.511 -3.376,3.375 0,1.866 1.511,3.379 3.376,3.379 1.864,0 3.375,-1.513 3.375,-3.379 0,-1.865 -1.511,-3.375 -3.375,-3.375 z m 0,25.802 c -1.866,0 -3.376,1.511 -3.376,3.374 0,1.865 1.511,3.377 3.376,3.377 1.864,0 3.375,-1.512 3.375,-3.377 0,-1.864 -1.511,-3.374 -3.375,-3.374 z m 0,-60.203 c -1.866,0 -3.376,1.512 -3.376,3.376 0,1.865 1.511,3.377 3.376,3.377 1.864,0 3.375,-1.512 3.375,-3.377 0,-1.864 -1.511,-3.376 -3.375,-3.376 z m 0,17.201 c -1.866,0 -3.376,1.512 -3.376,3.375 0,1.866 1.511,3.376 3.376,3.376 1.864,0 3.375,-1.51 3.375,-3.376 0,-1.864 -1.511,-3.375 -3.375,-3.375 z m 0,8.6 c -1.866,0 -3.376,1.512 -3.376,3.376 0,1.864 1.511,3.376 3.376,3.376 1.864,0 3.375,-1.512 3.375,-3.376 0,-1.864 -1.511,-3.376 -3.375,-3.376 z m 0,-17.201 c -1.866,0 -3.376,1.513 -3.376,3.376 0,1.865 1.511,3.377 3.376,3.377 1.864,0 3.375,-1.512 3.375,-3.377 0,-1.863 -1.511,-3.376 -3.375,-3.376 z m 0,94.603 c -1.866,0 -3.376,1.512 -3.376,3.374 0,1.866 1.511,3.377 3.376,3.377 1.864,0 3.375,-1.511 3.375,-3.377 0,-1.863 -1.511,-3.374 -3.375,-3.374 z M 90.069,5.475 c -1.866,0 -3.377,1.512 -3.377,3.375 0,1.865 1.512,3.377 3.377,3.377 1.864,0 3.375,-1.512 3.375,-3.377 0,-1.864 -1.511,-3.375 -3.375,-3.375 z m -9.983,163.401 c -1.866,0 -3.376,1.513 -3.376,3.376 0,1.866 1.511,3.377 3.376,3.377 1.864,0 3.375,-1.511 3.375,-3.377 0,-1.863 -1.511,-3.376 -3.375,-3.376 z M 76.722,0 c -0.006,0.085 -0.012,0.166 -0.012,0.252 0,1.863 1.511,3.375 3.376,3.375 1.864,0 3.375,-1.512 3.375,-3.375 0,-0.086 -0.005,-0.167 -0.012,-0.252 h -6.727 z m 3.364,151.677 c -1.866,0 -3.376,1.512 -3.376,3.376 0,1.863 1.511,3.375 3.376,3.375 1.864,0 3.375,-1.512 3.375,-3.375 0,-1.864 -1.511,-3.376 -3.375,-3.376 z m 0,-17.2 c -1.866,0 -3.376,1.512 -3.376,3.376 0,1.864 1.511,3.376 3.376,3.376 1.864,0 3.375,-1.512 3.375,-3.376 0,-1.864 -1.511,-3.376 -3.375,-3.376 z m 0,8.6 c -1.866,0 -3.376,1.511 -3.376,3.375 0,1.865 1.511,3.376 3.376,3.376 1.864,0 3.375,-1.511 3.375,-3.376 0,-1.864 -1.511,-3.375 -3.375,-3.375 z m 0,-17.202 c -1.866,0 -3.376,1.513 -3.376,3.377 0,1.865 1.511,3.377 3.376,3.377 1.864,0 3.375,-1.512 3.375,-3.377 0,-1.864 -1.511,-3.377 -3.375,-3.377 z m -9.984,25.802 c -1.864,0 -3.375,1.512 -3.375,3.376 0,1.863 1.511,3.375 3.375,3.375 1.865,0 3.376,-1.512 3.376,-3.375 0.001,-1.864 -1.511,-3.376 -3.376,-3.376 z M 40.157,125.875 c -1.866,0 -3.377,1.513 -3.377,3.377 0,1.865 1.511,3.377 3.377,3.377 1.864,0 3.375,-1.512 3.375,-3.377 0,-1.864 -1.512,-3.377 -3.375,-3.377 z m 29.945,17.202 c -1.864,0 -3.375,1.511 -3.375,3.375 0,1.865 1.511,3.376 3.375,3.376 1.865,0 3.376,-1.511 3.376,-3.376 0.001,-1.864 -1.511,-3.375 -3.376,-3.375 z m 0,-17.202 c -1.864,0 -3.375,1.513 -3.375,3.377 0,1.865 1.511,3.377 3.375,3.377 1.865,0 3.376,-1.512 3.376,-3.377 0.001,-1.864 -1.511,-3.377 -3.376,-3.377 z m 0,-8.597 c -1.864,0 -3.375,1.511 -3.375,3.374 0,1.865 1.511,3.377 3.375,3.377 1.865,0 3.376,-1.512 3.376,-3.377 0.001,-1.864 -1.511,-3.374 -3.376,-3.374 z m 0,43 c -1.864,0 -3.375,1.512 -3.375,3.374 0,1.866 1.511,3.377 3.375,3.377 1.865,0 3.376,-1.511 3.376,-3.377 0.001,-1.863 -1.511,-3.374 -3.376,-3.374 z m 0,-25.801 c -1.864,0 -3.375,1.512 -3.375,3.376 0,1.864 1.511,3.376 3.375,3.376 1.865,0 3.376,-1.512 3.376,-3.376 0,-1.864 -1.511,-3.376 -3.376,-3.376 z m 9.984,-103.2 c -1.866,0 -3.376,1.509 -3.376,3.375 0,1.865 1.511,3.376 3.376,3.376 1.864,0 3.375,-1.511 3.375,-3.376 0,-1.867 -1.511,-3.375 -3.375,-3.375 z m 0,17.2 c -1.866,0 -3.376,1.511 -3.376,3.374 0,1.866 1.511,3.377 3.376,3.377 1.864,0 3.375,-1.511 3.375,-3.377 0,-1.864 -1.511,-3.374 -3.375,-3.374 z m 0,-8.601 c -1.866,0 -3.376,1.512 -3.376,3.375 0,1.865 1.511,3.376 3.376,3.376 1.864,0 3.375,-1.511 3.375,-3.376 0,-1.863 -1.511,-3.375 -3.375,-3.375 z m 0,-17.201 c -1.866,0 -3.376,1.512 -3.376,3.377 0,1.864 1.511,3.376 3.376,3.376 1.864,0 3.375,-1.512 3.375,-3.376 0,-1.865 -1.511,-3.377 -3.375,-3.377 z m 0,-8.6 c -1.866,0 -3.376,1.513 -3.376,3.375 0,1.865 1.511,3.378 3.376,3.378 1.864,0 3.375,-1.513 3.375,-3.378 0,-1.862 -1.511,-3.375 -3.375,-3.375 z M 66.739,0 c -0.004,0.085 -0.012,0.166 -0.012,0.252 0,1.863 1.511,3.375 3.375,3.375 1.865,0 3.376,-1.512 3.376,-3.375 0,-0.086 -0.006,-0.167 -0.012,-0.252 h -6.727 z m 13.347,5.475 c -1.866,0 -3.376,1.512 -3.376,3.375 0,1.865 1.511,3.377 3.376,3.377 1.864,0 3.375,-1.512 3.375,-3.377 0,-1.864 -1.511,-3.375 -3.375,-3.375 z m 19.965,60.2 c -1.866,0 -3.376,1.513 -3.376,3.376 0,1.865 1.511,3.377 3.376,3.377 1.865,0 3.376,-1.512 3.376,-3.377 0,-1.863 -1.511,-3.376 -3.376,-3.376 z m 0,-43 c -1.866,0 -3.376,1.512 -3.376,3.377 0,1.864 1.511,3.376 3.376,3.376 1.865,0 3.376,-1.512 3.376,-3.376 0,-1.865 -1.511,-3.377 -3.376,-3.377 z m 0,-8.6 c -1.866,0 -3.376,1.513 -3.376,3.375 0,1.865 1.511,3.378 3.376,3.378 1.865,0 3.376,-1.513 3.376,-3.378 0,-1.862 -1.511,-3.375 -3.376,-3.375 z M 86.703,0 c -0.004,0.085 -0.012,0.166 -0.012,0.252 0,1.863 1.512,3.375 3.377,3.375 1.864,0 3.375,-1.512 3.375,-3.375 0,-0.086 -0.006,-0.167 -0.012,-0.252 h -6.728 z m 13.348,5.475 c -1.866,0 -3.376,1.512 -3.376,3.375 0,1.865 1.511,3.377 3.376,3.377 1.865,0 3.376,-1.512 3.376,-3.377 0,-1.864 -1.511,-3.375 -3.376,-3.375 z m -9.982,154.803 c -1.866,0 -3.377,1.512 -3.377,3.374 0,1.866 1.512,3.377 3.377,3.377 1.864,0 3.375,-1.511 3.375,-3.377 0,-1.863 -1.511,-3.374 -3.375,-3.374 z m 0,-8.601 c -1.866,0 -3.377,1.512 -3.377,3.376 0,1.863 1.512,3.375 3.377,3.375 1.864,0 3.375,-1.512 3.375,-3.375 0,-1.864 -1.511,-3.376 -3.375,-3.376 z m 0,17.199 c -1.866,0 -3.377,1.513 -3.377,3.376 0,1.866 1.512,3.377 3.377,3.377 1.864,0 3.375,-1.511 3.375,-3.377 0,-1.863 -1.511,-3.376 -3.375,-3.376 z m 9.982,-111.801 c -1.866,0 -3.376,1.512 -3.376,3.376 0,1.865 1.511,3.377 3.376,3.377 1.865,0 3.376,-1.512 3.376,-3.377 0,-1.864 -1.511,-3.376 -3.376,-3.376 z m -9.982,-43 c -1.866,0 -3.377,1.513 -3.377,3.375 0,1.865 1.512,3.378 3.377,3.378 1.864,0 3.375,-1.513 3.375,-3.378 0,-1.862 -1.511,-3.375 -3.375,-3.375 z m 9.982,60.201 c -1.866,0 -3.376,1.512 -3.376,3.375 0,1.866 1.511,3.376 3.376,3.376 1.865,0 3.376,-1.51 3.376,-3.376 0,-1.864 -1.511,-3.375 -3.376,-3.375 z m 0,-42.999 c -1.866,0 -3.376,1.509 -3.376,3.375 0,1.865 1.511,3.376 3.376,3.376 1.865,0 3.376,-1.511 3.376,-3.376 0,-1.867 -1.511,-3.375 -3.376,-3.375 z m -9.982,111.8 c -1.866,0 -3.377,1.511 -3.377,3.375 0,1.865 1.512,3.376 3.377,3.376 1.864,0 3.375,-1.511 3.375,-3.376 0,-1.864 -1.511,-3.375 -3.375,-3.375 z m 9.982,-103.201 c -1.866,0 -3.376,1.512 -3.376,3.375 0,1.865 1.511,3.376 3.376,3.376 1.865,0 3.376,-1.511 3.376,-3.376 0,-1.863 -1.511,-3.375 -3.376,-3.375 z m 0,8.601 c -1.866,0 -3.376,1.511 -3.376,3.374 0,1.866 1.511,3.377 3.376,3.377 1.865,0 3.376,-1.511 3.376,-3.377 0,-1.864 -1.511,-3.374 -3.376,-3.374 z m -29.949,60.2 c -1.864,0 -3.375,1.512 -3.375,3.376 0,1.864 1.511,3.376 3.375,3.376 1.865,0 3.376,-1.512 3.376,-3.376 0,-1.864 -1.511,-3.376 -3.376,-3.376 z M 90.069,57.075 c -1.866,0 -3.377,1.512 -3.377,3.376 0,1.865 1.512,3.377 3.377,3.377 1.864,0 3.375,-1.512 3.375,-3.377 0,-1.864 -1.511,-3.376 -3.375,-3.376 z m 0,8.6 c -1.866,0 -3.377,1.513 -3.377,3.376 0,1.865 1.512,3.377 3.377,3.377 1.864,0 3.375,-1.512 3.375,-3.377 0,-1.863 -1.511,-3.376 -3.375,-3.376 z m 0,68.802 c -1.866,0 -3.377,1.512 -3.377,3.376 0,1.864 1.512,3.376 3.377,3.376 1.864,0 3.375,-1.512 3.375,-3.376 0,-1.864 -1.511,-3.376 -3.375,-3.376 z m 0,-86 c -1.866,0 -3.377,1.511 -3.377,3.374 0,1.866 1.512,3.377 3.377,3.377 1.864,0 3.375,-1.511 3.375,-3.377 0,-1.864 -1.511,-3.374 -3.375,-3.374 z m 0,-25.802 c -1.866,0 -3.377,1.512 -3.377,3.377 0,1.864 1.512,3.376 3.377,3.376 1.864,0 3.375,-1.512 3.375,-3.376 0,-1.865 -1.511,-3.377 -3.375,-3.377 z m 0,17.201 c -1.866,0 -3.377,1.512 -3.377,3.375 0,1.865 1.512,3.376 3.377,3.376 1.864,0 3.375,-1.511 3.375,-3.376 0,-1.863 -1.511,-3.375 -3.375,-3.375 z m 0,-8.599 c -1.866,0 -3.377,1.509 -3.377,3.375 0,1.865 1.512,3.376 3.377,3.376 1.864,0 3.375,-1.511 3.375,-3.376 0,-1.867 -1.511,-3.375 -3.375,-3.375 z m 0,42.999 c -1.866,0 -3.377,1.512 -3.377,3.375 0,1.866 1.512,3.376 3.377,3.376 1.864,0 3.375,-1.51 3.375,-3.376 0,-1.864 -1.511,-3.375 -3.375,-3.375 z m 0,34.401 c -1.866,0 -3.377,1.512 -3.377,3.376 0,1.864 1.512,3.376 3.377,3.376 1.864,0 3.375,-1.512 3.375,-3.376 0,-1.864 -1.511,-3.376 -3.375,-3.376 z m 0,-25.801 c -1.866,0 -3.377,1.512 -3.377,3.376 0,1.864 1.512,3.376 3.377,3.376 1.864,0 3.375,-1.512 3.375,-3.376 0,-1.864 -1.511,-3.376 -3.375,-3.376 z m 0,42.999 c -1.866,0 -3.377,1.513 -3.377,3.377 0,1.865 1.512,3.377 3.377,3.377 1.864,0 3.375,-1.512 3.375,-3.377 0,-1.864 -1.511,-3.377 -3.375,-3.377 z m 0,-8.597 c -1.866,0 -3.377,1.511 -3.377,3.374 0,1.865 1.512,3.377 3.377,3.377 1.864,0 3.375,-1.512 3.375,-3.377 0,-1.864 -1.511,-3.374 -3.375,-3.374 z m 0,-25.802 c -1.866,0 -3.377,1.511 -3.377,3.375 0,1.866 1.512,3.379 3.377,3.379 1.864,0 3.375,-1.513 3.375,-3.379 0,-1.865 -1.511,-3.375 -3.375,-3.375 z m 0,8.6 c -1.866,0 -3.377,1.512 -3.377,3.378 0,1.862 1.512,3.374 3.377,3.374 1.864,0 3.375,-1.512 3.375,-3.374 0,-1.866 -1.511,-3.378 -3.375,-3.378 z m -19.967,68.8 c -1.864,0 -3.375,1.513 -3.375,3.376 0,1.866 1.511,3.377 3.375,3.377 1.865,0 3.376,-1.511 3.376,-3.377 0.001,-1.863 -1.511,-3.376 -3.376,-3.376 z M 50.138,143.077 c -1.865,0 -3.377,1.511 -3.377,3.375 0,1.865 1.512,3.376 3.377,3.376 1.865,0 3.376,-1.511 3.376,-3.376 0,-1.864 -1.511,-3.375 -3.376,-3.375 z m 0,-34.4 c -1.865,0 -3.377,1.512 -3.377,3.376 0,1.864 1.512,3.376 3.377,3.376 1.865,0 3.376,-1.512 3.376,-3.376 0,-1.864 -1.511,-3.376 -3.376,-3.376 z m 0,17.198 c -1.865,0 -3.377,1.513 -3.377,3.377 0,1.865 1.512,3.377 3.377,3.377 1.865,0 3.376,-1.512 3.376,-3.377 0,-1.864 -1.511,-3.377 -3.376,-3.377 z m 0,-8.597 c -1.865,0 -3.377,1.511 -3.377,3.374 0,1.865 1.512,3.377 3.377,3.377 1.865,0 3.376,-1.512 3.376,-3.377 0,-1.864 -1.511,-3.374 -3.376,-3.374 z m 0,-34.402 c -1.865,0 -3.377,1.512 -3.377,3.376 0,1.864 1.512,3.376 3.377,3.376 1.865,0 3.376,-1.512 3.376,-3.376 0,-1.864 -1.511,-3.376 -3.376,-3.376 z m 0,17.2 c -1.865,0 -3.377,1.512 -3.377,3.378 0,1.862 1.512,3.374 3.377,3.374 1.865,0 3.376,-1.512 3.376,-3.374 0,-1.866 -1.511,-3.378 -3.376,-3.378 z m 0,-25.8 c -1.865,0 -3.377,1.512 -3.377,3.375 0,1.866 1.512,3.376 3.377,3.376 1.865,0 3.376,-1.51 3.376,-3.376 0,-1.864 -1.511,-3.375 -3.376,-3.375 z m 0,17.2 c -1.865,0 -3.377,1.511 -3.377,3.375 0,1.866 1.512,3.379 3.377,3.379 1.865,0 3.376,-1.513 3.376,-3.379 0,-1.865 -1.511,-3.375 -3.376,-3.375 z M 60.119,5.475 c -1.862,0 -3.374,1.512 -3.374,3.375 0,1.865 1.512,3.377 3.374,3.377 1.867,0 3.377,-1.512 3.377,-3.377 0,-1.864 -1.51,-3.375 -3.377,-3.375 z m 0.002,8.6 c -1.864,0 -3.376,1.513 -3.376,3.375 0,1.865 1.512,3.378 3.376,3.378 1.865,0 3.375,-1.513 3.375,-3.378 0,-1.862 -1.51,-3.375 -3.375,-3.375 z M 46.775,0 c -0.006,0.085 -0.014,0.166 -0.014,0.252 0,1.863 1.512,3.375 3.377,3.375 1.865,0 3.376,-1.512 3.376,-3.375 0,-0.086 -0.006,-0.167 -0.013,-0.252 h -6.726 z m 3.363,151.677 c -1.865,0 -3.377,1.512 -3.377,3.376 0,1.863 1.512,3.375 3.377,3.375 1.865,0 3.376,-1.512 3.376,-3.375 0,-1.864 -1.511,-3.376 -3.376,-3.376 z m 0,8.601 c -1.865,0 -3.377,1.512 -3.377,3.374 0,1.866 1.512,3.377 3.377,3.377 1.865,0 3.376,-1.511 3.376,-3.377 0,-1.863 -1.511,-3.374 -3.376,-3.374 z m 0,8.598 c -1.865,0 -3.377,1.513 -3.377,3.376 0,1.866 1.512,3.377 3.377,3.377 1.865,0 3.376,-1.511 3.376,-3.377 0,-1.863 -1.511,-3.376 -3.376,-3.376 z m -9.981,-34.399 c -1.866,0 -3.377,1.512 -3.377,3.376 0,1.864 1.511,3.376 3.377,3.376 1.864,0 3.375,-1.512 3.375,-3.376 0,-1.864 -1.512,-3.376 -3.375,-3.376 z m 0,34.399 c -1.866,0 -3.377,1.513 -3.377,3.376 0,1.866 1.511,3.377 3.377,3.377 1.864,0 3.375,-1.511 3.375,-3.377 0,-1.863 -1.512,-3.376 -3.375,-3.376 z M 50.138,5.475 c -1.865,0 -3.377,1.512 -3.377,3.375 0,1.865 1.512,3.377 3.377,3.377 1.865,0 3.376,-1.512 3.376,-3.377 0,-1.864 -1.511,-3.375 -3.376,-3.375 z M 36.792,0 c -0.006,0.085 -0.013,0.166 -0.013,0.252 0,1.863 1.511,3.375 3.377,3.375 1.864,0 3.375,-1.512 3.375,-3.375 0,-0.086 -0.005,-0.167 -0.012,-0.252 h -6.727 z m 3.365,160.278 c -1.866,0 -3.377,1.512 -3.377,3.374 0,1.866 1.511,3.377 3.377,3.377 1.864,0 3.375,-1.511 3.375,-3.377 0,-1.863 -1.512,-3.374 -3.375,-3.374 z M 60.121,22.675 c -1.864,0 -3.376,1.512 -3.376,3.377 0,1.864 1.512,3.376 3.376,3.376 1.865,0 3.375,-1.512 3.375,-3.376 0,-1.865 -1.51,-3.377 -3.375,-3.377 z M 40.157,151.677 c -1.866,0 -3.377,1.512 -3.377,3.376 0,1.863 1.511,3.375 3.377,3.375 1.864,0 3.375,-1.512 3.375,-3.375 0,-1.864 -1.512,-3.376 -3.375,-3.376 z m 0,-8.6 c -1.866,0 -3.377,1.511 -3.377,3.375 0,1.865 1.511,3.376 3.377,3.376 1.864,0 3.375,-1.511 3.375,-3.376 0,-1.864 -1.512,-3.375 -3.375,-3.375 z M 50.138,22.675 c -1.865,0 -3.377,1.512 -3.377,3.377 0,1.864 1.512,3.376 3.377,3.376 1.865,0 3.376,-1.512 3.376,-3.376 0,-1.865 -1.511,-3.377 -3.376,-3.377 z m 0,17.201 c -1.865,0 -3.377,1.512 -3.377,3.375 0,1.865 1.512,3.376 3.377,3.376 1.865,0 3.376,-1.511 3.376,-3.376 0,-1.863 -1.511,-3.375 -3.376,-3.375 z m 0,8.601 c -1.865,0 -3.377,1.511 -3.377,3.374 0,1.866 1.512,3.377 3.377,3.377 1.865,0 3.376,-1.511 3.376,-3.377 0,-1.864 -1.511,-3.374 -3.376,-3.374 z m 0,8.598 c -1.865,0 -3.377,1.512 -3.377,3.376 0,1.865 1.512,3.377 3.377,3.377 1.865,0 3.376,-1.512 3.376,-3.377 0,-1.864 -1.511,-3.376 -3.376,-3.376 z m 0,-25.798 c -1.865,0 -3.377,1.509 -3.377,3.375 0,1.865 1.512,3.376 3.377,3.376 1.865,0 3.376,-1.511 3.376,-3.376 0,-1.867 -1.511,-3.375 -3.376,-3.375 z m 0,-17.202 c -1.865,0 -3.377,1.513 -3.377,3.375 0,1.865 1.512,3.378 3.377,3.378 1.865,0 3.376,-1.513 3.376,-3.378 0,-1.862 -1.511,-3.375 -3.376,-3.375 z m 0,51.6 c -1.865,0 -3.377,1.513 -3.377,3.376 0,1.865 1.512,3.377 3.377,3.377 1.865,0 3.376,-1.512 3.376,-3.377 0,-1.863 -1.511,-3.376 -3.376,-3.376 z m 9.983,34.401 c -1.864,0 -3.376,1.512 -3.376,3.378 0,1.862 1.512,3.374 3.376,3.374 1.865,0 3.375,-1.512 3.375,-3.374 0,-1.866 -1.51,-3.378 -3.375,-3.378 z m 39.93,-17.2 c -1.866,0 -3.376,1.512 -3.376,3.376 0,1.864 1.511,3.376 3.376,3.376 1.865,0 3.376,-1.512 3.376,-3.376 0,-1.864 -1.511,-3.376 -3.376,-3.376 z M 70.102,14.075 c -1.864,0 -3.375,1.513 -3.375,3.375 0,1.865 1.511,3.378 3.375,3.378 1.865,0 3.376,-1.513 3.376,-3.378 0.001,-1.862 -1.511,-3.375 -3.376,-3.375 z m 0,17.202 c -1.864,0 -3.375,1.509 -3.375,3.375 0,1.865 1.511,3.376 3.375,3.376 1.865,0 3.376,-1.511 3.376,-3.376 0.001,-1.867 -1.511,-3.375 -3.376,-3.375 z m 0,-8.602 c -1.864,0 -3.375,1.512 -3.375,3.377 0,1.864 1.511,3.376 3.375,3.376 1.865,0 3.376,-1.512 3.376,-3.376 0.001,-1.865 -1.511,-3.377 -3.376,-3.377 z m 0,-17.2 c -1.864,0 -3.375,1.512 -3.375,3.375 0,1.865 1.511,3.377 3.375,3.377 1.865,0 3.376,-1.512 3.376,-3.377 0.001,-1.864 -1.511,-3.375 -3.376,-3.375 z m -9.981,154.803 c -1.864,0 -3.376,1.512 -3.376,3.374 0,1.866 1.512,3.377 3.376,3.377 1.865,0 3.375,-1.511 3.375,-3.377 0,-1.863 -1.51,-3.374 -3.375,-3.374 z M 56.758,0 c -0.007,0.085 -0.013,0.166 -0.013,0.252 0,1.863 1.512,3.375 3.376,3.375 1.865,0 3.375,-1.512 3.375,-3.375 0,-0.086 -0.008,-0.167 -0.014,-0.252 h -6.724 z m 13.344,74.276 c -1.864,0 -3.375,1.512 -3.375,3.375 0,1.866 1.511,3.376 3.375,3.376 1.865,0 3.376,-1.51 3.376,-3.376 0.001,-1.864 -1.511,-3.375 -3.376,-3.375 z m -9.981,94.6 c -1.864,0 -3.376,1.513 -3.376,3.376 0,1.866 1.512,3.377 3.376,3.377 1.865,0 3.375,-1.511 3.375,-3.377 0,-1.863 -1.51,-3.376 -3.375,-3.376 z m 9.981,-86 c -1.864,0 -3.375,1.512 -3.375,3.376 0,1.864 1.511,3.376 3.375,3.376 1.865,0 3.376,-1.512 3.376,-3.376 0,-1.864 -1.511,-3.376 -3.376,-3.376 z m 0,8.6 c -1.864,0 -3.375,1.511 -3.375,3.375 0,1.866 1.511,3.379 3.375,3.379 1.865,0 3.376,-1.513 3.376,-3.379 0.001,-1.865 -1.511,-3.375 -3.376,-3.375 z m 0,-42.999 c -1.864,0 -3.375,1.511 -3.375,3.374 0,1.866 1.511,3.377 3.375,3.377 1.865,0 3.376,-1.511 3.376,-3.377 0.001,-1.864 -1.511,-3.374 -3.376,-3.374 z m 0,8.598 c -1.864,0 -3.375,1.512 -3.375,3.376 0,1.865 1.511,3.377 3.375,3.377 1.865,0 3.376,-1.512 3.376,-3.377 0.001,-1.864 -1.511,-3.376 -3.376,-3.376 z m 0,8.6 c -1.864,0 -3.375,1.513 -3.375,3.376 0,1.865 1.511,3.377 3.375,3.377 1.865,0 3.376,-1.512 3.376,-3.377 0.001,-1.863 -1.511,-3.376 -3.376,-3.376 z M 60.121,48.477 c -1.864,0 -3.376,1.511 -3.376,3.374 0,1.866 1.512,3.377 3.376,3.377 1.865,0 3.375,-1.511 3.375,-3.377 0,-1.864 -1.51,-3.374 -3.375,-3.374 z m 0,25.799 c -1.864,0 -3.376,1.512 -3.376,3.375 0,1.866 1.512,3.376 3.376,3.376 1.865,0 3.375,-1.51 3.375,-3.376 0,-1.864 -1.51,-3.375 -3.375,-3.375 z m 0,-8.601 c -1.864,0 -3.376,1.513 -3.376,3.376 0,1.865 1.512,3.377 3.376,3.377 1.865,0 3.375,-1.512 3.375,-3.377 0,-1.863 -1.51,-3.376 -3.375,-3.376 z m 0,17.201 c -1.864,0 -3.376,1.512 -3.376,3.376 0,1.864 1.512,3.376 3.376,3.376 1.865,0 3.375,-1.512 3.375,-3.376 0,-1.864 -1.51,-3.376 -3.375,-3.376 z m 0,-43 c -1.864,0 -3.376,1.512 -3.376,3.375 0,1.865 1.512,3.376 3.376,3.376 1.865,0 3.375,-1.511 3.375,-3.376 0,-1.863 -1.51,-3.375 -3.375,-3.375 z m 0,51.6 c -1.864,0 -3.376,1.511 -3.376,3.375 0,1.866 1.512,3.379 3.376,3.379 1.865,0 3.375,-1.513 3.375,-3.379 0,-1.865 -1.51,-3.375 -3.375,-3.375 z m 0,-34.401 c -1.864,0 -3.376,1.512 -3.376,3.376 0,1.865 1.512,3.377 3.376,3.377 1.865,0 3.375,-1.512 3.375,-3.377 0,-1.864 -1.51,-3.376 -3.375,-3.376 z m 0,94.602 c -1.864,0 -3.376,1.512 -3.376,3.376 0,1.863 1.512,3.375 3.376,3.375 1.865,0 3.375,-1.512 3.375,-3.375 0,-1.864 -1.51,-3.376 -3.375,-3.376 z m 0,-120.4 c -1.864,0 -3.376,1.509 -3.376,3.375 0,1.865 1.512,3.376 3.376,3.376 1.865,0 3.375,-1.511 3.375,-3.376 0,-1.867 -1.51,-3.375 -3.375,-3.375 z m 0,103.2 c -1.864,0 -3.376,1.512 -3.376,3.376 0,1.864 1.512,3.376 3.376,3.376 1.865,0 3.375,-1.512 3.375,-3.376 0,-1.864 -1.51,-3.376 -3.375,-3.376 z m 0,-8.602 c -1.864,0 -3.376,1.513 -3.376,3.377 0,1.865 1.512,3.377 3.376,3.377 1.865,0 3.375,-1.512 3.375,-3.377 0,-1.864 -1.51,-3.377 -3.375,-3.377 z m 0,17.202 c -1.864,0 -3.376,1.511 -3.376,3.375 0,1.865 1.512,3.376 3.376,3.376 1.865,0 3.375,-1.511 3.375,-3.376 0,-1.864 -1.51,-3.375 -3.375,-3.375 z m 0,-25.799 c -1.864,0 -3.376,1.511 -3.376,3.374 0,1.865 1.512,3.377 3.376,3.377 1.865,0 3.375,-1.512 3.375,-3.377 0,-1.864 -1.51,-3.374 -3.375,-3.374 z m 0,-8.601 c -1.864,0 -3.376,1.512 -3.376,3.376 0,1.864 1.512,3.376 3.376,3.376 1.865,0 3.375,-1.512 3.375,-3.376 0,-1.864 -1.51,-3.376 -3.375,-3.376 z m 9.981,-8.601 c -1.864,0 -3.375,1.512 -3.375,3.378 0,1.862 1.511,3.374 3.375,3.374 1.865,0 3.376,-1.512 3.376,-3.374 0.001,-1.866 -1.511,-3.378 -3.376,-3.378 z"
         id="path13"
         inkscape:connector-curvature="0"
         style="fill:#282a1f" />
    </pattern>
    <radialGradient
       inkscape:collect="always"
       xlink:href="#linearGradient6527"
       id="radialGradient6533"
       cx="960"
       cy="512.36212"
       fx="960"
       fy="512.36212"
       r="960"
       gradientTransform="matrix(1,0,0,0.5625,0,224.15844)"
       gradientUnits="userSpaceOnUse" />
  </defs>
  <sodipodi:namedview
     id="base"
     pagecolor="#ffffff"
     bordercolor="#666666"
     borderopacity="1.0"
     inkscape:pageopacity="0.0"
     inkscape:pageshadow="2"
     inkscape:zoom="0.64429153"
     inkscape:cx="826.38063"
     inkscape:cy="587.18184"
     inkscape:document-units="px"
     inkscape:current-layer="layer1"
     showgrid="false"
     inkscape:window-width="1920"
     inkscape:window-height="1058"
     inkscape:window-x="1362"
     inkscape:window-y="0"
     inkscape:window-maximized="1"
     showguides="false" />
  <metadata
     id="metadata7">
    <rdf:RDF>
      <cc:Work
         rdf:about="">
        <dc:format>image/svg+xml</dc:format>
        <dc:type
           rdf:resource="http://purl.org/dc/dcmitype/StillImage" />
        <dc:title></dc:title>
      </cc:Work>
    </rdf:RDF>
  </metadata>
  <g
     inkscape:label="Capa 1"
     inkscape:groupmode="layer"
     id="layer1"
     transform="translate(0,27.63785)">
    <g
       id="g3044"
       inkscape:export-filename="/home/thot/logicalbricks/cositas/wallpapers/sources/background-1280-1024.png"
       inkscape:export-xdpi="90"
       inkscape:export-ydpi="90"
       transform="matrix(0.66666667,0,0,0.88888889,0,116.9291)">
      <rect
         inkscape:export-ydpi="90"
         inkscape:export-xdpi="90"
         inkscape:export-filename="/home/thot/logicalbricks/cositas/wallpapers/sources/logicalbricks2.png"
         style="color:#000000;fill:#000000;fill-opacity:1;fill-rule:nonzero;stroke:none;stroke-width:0.5;marker:none;visibility:visible;display:inline;overflow:visible;enable-background:accumulate"
         id="rect6523"
         width="1920"
         height="1080"
         x="0"
         y="-27.637848" />
      <rect
         inkscape:export-ydpi="90"
         inkscape:export-xdpi="90"
         inkscape:export-filename="/home/thot/logicalbricks/cositas/wallpapers/sources/logicalbricks2.png"
         y="-27.637848"
         x="0"
         height="1080"
         width="1920"
         id="rect6374"
         style="opacity:0.45138891;color:#000000;fill:url(#pattern6383);fill-opacity:1;fill-rule:nonzero;stroke:none;stroke-width:0.5;marker:none;visibility:visible;display:inline;overflow:visible;enable-background:accumulate" />
      <rect
         inkscape:export-ydpi="90"
         inkscape:export-xdpi="90"
         inkscape:export-filename="/home/thot/logicalbricks/cositas/wallpapers/sources/logicalbricks2.png"
         y="-27.637848"
         x="0"
         height="1080"
         width="1920"
         id="rect6525"
         style="color:#000000;fill:url(#radialGradient6533);fill-opacity:1;fill-rule:nonzero;stroke:none;stroke-width:0.5;marker:none;visibility:visible;display:inline;overflow:visible;enable-background:accumulate" />
    </g>
  </g>
</svg>
