<?xml version="1.0" encoding="UTF-8" standalone="no"?>
<!-- Created with Inkscape (http://www.inkscape.org/) -->

<svg
   xmlns:dc="http://purl.org/dc/elements/1.1/"
   xmlns:cc="http://creativecommons.org/ns#"
   xmlns:rdf="http://www.w3.org/1999/02/22-rdf-syntax-ns#"
   xmlns:svg="http://www.w3.org/2000/svg"
   xmlns="http://www.w3.org/2000/svg"
   xmlns:sodipodi="http://sodipodi.sourceforge.net/DTD/sodipodi-0.dtd"
   xmlns:inkscape="http://www.inkscape.org/namespaces/inkscape"
   width="1366"
   height="768"
   id="svg2"
   version="1.1"
   inkscape:version="0.48.2 r9819"
   inkscape:export-filename="/home/thot/logicalbrickswallpaper.png"
   inkscape:export-xdpi="90"
   inkscape:export-ydpi="90"
   sodipodi:docname="Nuevo documento 1">
  <defs
     id="defs4" />
  <sodipodi:namedview
     id="base"
     pagecolor="#ffffff"
     bordercolor="#666666"
     borderopacity="1.0"
     inkscape:pageopacity="0.0"
     inkscape:pageshadow="2"
     inkscape:zoom="0.49497475"
     inkscape:cx="736.23903"
     inkscape:cy="439.93621"
     inkscape:document-units="px"
     inkscape:current-layer="layer1"
     showgrid="false"
     inkscape:window-width="1366"
     inkscape:window-height="711"
     inkscape:window-x="-4"
     inkscape:window-y="35"
     inkscape:window-maximized="1" />
  <metadata
     id="metadata7">
    <rdf:RDF>
      <cc:Work
         rdf:about="">
        <dc:format>image/svg+xml</dc:format>
        <dc:type
           rdf:resource="http://purl.org/dc/dcmitype/StillImage" />
        <dc:title></dc:title>
      </cc:Work>
    </rdf:RDF>
  </metadata>
  <g
     inkscape:label="Capa 1"
     inkscape:groupmode="layer"
     id="layer1"
     transform="translate(0,-284.36217)">
    <rect
       style="fill:#000000;fill-opacity:1;stroke:none"
       id="rect2985"
       width="1366"
       height="768"
       x="-6.7070346e-08"
       y="284.64624" />
    <g
       id="g3172"
       transform="matrix(1.4104471,0,0,1.4104471,38.318157,100.14771)">
      <path
         inkscape:connector-curvature="0"
         d="m 411.46203,419.58682 c 2.14663,0 4.00347,0.89173 5.57054,2.67147 1.08575,1.48747 1.63049,2.89907 1.63049,4.23481 l -0.0534,1.68397 v 5.99837 c 0,1.25614 -0.91785,2.5869 -2.75231,3.99477 -1.39917,0.91661 -2.86425,1.37553 -4.39524,1.37553 -2.618,0 -4.78328,-1.16658 -6.49337,-3.49977 -0.33829,-0.57085 -0.50743,-0.97506 -0.50743,-1.21634 v -0.14676 c 0,-0.65045 0.41788,-1.06834 1.25614,-1.25614 h 0.18655 c 0.6318,0 1.12555,0.48131 1.48249,1.4427 1.08576,1.3631 2.44512,2.04464 4.07437,2.04464 1.95013,0 3.41023,-0.87308 4.38157,-2.61799 l 0.0796,-0.53479 v -1.29593 c -1.09571,1.01485 -2.53467,1.52353 -4.31565,1.52353 h -0.39802 c -1.94266,0 -3.74603,-0.90791 -5.41135,-2.72495 -1.02481,-1.4427 -1.53597,-2.9339 -1.53597,-4.47608 0,-2.34314 1.03227,-4.30197 3.09931,-5.87899 1.31708,-0.88054 2.68515,-1.32205 4.10173,-1.32205 z m -4.46241,7.05427 v 0.24004 c 0,1.85312 0.97507,3.23363 2.92643,4.14153 0.50744,0.15173 0.97009,0.22759 1.38922,0.22759 h 0.29351 c 1.8071,0 3.17518,-0.97009 4.10173,-2.91274 0.14179,-0.57957 0.21392,-1.02854 0.21392,-1.34942 v -0.3072 c 0,-1.84316 -0.98501,-3.22492 -2.95255,-4.14152 -0.61439,-0.14179 -1.08699,-0.21392 -1.41658,-0.21392 h -0.18655 c -1.80834,0 -3.17642,0.95889 -4.10173,2.87295 -0.17909,0.52609 -0.2674,1.0074 -0.2674,1.44269 z"
         id="path4116"
         style="fill:#ffffff" />
      <path
         style="fill:#ffffff"
         id="path4112"
         d="m 375.41592,414.08484 h 0.25196 c 0.88905,0.188 1.33293,0.60837 1.33293,1.26243 v 16.7732 h 8.23255 c 0.81333,0 1.29506,0.51829 1.44389,1.55618 -0.27155,0.89818 -0.75197,1.34597 -1.44389,1.34597 h -9.70517 c -0.77678,0 -1.25329,-0.48043 -1.43084,-1.4439 v -17.9364 c 0.11228,-1.03788 0.55223,-1.55748 1.31857,-1.55748 z"
         inkscape:connector-curvature="0" />
      <path
         style="fill:#ffffff"
         id="path4114"
         d="m 395.28187,419.90481 c 1.95304,0 3.7207,0.73761 5.30168,2.21545 1.50394,1.57967 2.25722,3.36169 2.25722,5.34345 0,2.83296 -1.33684,5.05885 -4.01052,6.67508 -1.16974,0.58878 -2.30031,0.88383 -3.39433,0.88383 h -0.42038 c -2.0392,0 -3.93219,-0.95303 -5.68027,-2.86037 -1.07574,-1.51439 -1.61231,-3.0797 -1.61231,-4.69854 0,-2.45828 1.08358,-4.51576 3.25334,-6.17114 1.38253,-0.92431 2.81859,-1.38776 4.30557,-1.38776 z m -4.62803,7.40485 v 0.25197 c 0,1.74808 0.84466,3.1045 2.53791,4.06666 0.59792,0.30811 1.24284,0.46216 1.93476,0.46216 h 0.3081 c 1.80422,0 3.18675,-0.93997 4.15153,-2.81861 0.2141,-0.57964 0.32246,-1.15015 0.32246,-1.71152 v -0.25066 c 0,-1.44911 -0.66973,-2.67368 -2.00527,-3.6737 -0.77677,-0.53265 -1.66844,-0.79897 -2.6789,-0.79897 -1.97393,0 -3.42175,1.03788 -4.34735,3.11363 -0.15014,0.48566 -0.22324,0.93867 -0.22324,1.35904 z"
         inkscape:connector-curvature="0" />
      <path
         style="fill:#ffffff"
         id="path4118"
         d="m 422.89341,416.14755 c 0.9256,0.23369 1.38777,0.67364 1.38777,1.31857 v 0.3081 c 0,0.73761 -0.50002,1.17757 -1.50003,1.31856 -0.72065,0 -1.19193,-0.49087 -1.41649,-1.47261 0.19714,-0.98175 0.70629,-1.47262 1.52875,-1.47262 z m 0,3.59015 c 0.9256,0.23369 1.38777,0.67365 1.38777,1.31857 v 12.59295 c 0,0.7572 -0.46737,1.21542 -1.40213,1.3747 h -0.0836 c -0.76635,0 -1.23894,-0.4765 -1.41649,-1.43084 v -12.25743 c 0.11228,-1.0653 0.6175,-1.59795 1.51439,-1.59795 z"
         inkscape:connector-curvature="0" />
      <path
         style="fill:#ffffff"
         id="path4120"
         d="m 433.88059,419.79384 c 1.96349,0 3.75856,0.74806 5.38524,2.24417 0.15927,0.28983 0.2389,0.55746 0.2389,0.79898 v 0.0979 c -0.16842,0.91647 -0.6397,1.37471 -1.41648,1.37471 h -0.0561 c -0.34596,0 -0.98174,-0.35119 -1.90735,-1.05225 -0.69192,-0.35379 -1.38776,-0.53265 -2.09013,-0.53265 h -0.30809 c -1.86036,0 -3.27292,0.98175 -4.23509,2.94524 -0.22455,0.6645 -0.33681,1.26242 -0.33681,1.79507 0,1.89821 0.98695,3.34341 2.95959,4.333 0.57965,0.22454 1.20629,0.33682 1.87863,0.33682 1.10315,0 2.22459,-0.48044 3.36561,-1.4439 l 0.57441,-0.12664 h 0.21021 c 0.74804,0 1.20105,0.45824 1.36033,1.37471 v 0.0835 c 0,0.91646 -1.22457,1.84208 -3.6737,2.77682 -0.80421,0.14883 -1.40212,0.22454 -1.79509,0.22454 h -0.42037 c -2.05617,0 -3.96353,-0.96216 -5.72205,-2.88909 -1.08487,-1.52353 -1.62666,-3.09928 -1.62666,-4.72595 0,-2.47655 1.09401,-4.55231 3.28205,-6.22728 1.39297,-0.92561 2.83817,-1.38776 4.33299,-1.38776 z"
         inkscape:connector-curvature="0" />
      <path
         style="fill:#ffffff"
         id="path4122"
         d="m 452.91884,433.42467 c -1.14101,1.0653 -2.64627,1.59925 -4.51576,1.59925 h -0.40731 c -2.58101,0 -4.73118,-1.28983 -6.45053,-3.87084 -0.62665,-1.25329 -0.93997,-2.51049 -0.93997,-3.77292 0,-2.82251 1.38385,-5.06277 4.15152,-6.71815 1.17758,-0.55224 2.32773,-0.8277 3.45047,-0.8277 2.8695,0 5.1411,1.40212 6.81608,4.20766 0.51436,1.15016 0.77155,2.33295 0.77155,3.54837 v 6.07194 c 0,0.74806 -0.45955,1.20106 -1.37471,1.36034 h -0.0979 c -0.63579,0 -1.10839,-0.37337 -1.41648,-1.12144 v -0.15404 l 0.013,-0.32247 z m -9.42447,-6.10064 v 0.15405 c 0,1.91649 0.96215,3.35646 2.88908,4.31994 0.59793,0.22454 1.1358,0.33681 1.61232,0.33681 h 0.40731 c 1.58881,0 2.90347,-0.79897 3.94134,-2.39822 0.37339,-0.74676 0.56137,-1.46348 0.56137,-2.14627 v -0.21018 c 0,-1.84077 -0.91124,-3.25333 -2.73504,-4.23507 -0.62664,-0.28069 -1.28072,-0.42038 -1.96349,-0.42038 h -0.0561 c -1.93476,0 -3.39433,1.00916 -4.37608,3.02879 -0.18667,0.6175 -0.28067,1.14101 -0.28067,1.57053 z"
         inkscape:connector-curvature="0" />
      <path
         style="fill:#ffffff"
         id="path4124"
         d="m 459.97904,414.1697 h 0.25197 c 0.88775,0.188 1.33293,0.60837 1.33293,1.26243 v 16.68834 h 0.6867 c 0.68148,0 1.12142,0.46214 1.31855,1.38777 v 0.11227 c -0.15927,0.93473 -0.63577,1.40211 -1.43083,1.40211 h -2.04704 c -0.77678,0 -1.25329,-0.47652 -1.43084,-1.43084 v -17.87896 c 0.11227,-1.02875 0.55092,-1.54312 1.31856,-1.54312 z"
         inkscape:connector-curvature="0" />
      <path
         style="fill:#ffffff"
         id="path4126"
         d="m 465.67892,414.02871 0.70104,0.11227 h 3.15542 l 0.21019,-0.0418 c 1.7755,0 3.27683,0.81856 4.50139,2.45436 0.62535,0.91647 0.93997,1.91258 0.93997,2.98701 v 0.15405 c 0,1.30943 -0.39818,2.41781 -1.19193,3.32383 2.13191,1.16974 3.1972,3.03793 3.1972,5.60978 0,2.58099 -1.33685,4.56277 -4.01053,5.9466 -0.86947,0.29897 -1.64625,0.44909 -2.32773,0.44909 h -4.79643 c -0.92561,-0.16841 -1.38777,-0.64491 -1.38777,-1.43084 V 415.5444 c 0.13968,-0.93474 0.47651,-1.40211 1.00918,-1.40211 v -0.11358 z m 1.89428,3.01573 v 5.09018 h 1.52875 c 1.54311,0 2.52485,-0.52743 2.94524,-1.58489 0.1214,-0.3081 0.18276,-0.61228 0.18276,-0.91124 v -0.15406 c 0,-1.15929 -0.67885,-1.95434 -2.03398,-2.38386 l -1.05225,-0.0561 h -1.57052 z m 0,7.99364 v 7.08239 h 2.32772 c 1.86036,0 3.09929,-0.51437 3.71679,-1.54311 0.41124,-0.58879 0.61751,-1.23894 0.61751,-1.94913 v -0.0979 c 0,-1.69195 -0.9256,-2.82252 -2.77683,-3.39433 l -1.41647,-0.0979 h -2.46872 z"
         inkscape:connector-curvature="0" />
      <path
         style="fill:#ffffff"
         id="path4128"
         d="m 481.0983,419.72334 c 0.91646,0.235 1.37469,0.67365 1.37469,1.31857 v 0.22455 c 1.15929,-1.02744 2.66976,-1.54312 4.53012,-1.54312 1.00132,0 2.0849,0.25197 3.25333,0.7572 0.40209,0.41124 0.60315,0.80811 0.60315,1.19193 v 0.0979 c -0.15928,0.91646 -0.63055,1.3747 -1.41648,1.3747 h -0.12664 c -0.96216,-0.3081 -1.66322,-0.46215 -2.10318,-0.46215 h -0.30809 c -1.88777,0 -3.27292,0.98174 -4.15152,2.94523 -0.18801,0.51437 -0.28069,1.1136 -0.28069,1.79507 v 6.22729 c 0,0.75719 -0.46737,1.21542 -1.40212,1.3747 h -0.0836 c -0.76633,0 -1.23894,-0.47651 -1.41649,-1.43085 v -12.25743 c 0.11097,-1.07574 0.62143,-1.61361 1.52746,-1.61361 z"
         inkscape:connector-curvature="0" />
      <path
         style="fill:#ffffff"
         id="path4130"
         d="m 494.40012,416.14755 c 0.92561,0.23369 1.38777,0.67364 1.38777,1.31857 v 0.3081 c 0,0.73761 -0.50132,1.17757 -1.50003,1.31856 -0.72065,0 -1.19192,-0.49087 -1.41648,-1.47261 0.19713,-0.98175 0.70628,-1.47262 1.52874,-1.47262 z m 0,3.59015 c 0.92561,0.23369 1.38777,0.67365 1.38777,1.31857 v 12.59295 c 0,0.7572 -0.46737,1.21542 -1.40212,1.3747 h -0.0836 c -0.76765,0 -1.23894,-0.4765 -1.4165,-1.43084 v -12.25743 c 0.11228,-1.0653 0.61752,-1.59795 1.5144,-1.59795 z"
         inkscape:connector-curvature="0" />
      <path
         style="fill:#ffffff"
         id="path4132"
         d="m 505.38731,419.79384 c 1.96349,0 3.75855,0.74806 5.38523,2.24417 0.15927,0.28983 0.2389,0.55746 0.2389,0.79898 v 0.0979 c -0.16841,0.91647 -0.63969,1.37471 -1.41647,1.37471 h -0.0561 c -0.34596,0 -0.98175,-0.35119 -1.90735,-1.05225 -0.69192,-0.35379 -1.38777,-0.53265 -2.09012,-0.53265 h -0.30811 c -1.86035,0 -3.27291,0.98175 -4.23509,2.94524 -0.22454,0.6645 -0.33681,1.26242 -0.33681,1.79507 0,1.89821 0.98696,3.34341 2.9596,4.333 0.57965,0.22454 1.20629,0.33682 1.87863,0.33682 1.10316,0 2.22459,-0.48044 3.3656,-1.4439 l 0.57442,-0.12664 h 0.21021 c 0.74804,0 1.20105,0.45824 1.36033,1.37471 v 0.0835 c 0,0.91646 -1.22458,1.84208 -3.6737,2.77682 -0.80421,0.14883 -1.40212,0.22454 -1.79508,0.22454 h -0.42038 c -2.05617,0 -3.96353,-0.96216 -5.72205,-2.88909 -1.08488,-1.52353 -1.62666,-3.09928 -1.62666,-4.72595 0,-2.47655 1.09401,-4.55231 3.28205,-6.22728 1.39428,-0.92561 2.83817,-1.38776 4.33299,-1.38776 z"
         inkscape:connector-curvature="0" />
      <path
         style="fill:#ffffff"
         id="path4134"
         d="m 517.86145,427.33838 -1.75329,1.12144 v 5.1894 c 0,0.7572 -0.46737,1.21542 -1.40213,1.3747 h -0.0836 c -0.72063,0 -1.19715,-0.43995 -1.43083,-1.31856 v -18.26017 c 0.19582,-0.92561 0.63578,-1.38776 1.31856,-1.38776 h 0.25196 c 0.8982,0.19583 1.34599,0.62273 1.34599,1.27679 v 9.67644 c 4.57189,-3.02878 7.31346,-4.80036 8.21817,-5.31473 h 0.37991 c 0.8029,0 1.27941,0.50001 1.43085,1.50003 0,0.61751 -0.6371,1.26243 -1.90737,1.93477 -2.08618,1.41125 -3.37604,2.29639 -3.87214,2.65018 l 5.69465,7.20773 0.0837,0.46215 v 0.12663 c -0.16841,0.9256 -0.64492,1.38775 -1.43084,1.38775 h -0.0992 c -0.56138,0 -1.29506,-0.65405 -2.20109,-1.96349 l -4.54317,-5.6633 z"
         inkscape:connector-curvature="0" />
      <path
         style="fill:#ffffff"
         id="path4136"
         d="m 537.08118,430.01728 c -0.007,-0.18668 -0.20105,-0.29895 -0.57312,-0.33681 -4.73248,-1.05616 -7.25733,-1.72849 -7.57327,-2.01963 -0.96346,-0.72977 -1.4452,-1.63188 -1.4452,-2.70631 0,-1.45826 1.01961,-2.8421 3.05751,-4.15153 1.12145,-0.58879 2.23112,-0.88383 3.32513,-0.88383 2.56011,0 4.58496,1.18279 6.07063,3.54838 l 0.0561,0.51828 v 0.0836 c 0,0.79505 -0.4765,1.26243 -1.43084,1.40212 -0.63448,0 -1.22457,-0.4491 -1.76766,-1.34598 -0.84859,-0.83161 -1.82771,-1.24807 -2.92956,-1.24807 -1.44128,0 -2.56794,0.67364 -3.38128,2.01963 l -0.0274,0.13968 c 0,0.18799 0.4034,0.31333 1.20628,0.3786 4.02098,0.9726 6.24165,1.53789 6.66333,1.69717 1.15015,0.75719 1.72328,1.71543 1.72328,2.87473 v 0.0418 c 0,1.59925 -1.12927,3.04314 -3.39432,4.33299 -0.98175,0.43864 -2.01441,0.65928 -3.09798,0.65928 -2.24418,0 -4.13848,-1.04702 -5.68158,-3.14106 -0.19583,-0.28068 -0.29375,-0.55223 -0.29375,-0.81333 v -0.3081 c 0,-0.7572 0.51307,-1.19194 1.54312,-1.30421 0.49478,0 1.07834,0.48174 1.75199,1.44389 0.82377,0.76634 1.78724,1.15017 2.88908,1.15017 1.31074,0 2.39432,-0.61229 3.25334,-1.83686 l 0.0561,-0.19453 z"
         inkscape:connector-curvature="0" />
      <path
         style="fill:none;stroke:#be1e2d;stroke-width:4;stroke-miterlimit:10"
         id="path4156"
         d="m 524.65535,356.52171 h -74.615 c -1.867,0 -3.38,1.514 -3.38,3.38 v 8.606 h 17.437 c 1.865,0 3.379,1.513 3.379,3.379 v 5.322 h 29.559 c 1.867,0 3.379,1.514 3.379,3.379 v 8.486 h 24.242 c 1.867,0 3.381,-1.514 3.381,-3.379 v -25.793 c -10e-4,-1.867 -1.515,-3.38 -3.382,-3.38 z"
         inkscape:connector-curvature="0" />
      <path
         style="fill:none;stroke:#f7941e;stroke-width:4;stroke-miterlimit:10"
         id="path4158"
         d="m 467.47535,397.67971 c 0,1.867 -1.514,3.381 -3.379,3.381 h -45.059 v 5.32 c 0,1.867 1.513,3.381 3.381,3.381 h 74.615 c 1.867,0 3.379,-1.514 3.379,-3.381 v -17.307 h -32.938 v 8.606 z"
         inkscape:connector-curvature="0" />
      <path
         style="fill:none;stroke:#004e7f;stroke-width:4;stroke-miterlimit:10"
         id="path4160"
         d="m 422.41835,377.20871 h 24.241 v -8.701 h -57.18 c -1.866,0 -3.38,1.513 -3.38,3.379 v 25.793 c 0,1.867 1.514,3.381 3.38,3.381 h 29.558 v -20.473 c 0,-1.865 1.513,-3.379 3.381,-3.379 z"
         inkscape:connector-curvature="0" />
      <path
         style="font-size:16px;font-style:normal;font-variant:normal;font-weight:normal;font-stretch:normal;line-height:125%;letter-spacing:0px;word-spacing:0px;fill:#ffffff;fill-opacity:1;stroke:none;font-family:Comfortaa;-inkscape-font-specification:Comfortaa"
         id="path3116"
         d="m 418.93437,440.37701 c 0.96875,1e-5 1.77604,0.43751 2.42188,1.3125 l 0.0312,0.125 0,0.17968 c -10e-6,0.25522 -0.19011,0.41408 -0.57031,0.47657 -0.15626,1e-5 -0.42449,-0.21093 -0.80469,-0.63282 -0.34376,-0.21874 -0.67188,-0.32811 -0.98438,-0.32812 l -0.17968,0 c -0.65626,1e-5 -1.15365,0.34897 -1.49219,1.04687 -0.0781,0.16668 -0.11719,0.33595 -0.11719,0.50782 l 0,0.24218 c 0,0.75522 0.45573,1.30209 1.36719,1.64063 0.65624,1e-5 1.36458,0.3073 2.125,0.92187 0.73437,0.7448 1.10155,1.56251 1.10156,2.45313 -1e-5,1.09375 -0.46876,1.98958 -1.40625,2.6875 -0.57292,0.39583 -1.20834,0.59375 -1.90625,0.59375 -1.13021,0 -2.0651,-0.48698 -2.80469,-1.46094 l -0.0625,-0.24219 c 0.0677,-0.37499 0.25782,-0.56249 0.57032,-0.5625 0.20833,10e-6 0.47656,0.20834 0.80468,0.625 0.48958,0.33855 0.9375,0.50782 1.34375,0.50782 l 0.26563,0 c 0.79166,0 1.42968,-0.44792 1.91406,-1.34375 0.0781,-0.29167 0.11718,-0.51042 0.11719,-0.65625 l 0,-0.29688 c -10e-6,-0.78645 -0.44792,-1.42447 -1.34375,-1.91406 l -1.52344,-0.42188 c -1.13542,-0.65103 -1.70313,-1.5052 -1.70312,-2.5625 l 0,-0.21093 c -10e-6,-1.04166 0.55729,-1.85676 1.67187,-2.44532 0.41666,-0.16144 0.80468,-0.24217 1.16406,-0.24218"
         inkscape:connector-curvature="0" />
      <path
         style="font-size:16px;font-style:normal;font-variant:normal;font-weight:normal;font-stretch:normal;line-height:125%;letter-spacing:0px;word-spacing:0px;fill:#ffffff;fill-opacity:1;stroke:none;font-family:Comfortaa;-inkscape-font-specification:Comfortaa"
         id="path3118"
         d="m 428.54375,440.39263 c 1.89062,10e-6 3.47134,0.87501 4.74219,2.625 0.5729,0.9948 0.85936,1.9974 0.85937,3.00781 -10e-6,1.8698 -0.84636,3.42449 -2.53906,4.66407 -0.95834,0.60937 -1.96095,0.91406 -3.00781,0.91406 l -0.11719,0 c -1.92709,0 -3.5,-0.89583 -4.71875,-2.6875 -0.55209,-0.90625 -0.82813,-1.88802 -0.82813,-2.94531 0,-1.78645 0.78646,-3.29166 2.35938,-4.51563 1.02083,-0.70832 2.10416,-1.06249 3.25,-1.0625 m -4.46094,5.66406 c 0,1.42709 0.63021,2.62761 1.89063,3.60157 0.78645,0.53125 1.62239,0.79687 2.50781,0.79687 l 0.14844,0 c 1.39582,0 2.57551,-0.61979 3.53906,-1.85937 0.55207,-0.79687 0.82811,-1.66406 0.82812,-2.60157 -10e-6,-1.60936 -0.73699,-2.8854 -2.21093,-3.82812 -0.72918,-0.41666 -1.47657,-0.62499 -2.24219,-0.625 -1.47396,1e-5 -2.69532,0.64063 -3.66406,1.92187 -0.53126,0.76564 -0.79688,1.63022 -0.79688,2.59375"
         inkscape:connector-curvature="0" />
      <path
         style="font-size:16px;font-style:normal;font-variant:normal;font-weight:normal;font-stretch:normal;line-height:125%;letter-spacing:0px;word-spacing:0px;fill:#ffffff;fill-opacity:1;stroke:none;font-family:Comfortaa;-inkscape-font-specification:Comfortaa"
         id="path3120"
         d="m 435.96562,440.40826 0.11719,0 c 0.35417,0.0729 0.53125,0.22917 0.53125,0.46875 l 0,9.57812 4.82031,0 c 0.3177,0 0.5052,0.20573 0.5625,0.61719 -0.10417,0.35417 -0.29167,0.53125 -0.5625,0.53125 l -5.40625,0 c -0.30208,0 -0.48958,-0.19792 -0.5625,-0.59375 l 0,-9.95313 c 0.0469,-0.43228 0.21354,-0.64842 0.5,-0.64843"
         inkscape:connector-curvature="0" />
      <path
         style="font-size:16px;font-style:normal;font-variant:normal;font-weight:normal;font-stretch:normal;line-height:125%;letter-spacing:0px;word-spacing:0px;fill:#ffffff;fill-opacity:1;stroke:none;font-family:Comfortaa;-inkscape-font-specification:Comfortaa"
         id="path3122"
         d="m 443.7,440.40826 0.11719,0 c 0.35416,0.0729 0.53124,0.22917 0.53125,0.46875 l 0,6.29687 c -10e-6,1.35417 0.38541,2.26042 1.15625,2.71875 0.48437,0.375 1.02603,0.5625 1.625,0.5625 1.15103,0 2.01822,-0.59114 2.60156,-1.77344 0.11978,-0.36978 0.17968,-0.7552 0.17969,-1.15625 l 0,-6.5625 c 0.0625,-0.36978 0.23957,-0.55467 0.53125,-0.55468 l 0.0859,0 c 0.35416,0.0677 0.53124,0.2448 0.53125,0.53125 l 0,6.88281 c -1e-5,1.17188 -0.5625,2.19531 -1.6875,3.07031 -0.70834,0.47396 -1.42709,0.71094 -2.15625,0.71094 l -0.20312,0 c -1.22396,0 -2.28907,-0.60156 -3.19531,-1.80469 -0.41146,-0.64583 -0.61719,-1.4427 -0.61719,-2.39062 l 0,-6.35157 c 0.0469,-0.43228 0.21354,-0.64842 0.5,-0.64843"
         inkscape:connector-curvature="0" />
      <path
         style="font-size:16px;font-style:normal;font-variant:normal;font-weight:normal;font-stretch:normal;line-height:125%;letter-spacing:0px;word-spacing:0px;fill:#ffffff;fill-opacity:1;stroke:none;font-family:Comfortaa;-inkscape-font-specification:Comfortaa"
         id="path3124"
         d="m 452.80937,440.38482 7.28907,0 c 0.35415,0.0677 0.53124,0.2448 0.53125,0.53125 l 0,0.11719 c -10e-6,0.28647 -0.21616,0.45313 -0.64844,0.5 l -2.9375,0 0,9.53906 c -10e-6,0.29167 -0.18751,0.46875 -0.5625,0.53125 l -0.0234,0 c -0.30209,0 -0.48959,-0.19792 -0.5625,-0.59375 l 0,-9.47656 -2.99219,0 c -0.39583,-0.0781 -0.59375,-0.27343 -0.59375,-0.58594 0.0833,-0.37499 0.25,-0.56249 0.5,-0.5625"
         inkscape:connector-curvature="0" />
      <path
         style="font-size:16px;font-style:normal;font-variant:normal;font-weight:normal;font-stretch:normal;line-height:125%;letter-spacing:0px;word-spacing:0px;fill:#ffffff;fill-opacity:1;stroke:none;font-family:Comfortaa;-inkscape-font-specification:Comfortaa"
         id="path3126"
         d="m 462.60625,440.29107 0.14844,0.0234 1.10937,0 0.11719,-0.0234 c 0.39583,0.0833 0.59375,0.28126 0.59375,0.59375 -0.0677,0.39584 -0.25521,0.59376 -0.5625,0.59375 l -0.125,0 0,8.96094 0.17969,0 c 0.26041,0 0.42968,0.1901 0.50781,0.57031 l 0,0.0312 c -0.0677,0.375 -0.25521,0.5625 -0.5625,0.5625 l -1.40625,0 c -0.375,-0.0677 -0.5625,-0.25521 -0.5625,-0.5625 l 0,-0.0312 c 0.0781,-0.38021 0.24739,-0.57031 0.50781,-0.57031 l 0.17969,0 0,-8.96094 -0.125,0 c -0.32813,1e-5 -0.51563,-0.20832 -0.5625,-0.625 l 0,-0.0312 c 0,-0.24478 0.1875,-0.42186 0.5625,-0.53125"
         inkscape:connector-curvature="0" />
      <path
         style="font-size:16px;font-style:normal;font-variant:normal;font-weight:normal;font-stretch:normal;line-height:125%;letter-spacing:0px;word-spacing:0px;fill:#ffffff;fill-opacity:1;stroke:none;font-family:Comfortaa;-inkscape-font-specification:Comfortaa"
         id="path3128"
         d="m 471.7,440.39263 c 1.89062,10e-6 3.47134,0.87501 4.74219,2.625 0.5729,0.9948 0.85936,1.9974 0.85937,3.00781 -10e-6,1.8698 -0.84636,3.42449 -2.53906,4.66407 -0.95834,0.60937 -1.96095,0.91406 -3.00781,0.91406 l -0.11719,0 c -1.92709,0 -3.5,-0.89583 -4.71875,-2.6875 -0.55209,-0.90625 -0.82813,-1.88802 -0.82813,-2.94531 0,-1.78645 0.78646,-3.29166 2.35938,-4.51563 1.02083,-0.70832 2.10416,-1.06249 3.25,-1.0625 m -4.46094,5.66406 c 0,1.42709 0.63021,2.62761 1.89063,3.60157 0.78645,0.53125 1.62239,0.79687 2.50781,0.79687 l 0.14844,0 c 1.39582,0 2.57551,-0.61979 3.53906,-1.85937 0.55207,-0.79687 0.82811,-1.66406 0.82812,-2.60157 -10e-6,-1.60936 -0.73699,-2.8854 -2.21093,-3.82812 -0.72918,-0.41666 -1.47657,-0.62499 -2.24219,-0.625 -1.47396,1e-5 -2.69532,0.64063 -3.66406,1.92187 -0.53126,0.76564 -0.79688,1.63022 -0.79688,2.59375"
         inkscape:connector-curvature="0" />
      <path
         style="font-size:16px;font-style:normal;font-variant:normal;font-weight:normal;font-stretch:normal;line-height:125%;letter-spacing:0px;word-spacing:0px;fill:#ffffff;fill-opacity:1;stroke:none;font-family:Comfortaa;-inkscape-font-specification:Comfortaa"
         id="path3130"
         d="m 479.05937,440.42388 0.11719,0 c 0.25,10e-6 0.46615,0.19533 0.64844,0.58594 0.29166,0.32813 2.42968,3.06511 6.41406,8.21094 0.0417,0 0.0625,0.0286 0.0625,0.0859 l 0.0234,0.0312 0.0312,0 0,-8.38281 c 0.0677,-0.35415 0.24478,-0.53124 0.53125,-0.53125 l 0.0859,0 c 0.29165,10e-6 0.46874,0.18491 0.53125,0.55469 l 0,10.03906 c -1e-5,0.32292 -0.20574,0.51823 -0.61719,0.58594 -0.22397,0 -0.56772,-0.34375 -1.03125,-1.03125 l -6.14844,-7.85156 0,8.32031 c 0,0.29167 -0.1875,0.46875 -0.5625,0.53125 l -0.0234,0 c -0.30208,0 -0.48958,-0.19531 -0.5625,-0.58594 l 0,-9.91406 c 0.0469,-0.43228 0.21354,-0.64843 0.5,-0.64844"
         inkscape:connector-curvature="0" />
      <path
         style="font-size:16px;font-style:normal;font-variant:normal;font-weight:normal;font-stretch:normal;line-height:125%;letter-spacing:0px;word-spacing:0px;fill:#ffffff;fill-opacity:1;stroke:none;font-family:Comfortaa;-inkscape-font-specification:Comfortaa"
         id="path3132"
         d="m 492.12187,440.37701 c 0.96875,1e-5 1.77604,0.43751 2.42188,1.3125 l 0.0312,0.125 0,0.17968 c -10e-6,0.25522 -0.19011,0.41408 -0.57031,0.47657 -0.15626,1e-5 -0.42449,-0.21093 -0.80469,-0.63282 -0.34376,-0.21874 -0.67188,-0.32811 -0.98438,-0.32812 l -0.17968,0 c -0.65626,1e-5 -1.15365,0.34897 -1.49219,1.04687 -0.0781,0.16668 -0.11719,0.33595 -0.11719,0.50782 l 0,0.24218 c 0,0.75522 0.45573,1.30209 1.36719,1.64063 0.65624,1e-5 1.36458,0.3073 2.125,0.92187 0.73437,0.7448 1.10155,1.56251 1.10156,2.45313 -1e-5,1.09375 -0.46876,1.98958 -1.40625,2.6875 -0.57292,0.39583 -1.20834,0.59375 -1.90625,0.59375 -1.13021,0 -2.0651,-0.48698 -2.80469,-1.46094 l -0.0625,-0.24219 c 0.0677,-0.37499 0.25782,-0.56249 0.57032,-0.5625 0.20833,10e-6 0.47656,0.20834 0.80468,0.625 0.48958,0.33855 0.9375,0.50782 1.34375,0.50782 l 0.26563,0 c 0.79166,0 1.42968,-0.44792 1.91406,-1.34375 0.0781,-0.29167 0.11718,-0.51042 0.11719,-0.65625 l 0,-0.29688 c -10e-6,-0.78645 -0.44792,-1.42447 -1.34375,-1.91406 l -1.52344,-0.42188 c -1.13542,-0.65103 -1.70313,-1.5052 -1.70312,-2.5625 l 0,-0.21093 c -10e-6,-1.04166 0.55729,-1.85676 1.67187,-2.44532 0.41666,-0.16144 0.80468,-0.24217 1.16406,-0.24218"
         inkscape:connector-curvature="0" />
    </g>
  </g>
</svg>
