<?xml version="1.0" encoding="UTF-8" standalone="no"?>
<!-- Created with Inkscape (http://www.inkscape.org/) -->

<svg
   xmlns:dc="http://purl.org/dc/elements/1.1/"
   xmlns:cc="http://creativecommons.org/ns#"
   xmlns:rdf="http://www.w3.org/1999/02/22-rdf-syntax-ns#"
   xmlns:svg="http://www.w3.org/2000/svg"
   xmlns="http://www.w3.org/2000/svg"
   xmlns:sodipodi="http://sodipodi.sourceforge.net/DTD/sodipodi-0.dtd"
   xmlns:inkscape="http://www.inkscape.org/namespaces/inkscape"
   width="210mm"
   height="297mm"
   id="svg2"
   version="1.1"
   inkscape:version="0.48.2 r9819"
   sodipodi:docname="win-login.svg">
  <defs
     id="defs4" />
  <sodipodi:namedview
     id="base"
     pagecolor="#ffffff"
     bordercolor="#666666"
     borderopacity="1.0"
     inkscape:pageopacity="0.0"
     inkscape:pageshadow="2"
     inkscape:zoom="1.1405743"
     inkscape:cx="617.02367"
     inkscape:cy="558.64865"
     inkscape:document-units="px"
     inkscape:current-layer="layer1"
     showgrid="false"
     showguides="true"
     inkscape:guide-bbox="true"
     inkscape:window-width="1920"
     inkscape:window-height="1058"
     inkscape:window-x="1362"
     inkscape:window-y="0"
     inkscape:window-maximized="1">
    <sodipodi:guide
       orientation="1,0"
       position="58.252522,675.29775"
       id="guide3106" />
    <sodipodi:guide
       orientation="0,1"
       position="318.59095,899.67784"
       id="guide3108" />
    <sodipodi:guide
       orientation="1,0"
       position="673.14025,667.38692"
       id="guide3110" />
    <sodipodi:guide
       orientation="0,1"
       position="313.55678,499.82102"
       id="guide3112" />
    <sodipodi:guide
       orientation="0,1"
       position="646.16569,643.31624"
       id="guide3795" />
    <sodipodi:guide
       orientation="0,1"
       position="686.93462,657.12508"
       id="guide3797" />
    <sodipodi:guide
       orientation="0,1"
       position="685.40031,588.95767"
       id="guide3799" />
    <sodipodi:guide
       orientation="0,1"
       position="696.3597,575.14883"
       id="guide3801" />
  </sodipodi:namedview>
  <metadata
     id="metadata7">
    <rdf:RDF>
      <cc:Work
         rdf:about="">
        <dc:format>image/svg+xml</dc:format>
        <dc:type
           rdf:resource="http://purl.org/dc/dcmitype/StillImage" />
        <dc:title></dc:title>
      </cc:Work>
    </rdf:RDF>
  </metadata>
  <g
     inkscape:label="Capa 1"
     inkscape:groupmode="layer"
     id="layer1">
    <rect
       style="opacity:0.72222218;color:#000000;fill:#333333;fill-opacity:1;fill-rule:nonzero;stroke:#000000;stroke-width:1.00202894;stroke-miterlimit:4;stroke-dasharray:none;marker:none;visibility:visible;display:inline;overflow:visible;enable-background:accumulate"
       id="rect3789"
       width="591.34332"
       height="351.98499"
       x="70.072746"
       y="164.72392"
       ry="0" />
    <g
       id="g4060"
       transform="translate(-511.6934,165.06239)">
      <g
         style="fill:#ffffff"
         transform="matrix(1.5130069,0,0,1.5130069,-157.55164,-938.0924)"
         id="g3099">
        <path
           style="fill:#ffffff"
           id="path4116"
           d="m 625.8144,706.02921 c 2.14663,0 4.00347,0.89173 5.57054,2.67147 1.08575,1.48747 1.63049,2.89907 1.63049,4.23481 l -0.0534,1.68397 v 5.99837 c 0,1.25614 -0.91785,2.5869 -2.75231,3.99477 -1.39917,0.91661 -2.86425,1.37553 -4.39524,1.37553 -2.618,0 -4.78328,-1.16658 -6.49337,-3.49977 -0.33829,-0.57085 -0.50743,-0.97506 -0.50743,-1.21634 v -0.14676 c 0,-0.65045 0.41788,-1.06834 1.25614,-1.25614 h 0.18655 c 0.6318,0 1.12555,0.48131 1.48249,1.4427 1.08576,1.3631 2.44512,2.04464 4.07437,2.04464 1.95013,0 3.41023,-0.87308 4.38157,-2.61799 l 0.0796,-0.53479 v -1.29593 c -1.09571,1.01485 -2.53467,1.52353 -4.31565,1.52353 h -0.39802 c -1.94266,0 -3.74603,-0.90791 -5.41135,-2.72495 -1.02481,-1.4427 -1.53597,-2.9339 -1.53597,-4.47608 0,-2.34314 1.03227,-4.30197 3.09931,-5.87899 1.31708,-0.88054 2.68515,-1.32205 4.10173,-1.32205 z m -4.46241,7.05427 v 0.24004 c 0,1.85312 0.97507,3.23363 2.92643,4.14153 0.50744,0.15173 0.97009,0.22759 1.38922,0.22759 h 0.29351 c 1.8071,0 3.17518,-0.97009 4.10173,-2.91274 0.14179,-0.57957 0.21392,-1.02854 0.21392,-1.34942 v -0.3072 c 0,-1.84316 -0.98501,-3.22492 -2.95255,-4.14152 -0.61439,-0.14179 -1.08699,-0.21392 -1.41658,-0.21392 h -0.18655 c -1.80834,0 -3.17642,0.95889 -4.10173,2.87295 -0.17909,0.52609 -0.2674,1.0074 -0.2674,1.44269 z"
           inkscape:connector-curvature="0" />
        <g
           style="fill:#ffffff"
           id="g4810"
           transform="matrix(1.0496968,0,0,1.0496968,524.37728,613.97923)">
          <path
             style="fill:#ffffff"
             id="path4112"
             d="m 62.295139,82.450479 h 0.240035 c 0.846961,0.179093 1.269819,0.579565 1.269819,1.20266 v 15.979088 h 7.842787 c 0.774827,0 1.233754,0.493753 1.375535,1.482503 -0.25869,0.85566 -0.716372,1.28225 -1.375535,1.28225 h -9.245682 c -0.740004,0 -1.193954,-0.45769 -1.363098,-1.37554 V 83.934216 c 0.106958,-0.988743 0.526086,-1.483737 1.256139,-1.483737 z"
             inkscape:connector-curvature="0" />
          <path
             style="fill:#ffffff"
             id="path4114"
             d="m 81.220558,87.994905 c 1.860578,0 3.544552,0.70269 5.050674,2.110562 1.432745,1.50488 2.150362,3.202536 2.150362,5.090472 0,2.698837 -1.273551,4.819341 -3.820654,6.359051 -1.114357,0.56091 -2.191403,0.84199 -3.233626,0.84199 h -0.400472 c -1.942662,0 -3.746031,-0.90791 -5.411348,-2.724954 -1.02481,-1.442691 -1.535973,-2.93389 -1.535973,-4.476087 0,-2.341894 1.032274,-4.301965 3.099306,-5.878979 1.317081,-0.880542 2.685153,-1.322055 4.101731,-1.322055 z m -4.408925,7.054279 v 0.240034 c 0,1.665318 0.804675,2.957521 2.417757,3.874132 0.569616,0.293521 1.184005,0.440276 1.843166,0.440276 h 0.293515 c 1.718796,0 3.035877,-0.89547 3.954973,-2.685159 0.203968,-0.552199 0.307194,-1.095703 0.307194,-1.630495 v -0.238788 c 0,-1.38051 -0.638018,-2.547102 -1.910326,-3.499779 -0.740003,-0.50743 -1.589451,-0.761145 -2.552077,-0.761145 -1.880478,0 -3.259745,0.988743 -4.141529,2.966227 -0.143026,0.462661 -0.212673,0.894225 -0.212673,1.294697 z"
             inkscape:connector-curvature="0" />
          <path
             style="fill:#ffffff"
             id="path4118"
             d="m 107.52486,84.415529 c 0.88178,0.222622 1.32207,0.64175 1.32207,1.256139 v 0.293513 c 0,0.702692 -0.47635,1.12182 -1.42902,1.256141 -0.68653,0 -1.1355,-0.467632 -1.34942,-1.402896 0.1878,-0.935265 0.67285,-1.402897 1.45637,-1.402897 z m 0,3.420181 c 0.88178,0.222623 1.32207,0.641751 1.32207,1.256139 V 101.0886 c 0,0.72135 -0.44525,1.15788 -1.33575,1.30962 h -0.0796 c -0.73006,0 -1.18028,-0.45394 -1.34942,-1.3631 V 89.358002 c 0.10696,-1.014861 0.58826,-1.522292 1.44269,-1.522292 z"
             inkscape:connector-curvature="0" />
          <path
             style="fill:#ffffff"
             id="path4120"
             d="m 117.99186,87.889189 c 1.87053,0 3.58062,0.712641 5.13028,2.137925 0.15173,0.276102 0.22759,0.53106 0.22759,0.761146 v 0.09328 c -0.16044,0.873079 -0.60941,1.30962 -1.34942,1.30962 h -0.0534 c -0.32958,0 -0.93526,-0.334558 -1.81705,-1.002426 -0.65916,-0.337043 -1.32206,-0.50743 -1.99117,-0.50743 h -0.29351 c -1.77228,0 -3.11797,0.935264 -4.03458,2.805794 -0.21392,0.633043 -0.32087,1.202657 -0.32087,1.710091 0,1.808341 0.94023,3.185117 2.81947,4.127855 0.55221,0.213913 1.14918,0.320869 1.78969,0.320869 1.05093,0 2.11927,-0.457687 3.20627,-1.375539 l 0.54722,-0.120638 h 0.20025 c 0.71263,0 1.14419,0.436541 1.29593,1.309622 v 0.07956 c 0,0.873072 -1.16659,1.754862 -3.49977,2.645352 -0.76614,0.14178 -1.33574,0.21391 -1.7101,0.21391 h -0.40047 c -1.95883,0 -3.77588,-0.91661 -5.45115,-2.752314 -1.03351,-1.451393 -1.54965,-2.952541 -1.54965,-4.502201 0,-2.359301 1.04222,-4.336786 3.12667,-5.932457 1.32702,-0.881784 2.7038,-1.322055 4.12785,-1.322055 z"
             inkscape:connector-curvature="0" />
          <path
             style="fill:#ffffff"
             id="path4122"
             d="m 136.12877,100.87468 c -1.08699,1.01487 -2.52099,1.52354 -4.30197,1.52354 h -0.38803 c -2.45881,0 -4.50718,-1.22877 -6.14513,-3.687579 -0.59698,-1.193958 -0.89547,-2.39164 -0.89547,-3.594297 0,-2.688884 1.31833,-4.823079 3.95497,-6.400092 1.12183,-0.526087 2.21753,-0.788507 3.28711,-0.788507 2.73365,0 4.8977,1.335736 6.49338,4.008451 0.49001,1.095703 0.73502,2.222496 0.73502,3.38038 v 5.784464 c 0,0.71265 -0.43779,1.1442 -1.30962,1.29594 h -0.0933 c -0.60569,0 -1.05591,-0.3557 -1.34942,-1.06835 v -0.14675 l 0.0124,-0.3072 z m -8.97828,-5.811813 v 0.146755 c 0,1.825756 0.9166,3.197557 2.7523,4.115419 0.56962,0.213913 1.08202,0.320869 1.53598,0.320869 h 0.38803 c 1.51359,0 2.76601,-0.761146 3.75474,-2.284683 0.35571,-0.7114 0.53479,-1.394194 0.53479,-2.044651 v -0.200232 c 0,-1.753618 -0.86809,-3.099307 -2.60555,-4.034571 -0.59697,-0.267396 -1.22008,-0.400472 -1.87053,-0.400472 h -0.0534 c -1.84316,0 -3.23362,0.961382 -4.16889,2.88539 -0.17784,0.588269 -0.26739,1.086993 -0.26739,1.496176 z"
             inkscape:connector-curvature="0" />
          <path
             style="fill:#ffffff"
             id="path4124"
             d="m 142.85471,82.531321 h 0.24004 c 0.84572,0.179092 1.26982,0.579564 1.26982,1.202659 v 15.898247 h 0.65419 c 0.64922,0 1.06833,0.440263 1.25613,1.322063 v 0.10696 c -0.15173,0.89048 -0.60567,1.33573 -1.36309,1.33573 h -1.95013 c -0.74,0 -1.19395,-0.45396 -1.3631,-1.3631 V 84.001376 c 0.10696,-0.980038 0.52484,-1.470055 1.25614,-1.470055 z"
             inkscape:connector-curvature="0" />
          <path
             style="fill:#ffffff"
             id="path4126"
             d="m 148.28473,82.397 0.66785,0.106958 h 3.00603 l 0.20024,-0.0398 c 1.69144,0 3.12169,0.779802 4.28828,2.338161 0.59574,0.873079 0.89547,1.822024 0.89547,2.84559 v 0.146758 c 0,1.247434 -0.37933,2.303336 -1.1355,3.166466 2.03097,1.114357 3.04583,2.8941 3.04583,5.344194 0,2.458797 -1.27356,4.346743 -3.82066,5.665063 -0.8283,0.28481 -1.56831,0.42783 -2.21752,0.42783 h -4.56935 c -0.88179,-0.16044 -1.32207,-0.61438 -1.32207,-1.3631 V 83.840938 c 0.13307,-0.89049 0.45395,-1.335736 0.9614,-1.335736 V 82.397 z m 1.8046,2.872952 v 4.849195 h 1.45637 c 1.47006,0 2.40532,-0.502455 2.8058,-1.509854 0.11566,-0.293514 0.17411,-0.583296 0.17411,-0.868104 v -0.146758 c 0,-1.104407 -0.64671,-1.861821 -1.93768,-2.271 l -1.00243,-0.05347 h -1.49617 z m 0,7.615192 v 6.747083 h 2.21752 c 1.77228,0 2.95255,-0.490015 3.54082,-1.470056 0.39177,-0.560911 0.58827,-1.180277 0.58827,-1.856846 v -0.09328 c 0,-1.611841 -0.88177,-2.688883 -2.64536,-3.233625 l -1.34941,-0.09328 h -2.35184 z"
             inkscape:connector-curvature="0" />
          <path
             style="fill:#ffffff"
             id="path4128"
             d="m 162.9741,87.822029 c 0.87307,0.223867 1.30961,0.641752 1.30961,1.256141 v 0.213915 c 1.1044,-0.978792 2.54336,-1.470056 4.31564,-1.470056 0.95392,0 1.98619,0.240036 3.09931,0.721349 0.38305,0.391765 0.57459,0.76985 0.57459,1.135499 v 0.09328 c -0.15174,0.873079 -0.6007,1.309618 -1.34942,1.309618 h -0.12064 c -0.91661,-0.293513 -1.58448,-0.440271 -2.00361,-0.440271 h -0.2935 c -1.7984,0 -3.11797,0.935265 -3.95497,2.805792 -0.17911,0.490018 -0.2674,1.06088 -0.2674,1.71009 v 5.932464 c 0,0.72134 -0.44525,1.15788 -1.33574,1.30961 h -0.0796 c -0.73005,0 -1.18028,-0.45395 -1.34942,-1.3631 V 89.359245 c 0.10571,-1.024811 0.592,-1.537216 1.45514,-1.537216 z"
             inkscape:connector-curvature="0" />
          <path
             style="fill:#ffffff"
             id="path4130"
             d="m 175.64616,84.415529 c 0.88179,0.222622 1.32207,0.64175 1.32207,1.256139 v 0.293513 c 0,0.702692 -0.47759,1.12182 -1.42902,1.256141 -0.68653,0 -1.13549,-0.467632 -1.34942,-1.402896 0.1878,-0.935265 0.67285,-1.402897 1.45637,-1.402897 z m 0,3.420181 c 0.88179,0.222623 1.32207,0.641751 1.32207,1.256139 V 101.0886 c 0,0.72135 -0.44525,1.15788 -1.33574,1.30962 h -0.0796 c -0.7313,0 -1.18028,-0.45394 -1.34943,-1.3631 V 89.358002 c 0.10696,-1.014861 0.58828,-1.522292 1.4427,-1.522292 z"
             inkscape:connector-curvature="0" />
          <path
             style="fill:#ffffff"
             id="path4132"
             d="m 186.11317,87.889189 c 1.87053,0 3.58061,0.712641 5.13027,2.137925 0.15173,0.276102 0.22759,0.53106 0.22759,0.761146 v 0.09328 c -0.16043,0.873079 -0.6094,1.30962 -1.34941,1.30962 h -0.0534 c -0.32958,0 -0.93527,-0.334558 -1.81705,-1.002426 -0.65916,-0.337043 -1.32207,-0.50743 -1.99117,-0.50743 h -0.29352 c -1.77227,0 -3.11796,0.935264 -4.03458,2.805794 -0.21391,0.633043 -0.32087,1.202657 -0.32087,1.710091 0,1.808341 0.94024,3.185117 2.81948,4.127855 0.55221,0.213913 1.14918,0.320869 1.78969,0.320869 1.05093,0 2.11927,-0.457687 3.20626,-1.375539 l 0.54723,-0.120638 h 0.20025 c 0.71263,0 1.14419,0.436541 1.29593,1.309622 v 0.07956 c 0,0.873072 -1.1666,1.754862 -3.49977,2.645352 -0.76614,0.14178 -1.33574,0.21391 -1.7101,0.21391 h -0.40047 c -1.95883,0 -3.77588,-0.91661 -5.45115,-2.752314 -1.03352,-1.451393 -1.54965,-2.952541 -1.54965,-4.502201 0,-2.359301 1.04222,-4.336786 3.12667,-5.932457 1.32827,-0.881784 2.7038,-1.322055 4.12785,-1.322055 z"
             inkscape:connector-curvature="0" />
          <path
             style="fill:#ffffff"
             id="path4134"
             d="m 197.99674,95.076542 -1.67029,1.068345 v 4.943713 c 0,0.72135 -0.44524,1.15788 -1.33574,1.30962 h -0.0796 c -0.68651,0 -1.14047,-0.41912 -1.36309,-1.25614 V 83.746418 c 0.18655,-0.881786 0.60568,-1.322056 1.25614,-1.322056 h 0.24003 c 0.85567,0.186555 1.28226,0.593246 1.28226,1.21634 v 9.218323 c 4.35544,-2.88539 6.96722,-4.573095 7.82909,-5.063113 h 0.36193 c 0.76488,0 1.21883,0.476338 1.3631,1.429014 0,0.588271 -0.60693,1.20266 -1.81706,1.843167 -1.98742,1.344442 -3.21621,2.187672 -3.68882,2.524717 l 5.42504,6.86648 0.0797,0.44027 v 0.12064 c -0.16044,0.88178 -0.61439,1.32205 -1.3631,1.32205 h -0.0945 c -0.5348,0 -1.23375,-0.62309 -2.09688,-1.87053 l -4.32808,-5.395178 z"
             inkscape:connector-curvature="0" />
          <path
             style="fill:#ffffff"
             id="path4136"
             d="m 216.30653,97.628615 c -0.007,-0.177842 -0.19153,-0.284803 -0.54599,-0.320866 -4.50842,-1.006156 -6.91374,-1.646663 -7.21472,-1.924013 -0.91785,-0.695222 -1.37678,-1.554624 -1.37678,-2.578189 0,-1.389218 0.97134,-2.707542 2.91276,-3.954976 1.06835,-0.56091 2.12549,-0.841986 3.1677,-0.841986 2.43891,0 4.36789,1.126794 5.78322,3.380383 l 0.0534,0.493749 v 0.0796 c 0,0.757411 -0.45394,1.202657 -1.3631,1.335738 -0.60444,0 -1.16659,-0.427839 -1.68397,-1.282259 -0.80841,-0.792239 -1.74118,-1.188979 -2.79086,-1.188979 -1.37305,0 -2.44637,0.641749 -3.2212,1.924009 l -0.0261,0.133073 c 0,0.179093 0.3843,0.29849 1.14917,0.360678 3.83061,0.926554 5.94614,1.465079 6.34786,1.616813 1.0957,0.721342 1.64169,1.634219 1.64169,2.738632 v 0.0398 c 0,1.523532 -1.0758,2.899068 -3.23362,4.127848 -0.93527,0.41788 -1.91904,0.62807 -2.95131,0.62807 -2.13793,0 -3.94254,-0.99745 -5.41259,-2.992348 -0.18656,-0.267396 -0.27984,-0.526086 -0.27984,-0.77483 v -0.29351 c 0,-0.721349 0.48878,-1.135509 1.47006,-1.242463 0.47136,0 1.02729,0.458934 1.66905,1.375531 0.78477,0.730055 1.70262,1.095712 2.7523,1.095712 1.24868,0 2.28096,-0.583297 3.09931,-1.749889 l 0.0534,-0.185324 z"
             inkscape:connector-curvature="0" />
        </g>
      </g>
      <path
         style="fill:none;stroke:#be1e2d;stroke-width:6.0520277;stroke-miterlimit:10"
         id="path4156"
         d="M 960.57214,34.71672 H 847.67913 c -2.82478,0 -5.11396,2.290692 -5.11396,5.113963 V 52.85162 h 26.3823 c 2.82176,0 5.11245,2.28918 5.11245,5.112451 v 8.052222 h 44.72297 c 2.82478,0 5.11245,2.290693 5.11245,5.112451 V 83.96812 h 36.67831 c 2.82479,0 5.11548,-2.290692 5.11548,-5.11245 V 39.830683 c -0.002,-2.824784 -2.29221,-5.113963 -5.11699,-5.113963 z"
         inkscape:connector-curvature="0" />
      <path
         style="fill:none;stroke:#f7941e;stroke-width:6.0520277;stroke-miterlimit:10"
         id="path4158"
         d="m 874.0584,96.989058 c 0,2.824784 -2.29069,5.115472 -5.11245,5.115472 h -68.17457 v 8.0492 c 0,2.82478 2.28918,5.11548 5.11547,5.11548 h 112.89301 c 2.82479,0 5.11245,-2.2907 5.11245,-5.11548 V 83.96812 h -49.83542 v 13.020938 z"
         inkscape:connector-curvature="0" />
      <path
         style="fill:none;stroke:#004e7f;stroke-width:6.0520277;stroke-miterlimit:10"
         id="path4160"
         d="m 805.88685,66.016293 h 36.6768 V 52.85162 h -86.51373 c -2.82327,0 -5.11396,2.28918 -5.11396,5.112451 v 39.024987 c 0,2.824784 2.29069,5.115472 5.11396,5.115472 h 44.72146 V 71.128744 c 0,-2.821758 2.28918,-5.112451 5.11547,-5.112451 z"
         inkscape:connector-curvature="0" />
      <path
         style="font-size:16px;font-style:normal;font-variant:normal;font-weight:normal;font-stretch:normal;line-height:125%;letter-spacing:0px;word-spacing:0px;fill:#ffffff;fill-opacity:1;stroke:none;font-family:Comfortaa;-inkscape-font-specification:Comfortaa"
         id="path3116"
         d="m 800.61557,161.59037 c 1.46572,1e-5 2.68716,0.66195 3.66432,1.98582 l 0.0472,0.18912 0,0.27186 c -10e-6,0.38615 -0.28763,0.62651 -0.86288,0.72106 -0.23642,1e-5 -0.64225,-0.31914 -1.2175,-0.95747 -0.52011,-0.33095 -1.01656,-0.49643 -1.48937,-0.49644 l -0.27186,0 c -0.99293,1e-5 -1.74548,0.52799 -2.25769,1.58392 -0.11817,0.25219 -0.17731,0.50829 -0.17731,0.76833 l 0,0.36642 c 0,1.14266 0.68952,1.97007 2.06856,2.48229 0.9929,1e-5 2.06462,0.46494 3.21514,1.39479 1.11111,1.12689 1.66666,2.36409 1.66667,3.71161 -10e-6,1.65485 -0.70924,3.01024 -2.12766,4.0662 -0.86684,0.5989 -1.82823,0.89835 -2.88417,0.89835 -1.71002,0 -3.12451,-0.7368 -4.24352,-2.21041 l -0.0946,-0.36644 c 0.10243,-0.56736 0.39008,-0.85105 0.8629,-0.85106 0.3152,10e-6 0.72103,0.31522 1.21748,0.94563 0.74074,0.51222 1.41845,0.76833 2.03311,0.76833 l 0.4019,0 c 1.19778,0 2.16311,-0.67771 2.89598,-2.0331 0.11817,-0.4413 0.1773,-0.77227 0.17731,-0.99291 l 0,-0.44918 c -1e-5,-1.18991 -0.67771,-2.15524 -2.0331,-2.89599 l -2.30498,-0.63831 c -1.7179,-0.98501 -2.57685,-2.27738 -2.57683,-3.87708 l 0,-0.31914 c -2e-5,-1.57604 0.84318,-2.80929 2.52955,-3.69978 0.63041,-0.24426 1.21749,-0.36641 1.76123,-0.36642"
         inkscape:connector-curvature="0" />
      <path
         style="font-size:16px;font-style:normal;font-variant:normal;font-weight:normal;font-stretch:normal;line-height:125%;letter-spacing:0px;word-spacing:0px;fill:#ffffff;fill-opacity:1;stroke:none;font-family:Comfortaa;-inkscape-font-specification:Comfortaa"
         id="path3118"
         d="m 815.15463,161.614 c 2.86052,2e-5 5.25216,1.3239 7.17496,3.97164 0.8668,1.50514 1.30022,3.02208 1.30023,4.55084 -10e-6,2.82902 -1.28054,5.18128 -3.84161,7.05677 -1.44998,0.92198 -2.96693,1.38298 -4.55084,1.38298 l -0.17731,0 c -2.9157,0 -5.29552,-1.3554 -7.1395,-4.06621 -0.83531,-1.37116 -1.25297,-2.85658 -1.25297,-4.45627 0,-2.70291 1.18992,-4.9803 3.56976,-6.83218 1.54453,-1.07169 3.18361,-1.60755 4.91728,-1.60757 m -6.74944,8.56976 c 0,2.1592 0.95351,3.97559 2.86054,5.4492 1.1899,0.80379 2.45469,1.20567 3.79433,1.20567 l 0.22459,0 c 2.11189,0 3.89677,-0.93774 5.35463,-2.81324 0.83528,-1.20567 1.25293,-2.51773 1.25295,-3.93619 -2e-5,-2.43497 -1.11507,-4.36563 -3.34516,-5.79197 -1.10325,-0.63041 -2.23406,-0.94562 -3.39244,-0.94563 -2.23012,1e-5 -4.07804,0.96928 -5.54375,2.9078 -0.8038,1.15842 -1.20569,2.46653 -1.20569,3.92436"
         inkscape:connector-curvature="0" />
      <path
         style="font-size:16px;font-style:normal;font-variant:normal;font-weight:normal;font-stretch:normal;line-height:125%;letter-spacing:0px;word-spacing:0px;fill:#ffffff;fill-opacity:1;stroke:none;font-family:Comfortaa;-inkscape-font-specification:Comfortaa"
         id="path3120"
         d="m 826.38397,161.63765 0.17731,0 c 0.53586,0.1103 0.80378,0.34673 0.80378,0.70922 l 0,14.49176 7.29316,0 c 0.48068,0 0.76437,0.31127 0.85107,0.93382 -0.15761,0.53586 -0.4413,0.80378 -0.85107,0.80378 l -8.17969,0 c -0.45705,0 -0.74074,-0.29945 -0.85107,-0.89835 l 0,-15.05915 c 0.071,-0.65404 0.32309,-0.98107 0.75651,-0.98108"
         inkscape:connector-curvature="0" />
      <path
         style="font-size:16px;font-style:normal;font-variant:normal;font-weight:normal;font-stretch:normal;line-height:125%;letter-spacing:0px;word-spacing:0px;fill:#ffffff;fill-opacity:1;stroke:none;font-family:Comfortaa;-inkscape-font-specification:Comfortaa"
         id="path3122"
         d="m 838.08614,161.63765 0.17731,0 c 0.53584,0.1103 0.80377,0.34673 0.80378,0.70922 l 0,9.52721 c -10e-6,2.04887 0.58313,3.42003 1.74941,4.11349 0.73286,0.56737 1.5524,0.85106 2.45864,0.85106 1.74152,0 3.05358,-0.8944 3.93618,-2.68322 0.18123,-0.55948 0.27186,-1.14263 0.27187,-1.74942 l 0,-9.92911 c 0.0946,-0.55948 0.36247,-0.83922 0.80379,-0.83923 l 0.12996,0 c 0.53585,0.10243 0.80377,0.37038 0.80379,0.80378 l 0,10.41374 c -2e-5,1.77307 -0.85107,3.32152 -2.5532,4.6454 -1.07172,0.71711 -2.1592,1.07566 -3.26242,1.07566 l -0.30732,0 c -1.85186,0 -3.46338,-0.91016 -4.83453,-2.73051 -0.62254,-0.97714 -0.93381,-2.18281 -0.93381,-3.61702 l 0,-9.60997 c 0.071,-0.65404 0.32309,-0.98107 0.7565,-0.98108"
         inkscape:connector-curvature="0" />
      <path
         style="font-size:16px;font-style:normal;font-variant:normal;font-weight:normal;font-stretch:normal;line-height:125%;letter-spacing:0px;word-spacing:0px;fill:#ffffff;fill-opacity:1;stroke:none;font-family:Comfortaa;-inkscape-font-specification:Comfortaa"
         id="path3124"
         d="m 851.86868,161.60218 11.02841,0 c 0.53583,0.10243 0.80377,0.37039 0.80378,0.80379 l 0,0.17731 c -10e-6,0.43343 -0.32705,0.68559 -0.98109,0.7565 l -4.44446,0 0,14.43267 c -10e-6,0.44129 -0.2837,0.70922 -0.85106,0.80378 l -0.0354,0 c -0.45706,0 -0.74075,-0.29945 -0.85106,-0.89835 l 0,-14.3381 -4.52721,0 c -0.59889,-0.11816 -0.89835,-0.4137 -0.89835,-0.88653 0.12604,-0.56736 0.37825,-0.85105 0.75651,-0.85107"
         inkscape:connector-curvature="0" />
      <path
         style="font-size:16px;font-style:normal;font-variant:normal;font-weight:normal;font-stretch:normal;line-height:125%;letter-spacing:0px;word-spacing:0px;fill:#ffffff;fill-opacity:1;stroke:none;font-family:Comfortaa;-inkscape-font-specification:Comfortaa"
         id="path3126"
         d="m 866.69142,161.46034 0.22459,0.0354 1.67849,0 0.17731,-0.0354 c 0.59889,0.12603 0.89835,0.42555 0.89835,0.89835 -0.10244,0.59891 -0.38614,0.89836 -0.85107,0.89835 l -0.18913,0 0,13.55796 0.27188,0 c 0.394,0 0.6501,0.28762 0.76832,0.86288 l 0,0.0472 c -0.10244,0.56738 -0.38614,0.85106 -0.85107,0.85106 l -2.12767,0 c -0.56737,-0.10243 -0.85106,-0.38613 -0.85106,-0.85106 l 0,-0.0472 c 0.11816,-0.57526 0.3743,-0.86288 0.76832,-0.86288 l 0.27187,0 0,-13.55796 -0.18913,0 c -0.49646,1e-5 -0.78015,-0.31519 -0.85106,-0.94563 l 0,-0.0472 c 0,-0.37035 0.28369,-0.63828 0.85106,-0.80378"
         inkscape:connector-curvature="0" />
      <path
         style="font-size:16px;font-style:normal;font-variant:normal;font-weight:normal;font-stretch:normal;line-height:125%;letter-spacing:0px;word-spacing:0px;fill:#ffffff;fill-opacity:1;stroke:none;font-family:Comfortaa;-inkscape-font-specification:Comfortaa"
         id="path3128"
         d="m 880.45033,161.614 c 2.86052,2e-5 5.25216,1.3239 7.17497,3.97164 0.8668,1.50514 1.30021,3.02208 1.30023,4.55084 -2e-5,2.82902 -1.28055,5.18128 -3.84162,7.05677 -1.44997,0.92198 -2.96693,1.38298 -4.55083,1.38298 l -0.17731,0 c -2.9157,0 -5.29553,-1.3554 -7.1395,-4.06621 -0.83532,-1.37116 -1.25297,-2.85658 -1.25297,-4.45627 0,-2.70291 1.18992,-4.9803 3.56976,-6.83218 1.54452,-1.07169 3.18361,-1.60755 4.91727,-1.60757 m -6.74943,8.56976 c 0,2.1592 0.95351,3.97559 2.86053,5.4492 1.18991,0.80379 2.45469,1.20567 3.79434,1.20567 l 0.22459,0 c 2.11188,0 3.89676,-0.93774 5.35462,-2.81324 0.83529,-1.20567 1.25294,-2.51773 1.25295,-3.93619 -1e-5,-2.43497 -1.11507,-4.36563 -3.34515,-5.79197 -1.10326,-0.63041 -2.23406,-0.94562 -3.39245,-0.94563 -2.23011,1e-5 -4.07804,0.96928 -5.54375,2.9078 -0.8038,1.15842 -1.20568,2.46653 -1.20568,3.92436"
         inkscape:connector-curvature="0" />
      <path
         style="font-size:16px;font-style:normal;font-variant:normal;font-weight:normal;font-stretch:normal;line-height:125%;letter-spacing:0px;word-spacing:0px;fill:#ffffff;fill-opacity:1;stroke:none;font-family:Comfortaa;-inkscape-font-specification:Comfortaa"
         id="path3130"
         d="m 891.58511,161.66128 0.17731,0 c 0.37825,2e-5 0.70528,0.29554 0.98109,0.88653 0.44128,0.49647 3.67612,4.63754 9.70452,12.42321 0.0631,0 0.0946,0.0433 0.0946,0.12997 l 0.0354,0.0472 0.0472,0 0,-12.68325 c 0.10243,-0.53584 0.37035,-0.80377 0.80379,-0.80379 l 0.12996,0 c 0.44127,2e-5 0.70921,0.27977 0.80379,0.83925 l 0,15.18917 c -2e-5,0.48858 -0.31129,0.78408 -0.93381,0.88653 -0.33887,0 -0.85897,-0.5201 -1.56029,-1.56029 l -9.30264,-11.87946 0,12.58868 c 0,0.4413 -0.28368,0.70922 -0.85106,0.80379 l -0.0354,0 c -0.45705,0 -0.74073,-0.29551 -0.85106,-0.88653 l 0,-15.00004 c 0.071,-0.65405 0.32309,-0.98108 0.7565,-0.9811"
         inkscape:connector-curvature="0" />
      <path
         style="font-size:16px;font-style:normal;font-variant:normal;font-weight:normal;font-stretch:normal;line-height:125%;letter-spacing:0px;word-spacing:0px;fill:#ffffff;fill-opacity:1;stroke:none;font-family:Comfortaa;-inkscape-font-specification:Comfortaa"
         id="path3132"
         d="m 911.34876,161.59037 c 1.46573,1e-5 2.68716,0.66195 3.66432,1.98582 l 0.0472,0.18912 0,0.27186 c -2e-5,0.38615 -0.28764,0.62651 -0.86289,0.72106 -0.23642,1e-5 -0.64225,-0.31914 -1.2175,-0.95747 -0.52011,-0.33095 -1.01656,-0.49643 -1.48937,-0.49644 l -0.27186,0 c -0.99292,1e-5 -1.74548,0.52799 -2.25769,1.58392 -0.11817,0.25219 -0.17731,0.50829 -0.17731,0.76833 l 0,0.36642 c 0,1.14266 0.68952,1.97007 2.06857,2.48229 0.99289,1e-5 2.06462,0.46494 3.21514,1.39479 1.1111,1.12689 1.66665,2.36409 1.66666,3.71161 -10e-6,1.65485 -0.70923,3.01024 -2.12766,4.0662 -0.86683,0.5989 -1.82823,0.89835 -2.88417,0.89835 -1.71002,0 -3.12451,-0.7368 -4.24352,-2.21041 l -0.0946,-0.36644 c 0.10243,-0.56736 0.39008,-0.85105 0.8629,-0.85106 0.3152,10e-6 0.72104,0.31522 1.21748,0.94563 0.74074,0.51222 1.41845,0.76833 2.03311,0.76833 l 0.4019,0 c 1.19778,0 2.16311,-0.67771 2.89598,-2.0331 0.11817,-0.4413 0.1773,-0.77227 0.17731,-0.99291 l 0,-0.44918 c -10e-6,-1.18991 -0.6777,-2.15524 -2.0331,-2.89599 l -2.30498,-0.63831 c -1.71789,-0.98501 -2.57684,-2.27738 -2.57683,-3.87708 l 0,-0.31914 c -10e-6,-1.57604 0.84319,-2.80929 2.52955,-3.69978 0.63041,-0.24426 1.21749,-0.36641 1.76123,-0.36642"
         inkscape:connector-curvature="0" />
    </g>
    <path
       style="font-size:medium;font-style:normal;font-variant:normal;font-weight:normal;font-stretch:normal;text-indent:0;text-align:start;text-decoration:none;line-height:normal;letter-spacing:normal;word-spacing:normal;text-transform:none;direction:ltr;block-progression:tb;writing-mode:lr-tb;text-anchor:start;baseline-shift:baseline;opacity:0.57986109;color:#000000;fill:#be1e2d;fill-opacity:1;stroke:none;stroke-width:14;marker:none;visibility:visible;display:inline;overflow:visible;enable-background:accumulate;font-family:Sans;-inkscape-font-specification:Sans"
       d="M 622.34375 395.28125 C 614.70717 395.28125 608.34375 401.64467 608.34375 409.28125 L 608.34375 463.375 C 608.34375 471.01158 614.70717 477.375 622.34375 477.375 L 662.15625 477.375 L 662.15625 463.375 L 622.34375 463.375 L 622.34375 409.28125 L 662.15625 409.28125 L 662.15625 395.28125 L 622.34375 395.28125 z "
       id="rect4129" />
    <rect
       style="color:#000000;fill:none;stroke:#004e7f;stroke-width:14;stroke-miterlimit:4;stroke-opacity:1;stroke-dasharray:none;marker:none;visibility:visible;display:inline;overflow:visible;enable-background:accumulate;opacity:0.57986111"
       id="rect4129-5"
       width="107.62235"
       height="68.082764"
       x="343.51398"
       y="-638.69098"
       ry="7.0029902"
       transform="matrix(0,1,-1,0,0,0)" />
    <rect
       style="color:#000000;fill:none;stroke:#f4921d;stroke-width:14;stroke-miterlimit:4;stroke-opacity:0.98431373000000000;stroke-dasharray:none;marker:none;visibility:visible;display:inline;overflow:visible;enable-background:accumulate;opacity:0.57986111"
       id="rect4129-5-0"
       width="107.62235"
       height="68.082764"
       x="492.54291"
       y="313.41748"
       ry="7.0029902" />
    <rect
       style="color:#000000;fill:none;stroke:none;stroke-width:14;stroke-miterlimit:4;stroke-opacity:0.98431373000000000;stroke-dasharray:none;marker:none;visibility:visible;display:inline;overflow:visible;enable-background:accumulate"
       id="rect4167"
       width="614.88776"
       height="399.85681"
       x="58.252522"
       y="152.68434"
       ry="7.0029902"
       inkscape:export-xdpi="90"
       inkscape:export-ydpi="90"
       inkscape:export-filename="/home/thot/logicalbricks/cositas/kdm-themes/win-login.png" />
    <rect
       style="color:#000000;fill:none;stroke:#808080;stroke-width:0.99671668;stroke-miterlimit:4;stroke-opacity:1;stroke-dasharray:none;marker:none;visibility:visible;display:inline;overflow:visible;enable-background:accumulate"
       id="rect3104"
       width="601.85077"
       height="362.43195"
       x="64.817001"
       y="159.90421"
       ry="4.4686704" />
  </g>
</svg>
