<?xml version="1.0" encoding="UTF-8" standalone="no"?>
<!-- Created with Inkscape (http://www.inkscape.org/) -->

<svg
   xmlns:dc="http://purl.org/dc/elements/1.1/"
   xmlns:cc="http://creativecommons.org/ns#"
   xmlns:rdf="http://www.w3.org/1999/02/22-rdf-syntax-ns#"
   xmlns:svg="http://www.w3.org/2000/svg"
   xmlns="http://www.w3.org/2000/svg"
   xmlns:sodipodi="http://sodipodi.sourceforge.net/DTD/sodipodi-0.dtd"
   xmlns:inkscape="http://www.inkscape.org/namespaces/inkscape"
   width="400"
   height="400"
   id="svg3018"
   version="1.1"
   inkscape:version="0.48.2 r9819"
   sodipodi:docname="completo.svg">
  <defs
     id="defs3020" />
  <sodipodi:namedview
     id="base"
     pagecolor="#000000"
     bordercolor="#666666"
     borderopacity="1.0"
     inkscape:pageopacity="0"
     inkscape:pageshadow="2"
     inkscape:zoom="1.9081635"
     inkscape:cx="199.70659"
     inkscape:cy="200.44643"
     inkscape:document-units="px"
     inkscape:current-layer="layer1"
     showgrid="false"
     inkscape:window-width="1366"
     inkscape:window-height="711"
     inkscape:window-x="-4"
     inkscape:window-y="35"
     inkscape:window-maximized="1" />
  <metadata
     id="metadata3023">
    <rdf:RDF>
      <cc:Work
         rdf:about="">
        <dc:format>image/svg+xml</dc:format>
        <dc:type
           rdf:resource="http://purl.org/dc/dcmitype/StillImage" />
        <dc:title></dc:title>
      </cc:Work>
    </rdf:RDF>
  </metadata>
  <g
     inkscape:label="Capa 1"
     inkscape:groupmode="layer"
     id="layer1"
     transform="translate(0,-652.36218)">
    <rect
       style="fill:none;stroke:none"
       id="rect3232"
       width="400.00116"
       height="400.00137"
       x="7.3541707e-07"
       y="652.36078"
       inkscape:export-filename="/home/thot/logicalbricks/cositas/misc/ksplash-sources/5.png"
       inkscape:export-xdpi="90"
       inkscape:export-ydpi="90" />
    <g
       id="g3099"
       transform="matrix(2.2669377,0,0,2.2669389,-1320.3835,-719.81957)"
       style="fill:#ffffff"
       inkscape:export-filename="/home/thot/logicalbricks/cositas/misc/ksplash-sources/4.png"
       inkscape:export-xdpi="90"
       inkscape:export-ydpi="90">
      <path
         style="fill:#ffffff"
         id="path4116"
         d="m 625.8144,706.02921 c 2.14663,0 4.00347,0.89173 5.57054,2.67147 1.08575,1.48747 1.63049,2.89907 1.63049,4.23481 l -0.0534,1.68397 v 5.99837 c 0,1.25614 -0.91785,2.5869 -2.75231,3.99477 -1.39917,0.91661 -2.86425,1.37553 -4.39524,1.37553 -2.618,0 -4.78328,-1.16658 -6.49337,-3.49977 -0.33829,-0.57085 -0.50743,-0.97506 -0.50743,-1.21634 v -0.14676 c 0,-0.65045 0.41788,-1.06834 1.25614,-1.25614 h 0.18655 c 0.6318,0 1.12555,0.48131 1.48249,1.4427 1.08576,1.3631 2.44512,2.04464 4.07437,2.04464 1.95013,0 3.41023,-0.87308 4.38157,-2.61799 l 0.0796,-0.53479 v -1.29593 c -1.09571,1.01485 -2.53467,1.52353 -4.31565,1.52353 h -0.39802 c -1.94266,0 -3.74603,-0.90791 -5.41135,-2.72495 -1.02481,-1.4427 -1.53597,-2.9339 -1.53597,-4.47608 0,-2.34314 1.03227,-4.30197 3.09931,-5.87899 1.31708,-0.88054 2.68515,-1.32205 4.10173,-1.32205 z m -4.46241,7.05427 v 0.24004 c 0,1.85312 0.97507,3.23363 2.92643,4.14153 0.50744,0.15173 0.97009,0.22759 1.38922,0.22759 h 0.29351 c 1.8071,0 3.17518,-0.97009 4.10173,-2.91274 0.14179,-0.57957 0.21392,-1.02854 0.21392,-1.34942 v -0.3072 c 0,-1.84316 -0.98501,-3.22492 -2.95255,-4.14152 -0.61439,-0.14179 -1.08699,-0.21392 -1.41658,-0.21392 h -0.18655 c -1.80834,0 -3.17642,0.95889 -4.10173,2.87295 -0.17909,0.52609 -0.2674,1.0074 -0.2674,1.44269 z"
         inkscape:connector-curvature="0" />
      <g
         id="g4810"
         transform="matrix(1.0496968,0,0,1.0496968,524.37728,613.97923)"
         style="fill:#ffffff">
        <path
           style="fill:#ffffff"
           id="path4112"
           d="m 62.295139,82.450479 h 0.240035 c 0.846961,0.179093 1.269819,0.579565 1.269819,1.20266 v 15.979088 h 7.842787 c 0.774827,0 1.233754,0.493753 1.375535,1.482503 -0.25869,0.85566 -0.716372,1.28225 -1.375535,1.28225 h -9.245682 c -0.740004,0 -1.193954,-0.45769 -1.363098,-1.37554 V 83.934216 c 0.106958,-0.988743 0.526086,-1.483737 1.256139,-1.483737 z"
           inkscape:connector-curvature="0" />
        <path
           style="fill:#ffffff"
           id="path4114"
           d="m 81.220558,87.994905 c 1.860578,0 3.544552,0.70269 5.050674,2.110562 1.432745,1.50488 2.150362,3.202536 2.150362,5.090472 0,2.698837 -1.273551,4.819341 -3.820654,6.359051 -1.114357,0.56091 -2.191403,0.84199 -3.233626,0.84199 h -0.400472 c -1.942662,0 -3.746031,-0.90791 -5.411348,-2.724954 -1.02481,-1.442691 -1.535973,-2.93389 -1.535973,-4.476087 0,-2.341894 1.032274,-4.301965 3.099306,-5.878979 1.317081,-0.880542 2.685153,-1.322055 4.101731,-1.322055 z m -4.408925,7.054279 v 0.240034 c 0,1.665318 0.804675,2.957521 2.417757,3.874132 0.569616,0.293521 1.184005,0.440276 1.843166,0.440276 h 0.293515 c 1.718796,0 3.035877,-0.89547 3.954973,-2.685159 0.203968,-0.552199 0.307194,-1.095703 0.307194,-1.630495 v -0.238788 c 0,-1.38051 -0.638018,-2.547102 -1.910326,-3.499779 -0.740003,-0.50743 -1.589451,-0.761145 -2.552077,-0.761145 -1.880478,0 -3.259745,0.988743 -4.141529,2.966227 -0.143026,0.462661 -0.212673,0.894225 -0.212673,1.294697 z"
           inkscape:connector-curvature="0" />
        <path
           style="fill:#ffffff"
           id="path4118"
           d="m 107.52486,84.415529 c 0.88178,0.222622 1.32207,0.64175 1.32207,1.256139 v 0.293513 c 0,0.702692 -0.47635,1.12182 -1.42902,1.256141 -0.68653,0 -1.1355,-0.467632 -1.34942,-1.402896 0.1878,-0.935265 0.67285,-1.402897 1.45637,-1.402897 z m 0,3.420181 c 0.88178,0.222623 1.32207,0.641751 1.32207,1.256139 V 101.0886 c 0,0.72135 -0.44525,1.15788 -1.33575,1.30962 h -0.0796 c -0.73006,0 -1.18028,-0.45394 -1.34942,-1.3631 V 89.358002 c 0.10696,-1.014861 0.58826,-1.522292 1.44269,-1.522292 z"
           inkscape:connector-curvature="0" />
        <path
           style="fill:#ffffff"
           id="path4120"
           d="m 117.99186,87.889189 c 1.87053,0 3.58062,0.712641 5.13028,2.137925 0.15173,0.276102 0.22759,0.53106 0.22759,0.761146 v 0.09328 c -0.16044,0.873079 -0.60941,1.30962 -1.34942,1.30962 h -0.0534 c -0.32958,0 -0.93526,-0.334558 -1.81705,-1.002426 -0.65916,-0.337043 -1.32206,-0.50743 -1.99117,-0.50743 h -0.29351 c -1.77228,0 -3.11797,0.935264 -4.03458,2.805794 -0.21392,0.633043 -0.32087,1.202657 -0.32087,1.710091 0,1.808341 0.94023,3.185117 2.81947,4.127855 0.55221,0.213913 1.14918,0.320869 1.78969,0.320869 1.05093,0 2.11927,-0.457687 3.20627,-1.375539 l 0.54722,-0.120638 h 0.20025 c 0.71263,0 1.14419,0.436541 1.29593,1.309622 v 0.07956 c 0,0.873072 -1.16659,1.754862 -3.49977,2.645352 -0.76614,0.14178 -1.33574,0.21391 -1.7101,0.21391 h -0.40047 c -1.95883,0 -3.77588,-0.91661 -5.45115,-2.752314 -1.03351,-1.451393 -1.54965,-2.952541 -1.54965,-4.502201 0,-2.359301 1.04222,-4.336786 3.12667,-5.932457 1.32702,-0.881784 2.7038,-1.322055 4.12785,-1.322055 z"
           inkscape:connector-curvature="0" />
        <path
           style="fill:#ffffff"
           id="path4122"
           d="m 136.12877,100.87468 c -1.08699,1.01487 -2.52099,1.52354 -4.30197,1.52354 h -0.38803 c -2.45881,0 -4.50718,-1.22877 -6.14513,-3.687579 -0.59698,-1.193958 -0.89547,-2.39164 -0.89547,-3.594297 0,-2.688884 1.31833,-4.823079 3.95497,-6.400092 1.12183,-0.526087 2.21753,-0.788507 3.28711,-0.788507 2.73365,0 4.8977,1.335736 6.49338,4.008451 0.49001,1.095703 0.73502,2.222496 0.73502,3.38038 v 5.784464 c 0,0.71265 -0.43779,1.1442 -1.30962,1.29594 h -0.0933 c -0.60569,0 -1.05591,-0.3557 -1.34942,-1.06835 v -0.14675 l 0.0124,-0.3072 z m -8.97828,-5.811813 v 0.146755 c 0,1.825756 0.9166,3.197557 2.7523,4.115419 0.56962,0.213913 1.08202,0.320869 1.53598,0.320869 h 0.38803 c 1.51359,0 2.76601,-0.761146 3.75474,-2.284683 0.35571,-0.7114 0.53479,-1.394194 0.53479,-2.044651 v -0.200232 c 0,-1.753618 -0.86809,-3.099307 -2.60555,-4.034571 -0.59697,-0.267396 -1.22008,-0.400472 -1.87053,-0.400472 h -0.0534 c -1.84316,0 -3.23362,0.961382 -4.16889,2.88539 -0.17784,0.588269 -0.26739,1.086993 -0.26739,1.496176 z"
           inkscape:connector-curvature="0" />
        <path
           style="fill:#ffffff"
           id="path4124"
           d="m 142.85471,82.531321 h 0.24004 c 0.84572,0.179092 1.26982,0.579564 1.26982,1.202659 v 15.898247 h 0.65419 c 0.64922,0 1.06833,0.440263 1.25613,1.322063 v 0.10696 c -0.15173,0.89048 -0.60567,1.33573 -1.36309,1.33573 h -1.95013 c -0.74,0 -1.19395,-0.45396 -1.3631,-1.3631 V 84.001376 c 0.10696,-0.980038 0.52484,-1.470055 1.25614,-1.470055 z"
           inkscape:connector-curvature="0" />
        <path
           style="fill:#ffffff"
           id="path4126"
           d="m 148.28473,82.397 0.66785,0.106958 h 3.00603 l 0.20024,-0.0398 c 1.69144,0 3.12169,0.779802 4.28828,2.338161 0.59574,0.873079 0.89547,1.822024 0.89547,2.84559 v 0.146758 c 0,1.247434 -0.37933,2.303336 -1.1355,3.166466 2.03097,1.114357 3.04583,2.8941 3.04583,5.344194 0,2.458797 -1.27356,4.346743 -3.82066,5.665063 -0.8283,0.28481 -1.56831,0.42783 -2.21752,0.42783 h -4.56935 c -0.88179,-0.16044 -1.32207,-0.61438 -1.32207,-1.3631 V 83.840938 c 0.13307,-0.89049 0.45395,-1.335736 0.9614,-1.335736 V 82.397 z m 1.8046,2.872952 v 4.849195 h 1.45637 c 1.47006,0 2.40532,-0.502455 2.8058,-1.509854 0.11566,-0.293514 0.17411,-0.583296 0.17411,-0.868104 v -0.146758 c 0,-1.104407 -0.64671,-1.861821 -1.93768,-2.271 l -1.00243,-0.05347 h -1.49617 z m 0,7.615192 v 6.747083 h 2.21752 c 1.77228,0 2.95255,-0.490015 3.54082,-1.470056 0.39177,-0.560911 0.58827,-1.180277 0.58827,-1.856846 v -0.09328 c 0,-1.611841 -0.88177,-2.688883 -2.64536,-3.233625 l -1.34941,-0.09328 h -2.35184 z"
           inkscape:connector-curvature="0" />
        <path
           style="fill:#ffffff"
           id="path4128"
           d="m 162.9741,87.822029 c 0.87307,0.223867 1.30961,0.641752 1.30961,1.256141 v 0.213915 c 1.1044,-0.978792 2.54336,-1.470056 4.31564,-1.470056 0.95392,0 1.98619,0.240036 3.09931,0.721349 0.38305,0.391765 0.57459,0.76985 0.57459,1.135499 v 0.09328 c -0.15174,0.873079 -0.6007,1.309618 -1.34942,1.309618 h -0.12064 c -0.91661,-0.293513 -1.58448,-0.440271 -2.00361,-0.440271 h -0.2935 c -1.7984,0 -3.11797,0.935265 -3.95497,2.805792 -0.17911,0.490018 -0.2674,1.06088 -0.2674,1.71009 v 5.932464 c 0,0.72134 -0.44525,1.15788 -1.33574,1.30961 h -0.0796 c -0.73005,0 -1.18028,-0.45395 -1.34942,-1.3631 V 89.359245 c 0.10571,-1.024811 0.592,-1.537216 1.45514,-1.537216 z"
           inkscape:connector-curvature="0" />
        <path
           style="fill:#ffffff"
           id="path4130"
           d="m 175.64616,84.415529 c 0.88179,0.222622 1.32207,0.64175 1.32207,1.256139 v 0.293513 c 0,0.702692 -0.47759,1.12182 -1.42902,1.256141 -0.68653,0 -1.13549,-0.467632 -1.34942,-1.402896 0.1878,-0.935265 0.67285,-1.402897 1.45637,-1.402897 z m 0,3.420181 c 0.88179,0.222623 1.32207,0.641751 1.32207,1.256139 V 101.0886 c 0,0.72135 -0.44525,1.15788 -1.33574,1.30962 h -0.0796 c -0.7313,0 -1.18028,-0.45394 -1.34943,-1.3631 V 89.358002 c 0.10696,-1.014861 0.58828,-1.522292 1.4427,-1.522292 z"
           inkscape:connector-curvature="0" />
        <path
           style="fill:#ffffff"
           id="path4132"
           d="m 186.11317,87.889189 c 1.87053,0 3.58061,0.712641 5.13027,2.137925 0.15173,0.276102 0.22759,0.53106 0.22759,0.761146 v 0.09328 c -0.16043,0.873079 -0.6094,1.30962 -1.34941,1.30962 h -0.0534 c -0.32958,0 -0.93527,-0.334558 -1.81705,-1.002426 -0.65916,-0.337043 -1.32207,-0.50743 -1.99117,-0.50743 h -0.29352 c -1.77227,0 -3.11796,0.935264 -4.03458,2.805794 -0.21391,0.633043 -0.32087,1.202657 -0.32087,1.710091 0,1.808341 0.94024,3.185117 2.81948,4.127855 0.55221,0.213913 1.14918,0.320869 1.78969,0.320869 1.05093,0 2.11927,-0.457687 3.20626,-1.375539 l 0.54723,-0.120638 h 0.20025 c 0.71263,0 1.14419,0.436541 1.29593,1.309622 v 0.07956 c 0,0.873072 -1.1666,1.754862 -3.49977,2.645352 -0.76614,0.14178 -1.33574,0.21391 -1.7101,0.21391 h -0.40047 c -1.95883,0 -3.77588,-0.91661 -5.45115,-2.752314 -1.03352,-1.451393 -1.54965,-2.952541 -1.54965,-4.502201 0,-2.359301 1.04222,-4.336786 3.12667,-5.932457 1.32827,-0.881784 2.7038,-1.322055 4.12785,-1.322055 z"
           inkscape:connector-curvature="0" />
        <path
           style="fill:#ffffff"
           id="path4134"
           d="m 197.99674,95.076542 -1.67029,1.068345 v 4.943713 c 0,0.72135 -0.44524,1.15788 -1.33574,1.30962 h -0.0796 c -0.68651,0 -1.14047,-0.41912 -1.36309,-1.25614 V 83.746418 c 0.18655,-0.881786 0.60568,-1.322056 1.25614,-1.322056 h 0.24003 c 0.85567,0.186555 1.28226,0.593246 1.28226,1.21634 v 9.218323 c 4.35544,-2.88539 6.96722,-4.573095 7.82909,-5.063113 h 0.36193 c 0.76488,0 1.21883,0.476338 1.3631,1.429014 0,0.588271 -0.60693,1.20266 -1.81706,1.843167 -1.98742,1.344442 -3.21621,2.187672 -3.68882,2.524717 l 5.42504,6.86648 0.0797,0.44027 v 0.12064 c -0.16044,0.88178 -0.61439,1.32205 -1.3631,1.32205 h -0.0945 c -0.5348,0 -1.23375,-0.62309 -2.09688,-1.87053 l -4.32808,-5.395178 z"
           inkscape:connector-curvature="0" />
        <path
           style="fill:#ffffff"
           id="path4136"
           d="m 216.30653,97.628615 c -0.007,-0.177842 -0.19153,-0.284803 -0.54599,-0.320866 -4.50842,-1.006156 -6.91374,-1.646663 -7.21472,-1.924013 -0.91785,-0.695222 -1.37678,-1.554624 -1.37678,-2.578189 0,-1.389218 0.97134,-2.707542 2.91276,-3.954976 1.06835,-0.56091 2.12549,-0.841986 3.1677,-0.841986 2.43891,0 4.36789,1.126794 5.78322,3.380383 l 0.0534,0.493749 v 0.0796 c 0,0.757411 -0.45394,1.202657 -1.3631,1.335738 -0.60444,0 -1.16659,-0.427839 -1.68397,-1.282259 -0.80841,-0.792239 -1.74118,-1.188979 -2.79086,-1.188979 -1.37305,0 -2.44637,0.641749 -3.2212,1.924009 l -0.0261,0.133073 c 0,0.179093 0.3843,0.29849 1.14917,0.360678 3.83061,0.926554 5.94614,1.465079 6.34786,1.616813 1.0957,0.721342 1.64169,1.634219 1.64169,2.738632 v 0.0398 c 0,1.523532 -1.0758,2.899068 -3.23362,4.127848 -0.93527,0.41788 -1.91904,0.62807 -2.95131,0.62807 -2.13793,0 -3.94254,-0.99745 -5.41259,-2.992348 -0.18656,-0.267396 -0.27984,-0.526086 -0.27984,-0.77483 v -0.29351 c 0,-0.721349 0.48878,-1.135509 1.47006,-1.242463 0.47136,0 1.02729,0.458934 1.66905,1.375531 0.78477,0.730055 1.70262,1.095712 2.7523,1.095712 1.24868,0 2.28096,-0.583297 3.09931,-1.749889 l 0.0534,-0.185324 z"
           inkscape:connector-curvature="0" />
      </g>
    </g>
    <path
       style="fill:none;stroke:#be1e2d;stroke-width:9.06775284;stroke-miterlimit:10"
       id="path4156"
       d="M 354.90099,737.74076 H 185.75343 c -4.23239,0 -7.66224,3.43214 -7.66224,7.66224 v 19.50929 h 39.52858 c 4.22783,0 7.65998,3.42987 7.65998,7.65998 v 12.06465 h 67.00841 c 4.23238,0 7.65998,3.43215 7.65998,7.65999 v 19.23723 h 54.95512 c 4.23235,0 7.66451,-3.43214 7.66451,-7.65997 V 745.403 c -0.002,-4.23235 -3.43441,-7.66224 -7.66678,-7.66224 z"
       inkscape:connector-curvature="0"
       inkscape:export-filename="/home/thot/logicalbricks/cositas/misc/ksplash-sources/2.png"
       inkscape:export-xdpi="90"
       inkscape:export-ydpi="90" />
    <path
       style="fill:none;stroke:#f7941e;stroke-width:9.06775284;stroke-miterlimit:10"
       id="path4158"
       d="m 225.27748,831.04344 c 0,4.23236 -3.43214,7.66451 -7.65998,7.66451 H 115.47156 v 12.06012 c 0,4.23237 3.42988,7.66451 7.66452,7.66451 h 169.14753 c 4.2324,0 7.65999,-3.43214 7.65999,-7.66451 v -39.23393 h -74.66838 v 19.5093 z"
       inkscape:connector-curvature="0"
       inkscape:export-filename="/home/thot/logicalbricks/cositas/misc/ksplash-sources/3.png"
       inkscape:export-xdpi="90"
       inkscape:export-ydpi="90" />
    <path
       style="fill:none;stroke:#004e7f;stroke-width:9.06775284;stroke-miterlimit:10"
       id="path4160"
       d="m 123.13608,784.63692 h 54.95283 V 764.91229 H 48.465411 c -4.230103,0 -7.662248,3.42987 -7.662248,7.65998 v 58.47117 c 0,4.23236 3.432145,7.66451 7.662248,7.66451 h 67.006149 v -46.41104 c 0,-4.22784 3.42988,-7.65999 7.66452,-7.65999 z"
       inkscape:connector-curvature="0"
       inkscape:export-filename="/home/thot/logicalbricks/cositas/misc/ksplash-sources/1.png"
       inkscape:export-xdpi="90"
       inkscape:export-ydpi="90" />
    <g
       id="g3261"
       style="fill:#ffffff"
       inkscape:export-filename="/home/thot/logicalbricks/cositas/misc/ksplash-sources/5.png"
       inkscape:export-xdpi="90"
       inkscape:export-ydpi="90"
       transform="matrix(1.6000047,0,0,1.6000054,7.3539746e-7,-631.42314)">
      <path
         inkscape:connector-curvature="0"
         d="m 72.023605,974.53333 c 1.372556,2e-5 2.51635,0.61988 3.431397,1.8596 l 0.04421,0.1771 0,0.25458 c -1.4e-5,0.3616 -0.269354,0.58668 -0.808033,0.67522 -0.221394,10e-6 -0.601431,-0.29886 -1.140111,-0.8966 -0.48705,-0.30992 -0.951941,-0.46488 -1.394701,-0.46489 l -0.254576,0 c -0.92981,10e-6 -1.634528,0.49443 -2.114183,1.48323 -0.110654,0.23616 -0.166038,0.47599 -0.166038,0.7195 l 0,0.34313 c 0,1.07002 0.645693,1.84484 1.937078,2.3245 0.929782,10e-6 1.933381,0.43539 3.010768,1.30613 1.040479,1.05526 1.560711,2.21381 1.560725,3.47567 -1.4e-5,1.54966 -0.664154,2.8189 -1.992419,3.80774 -0.811732,0.56082 -1.712015,0.84124 -2.700836,0.84124 -1.601318,0 -2.9259,-0.68997 -3.973774,-2.0699 l -0.08855,-0.34315 c 0.09592,-0.53129 0.365287,-0.79695 0.808047,-0.79696 0.295169,10e-6 0.675206,0.29518 1.140096,0.88552 0.693653,0.47966 1.32828,0.71949 1.903868,0.71949 l 0.376353,0 c 1.121649,0 2.025617,-0.63463 2.711902,-1.90387 0.110654,-0.41324 0.166024,-0.72318 0.166038,-0.92979 l 0,-0.42063 c -1.4e-5,-1.11427 -0.634627,-2.01824 -1.903868,-2.7119 l -2.158458,-0.59774 c -1.608699,-0.9224 -2.413049,-2.13261 -2.413035,-3.63063 l 0,-0.29885 c -1.4e-5,-1.47586 0.789586,-2.63072 2.368759,-3.46461 0.590337,-0.22873 1.140096,-0.34311 1.649277,-0.34313"
         id="path3116"
         style="font-size:16px;font-style:normal;font-variant:normal;font-weight:normal;font-stretch:normal;line-height:125%;letter-spacing:0px;word-spacing:0px;fill:#ffffff;fill-opacity:1;stroke:none;font-family:Comfortaa;-inkscape-font-specification:Comfortaa" />
      <path
         inkscape:connector-curvature="0"
         d="m 85.638481,974.55547 c 2.678691,10e-6 4.918305,1.23974 6.718886,3.71918 0.811703,1.40946 1.217569,2.82998 1.217583,4.26156 -1.4e-5,2.64919 -1.19915,4.85193 -3.597421,6.6082 -1.357807,0.86338 -2.778337,1.29507 -4.261561,1.29507 l -0.166039,0 c -2.730362,0 -4.958911,-1.26924 -6.685675,-3.80773 -0.782219,-1.28401 -1.173321,-2.67501 -1.173321,-4.17301 0,-2.5311 1.114281,-4.66373 3.342845,-6.39789 1.446344,-1.00357 2.981241,-1.50537 4.604703,-1.50538 m -6.320402,8.02502 c 0,2.02194 0.892902,3.72288 2.678705,5.10282 1.114267,0.75269 2.298654,1.12903 3.553145,1.12903 l 0.210315,0 c 1.977642,0 3.649064,-0.87814 5.014253,-2.63442 0.78219,-1.12903 1.173293,-2.35769 1.173307,-3.68599 -1.4e-5,-2.28019 -1.044191,-4.08812 -3.132516,-5.4238 -1.033126,-0.59034 -2.092052,-0.8855 -3.176807,-0.88552 -2.088353,2e-5 -3.818815,0.90767 -5.191357,2.72297 -0.752706,1.08478 -1.129045,2.30975 -1.129045,3.67491"
         id="path3118"
         style="font-size:16px;font-style:normal;font-variant:normal;font-weight:normal;font-stretch:normal;line-height:125%;letter-spacing:0px;word-spacing:0px;fill:#ffffff;fill-opacity:1;stroke:none;font-family:Comfortaa;-inkscape-font-specification:Comfortaa" />
      <path
         inkscape:connector-curvature="0"
         d="m 96.154023,974.57761 0.166039,0 c 0.501799,0.10329 0.752692,0.3247 0.752692,0.66414 l 0,13.57059 6.829566,0 c 0.45013,0 0.71579,0.29148 0.79697,0.87445 -0.14759,0.5018 -0.41325,0.75269 -0.79697,0.75269 l -7.659745,0 c -0.427996,0 -0.693652,-0.28042 -0.796968,-0.84124 l 0,-14.10191 c 0.06645,-0.61247 0.302551,-0.91871 0.708416,-0.91872"
         id="path3120"
         style="font-size:16px;font-style:normal;font-variant:normal;font-weight:normal;font-stretch:normal;line-height:125%;letter-spacing:0px;word-spacing:0px;fill:#ffffff;fill-opacity:1;stroke:none;font-family:Comfortaa;-inkscape-font-specification:Comfortaa" />
      <path
         inkscape:connector-curvature="0"
         d="m 107.11234,974.57761 0.16604,0 c 0.50178,0.10329 0.75268,0.3247 0.75269,0.66414 l 0,8.92161 c -1e-5,1.91863 0.54606,3.20263 1.63821,3.85201 0.68627,0.53131 1.45371,0.79697 2.30235,0.79697 1.63082,0 2.85948,-0.83755 3.68598,-2.51267 0.16971,-0.52392 0.25457,-1.06999 0.25459,-1.63821 l 0,-9.29796 c 0.0885,-0.52392 0.33943,-0.78588 0.75269,-0.78589 l 0.12171,0 c 0.50178,0.0959 0.75267,0.34684 0.75269,0.75269 l 0,9.75179 c -2e-5,1.66035 -0.79697,3.11038 -2.39091,4.35011 -1.0036,0.67152 -2.02194,1.00728 -3.05504,1.00728 l -0.28779,0 c -1.73414,0 -3.24322,-0.85231 -4.52721,-2.55694 -0.58297,-0.91503 -0.87446,-2.04406 -0.87446,-3.38711 l 0,-8.9991 c 0.0665,-0.61247 0.30255,-0.91871 0.70842,-0.91872"
         id="path3122"
         style="font-size:16px;font-style:normal;font-variant:normal;font-weight:normal;font-stretch:normal;line-height:125%;letter-spacing:0px;word-spacing:0px;fill:#ffffff;fill-opacity:1;stroke:none;font-family:Comfortaa;-inkscape-font-specification:Comfortaa" />
      <path
         inkscape:connector-curvature="0"
         d="m 120.01879,974.5444 10.32738,0 c 0.50177,0.0959 0.75268,0.34684 0.75269,0.75269 l 0,0.16604 c -1e-5,0.40588 -0.30626,0.64201 -0.91873,0.70842 l -4.16194,0 0,13.51524 c -1e-5,0.41325 -0.26567,0.66414 -0.79697,0.75269 l -0.0332,0 c -0.42801,0 -0.69367,-0.28042 -0.79697,-0.84124 l 0,-13.42669 -4.23943,0 c -0.56082,-0.11066 -0.84124,-0.38741 -0.84124,-0.83018 0.11802,-0.5313 0.3542,-0.79696 0.70841,-0.79697"
         id="path3124"
         style="font-size:16px;font-style:normal;font-variant:normal;font-weight:normal;font-stretch:normal;line-height:125%;letter-spacing:0px;word-spacing:0px;fill:#ffffff;fill-opacity:1;stroke:none;font-family:Comfortaa;-inkscape-font-specification:Comfortaa" />
      <path
         inkscape:connector-curvature="0"
         d="m 133.89932,974.41157 0.21031,0.0332 1.57179,0 0.16604,-0.0332 c 0.56083,0.11802 0.84125,0.3985 0.84125,0.84125 -0.0959,0.56083 -0.36159,0.84125 -0.79697,0.84124 l -0.17711,0 0,12.69615 0.25459,0 c 0.36896,0 0.60879,0.26934 0.71949,0.80803 l 0,0.0442 c -0.0959,0.53132 -0.36159,0.79697 -0.79697,0.79697 l -1.99242,0 c -0.53131,-0.0959 -0.79697,-0.36159 -0.79697,-0.79697 l 0,-0.0442 c 0.11065,-0.53869 0.35051,-0.80803 0.71948,-0.80803 l 0.25459,0 0,-12.69615 -0.1771,0 c -0.46491,10e-6 -0.73056,-0.29515 -0.79697,-0.88552 l 0,-0.0442 c 0,-0.34681 0.26566,-0.5977 0.79697,-0.75269"
         id="path3126"
         style="font-size:16px;font-style:normal;font-variant:normal;font-weight:normal;font-stretch:normal;line-height:125%;letter-spacing:0px;word-spacing:0px;fill:#ffffff;fill-opacity:1;stroke:none;font-family:Comfortaa;-inkscape-font-specification:Comfortaa" />
      <path
         inkscape:connector-curvature="0"
         d="m 146.78363,974.55547 c 2.67869,10e-6 4.91831,1.23974 6.71889,3.71918 0.8117,1.40946 1.21757,2.82998 1.21758,4.26156 -1e-5,2.64919 -1.19915,4.85193 -3.59742,6.6082 -1.35781,0.86338 -2.77834,1.29507 -4.26156,1.29507 l -0.16604,0 c -2.73036,0 -4.95891,-1.26924 -6.68567,-3.80773 -0.78222,-1.28401 -1.17333,-2.67501 -1.17333,-4.17301 0,-2.5311 1.11429,-4.66373 3.34285,-6.39789 1.44634,-1.00357 2.98124,-1.50537 4.6047,-1.50538 m -6.3204,8.02502 c 0,2.02194 0.8929,3.72288 2.67871,5.10282 1.11426,0.75269 2.29865,1.12903 3.55314,1.12903 l 0.21032,0 c 1.97764,0 3.64906,-0.87814 5.01425,-2.63442 0.78219,-1.12903 1.17329,-2.35769 1.17331,-3.68599 -2e-5,-2.28019 -1.0442,-4.08812 -3.13252,-5.4238 -1.03313,-0.59034 -2.09205,-0.8855 -3.17681,-0.88552 -2.08835,2e-5 -3.81881,0.90767 -5.19135,2.72297 -0.75271,1.08478 -1.12905,2.30975 -1.12905,3.67491"
         id="path3128"
         style="font-size:16px;font-style:normal;font-variant:normal;font-weight:normal;font-stretch:normal;line-height:125%;letter-spacing:0px;word-spacing:0px;fill:#ffffff;fill-opacity:1;stroke:none;font-family:Comfortaa;-inkscape-font-specification:Comfortaa" />
      <path
         inkscape:connector-curvature="0"
         d="m 157.21062,974.59974 0.16604,0 c 0.35421,2e-5 0.66046,0.27675 0.91873,0.83018 0.41324,0.4649 3.44245,4.34275 9.08765,11.63352 0.0591,0 0.0885,0.0405 0.0885,0.12171 l 0.0332,0.0442 0.0442,0 0,-11.87703 c 0.0959,-0.50177 0.34681,-0.75268 0.75269,-0.75269 l 0.12171,0 c 0.41321,10e-6 0.66412,0.26198 0.75269,0.7859 l 0,14.22366 c -2e-5,0.45752 -0.2915,0.73425 -0.87446,0.83018 -0.31732,0 -0.80436,-0.48704 -1.4611,-1.46111 l -8.71131,-11.12434 0,11.78848 c 0,0.41325 -0.26566,0.66414 -0.79697,0.75269 l -0.0332,0 c -0.428,0 -0.69366,-0.27672 -0.79697,-0.83018 l 0,-14.04655 c 0.0665,-0.61247 0.30255,-0.91872 0.70842,-0.91873"
         id="path3130"
         style="font-size:16px;font-style:normal;font-variant:normal;font-weight:normal;font-stretch:normal;line-height:125%;letter-spacing:0px;word-spacing:0px;fill:#ffffff;fill-opacity:1;stroke:none;font-family:Comfortaa;-inkscape-font-specification:Comfortaa" />
      <path
         inkscape:connector-curvature="0"
         d="m 175.71799,974.53333 c 1.37256,2e-5 2.51635,0.61988 3.4314,1.8596 l 0.0442,0.1771 0,0.25458 c -1e-5,0.3616 -0.26935,0.58668 -0.80803,0.67522 -0.2214,10e-6 -0.60143,-0.29886 -1.14011,-0.8966 -0.48705,-0.30992 -0.95194,-0.46488 -1.3947,-0.46489 l -0.25458,0 c -0.92981,10e-6 -1.63453,0.49443 -2.11418,1.48323 -0.11066,0.23616 -0.16604,0.47599 -0.16604,0.7195 l 0,0.34313 c 0,1.07002 0.64569,1.84484 1.93708,2.3245 0.92978,10e-6 1.93338,0.43539 3.01077,1.30613 1.04047,1.05526 1.56071,2.21381 1.56072,3.47567 -1e-5,1.54966 -0.66415,2.8189 -1.99242,3.80774 -0.81173,0.56082 -1.71201,0.84124 -2.70083,0.84124 -1.60132,0 -2.9259,-0.68997 -3.97378,-2.0699 l -0.0885,-0.34315 c 0.0959,-0.53129 0.36529,-0.79695 0.80805,-0.79696 0.29517,10e-6 0.6752,0.29518 1.14009,0.88552 0.69366,0.47966 1.32828,0.71949 1.90387,0.71949 l 0.37635,0 c 1.12165,0 2.02562,-0.63463 2.71191,-1.90387 0.11065,-0.41324 0.16602,-0.72318 0.16603,-0.92979 l 0,-0.42063 c -1e-5,-1.11427 -0.63462,-2.01824 -1.90386,-2.7119 l -2.15846,-0.59774 c -1.6087,-0.9224 -2.41305,-2.13261 -2.41304,-3.63063 l 0,-0.29885 c -1e-5,-1.47586 0.78959,-2.63072 2.36876,-3.46461 0.59034,-0.22873 1.1401,-0.34311 1.64928,-0.34313"
         id="path3132"
         style="font-size:16px;font-style:normal;font-variant:normal;font-weight:normal;font-stretch:normal;line-height:125%;letter-spacing:0px;word-spacing:0px;fill:#ffffff;fill-opacity:1;stroke:none;font-family:Comfortaa;-inkscape-font-specification:Comfortaa" />
    </g>
  </g>
</svg>
